Hack-Italic.ufo
<glyph name="exclam" format="1">
  <advance width="1233"/>
  <unicode hex="0021"/>
  <note>
	exclam
  </note>
  <outline>
    <contour>
      <point x="647" y="1053" type="line"/>
      <point x="717" y="1498" type="line"/>
      <point x="982" y="1498" type="line"/>
      <point x="912" y="1053" type="line"/>
      <point x="755" y="486" type="line"/>
      <point x="634" y="486" type="line"/>
    </contour>
    <contour>
      <point x="562" y="-60"/>
      <point x="529" y="-48"/>
      <point x="505" y="-19" type="curve" smooth="yes"/>
      <point x="477" y="14"/>
      <point x="470" y="58"/>
      <point x="470" y="89" type="curve" smooth="yes"/>
      <point x="470" y="144"/>
      <point x="492" y="190"/>
      <point x="531" y="229" type="curve" smooth="yes"/>
      <point x="570" y="266"/>
      <point x="616" y="284"/>
      <point x="664" y="284" type="curve" smooth="yes"/>
      <point x="705" y="284"/>
      <point x="743" y="271"/>
      <point x="768" y="244" type="curve" smooth="yes"/>
      <point x="797" y="212"/>
      <point x="802" y="168"/>
      <point x="802" y="148" type="curve" smooth="yes"/>
      <point x="802" y="91"/>
      <point x="778" y="31"/>
      <point x="731" y="-12" type="curve" smooth="yes"/>
      <point x="699" y="-43"/>
      <point x="659" y="-60"/>
      <point x="606" y="-60" type="curve" smooth="yes"/>
    </contour>
  </outline>
</glyph>
<glyph name="numbersign" format="1">
  <advance width="1233"/>
  <unicode hex="0023"/>
  <note>
	numbersign
  </note>
  <outline>
    <contour>
      <point x="250" y="414" type="line"/>
      <point x="-6" y="414" type="line"/>
      <point x="33" y="567" type="line"/>
      <point x="289" y="567" type="line"/>
      <point x="373" y="901" type="line"/>
      <point x="115" y="901" type="line"/>
      <point x="154" y="1055" type="line"/>
      <point x="412" y="1055" type="line"/>
      <point x="516" y="1470" type="line"/>
      <point x="676" y="1470" type="line"/>
      <point x="571" y="1055" type="line"/>
      <point x="817" y="1055" type="line"/>
      <point x="922" y="1470" type="line"/>
      <point x="1081" y="1470" type="line"/>
      <point x="977" y="1055" type="line"/>
      <point x="1233" y="1055" type="line"/>
      <point x="1194" y="901" type="line"/>
      <point x="938" y="901" type="line"/>
      <point x="854" y="567" type="line"/>
      <point x="1112" y="567" type="line"/>
      <point x="1073" y="414" type="line"/>
      <point x="815" y="414" type="line"/>
      <point x="711" y="0" type="line"/>
      <point x="551" y="0" type="line"/>
      <point x="655" y="414" type="line"/>
      <point x="410" y="414" type="line"/>
      <point x="305" y="0" type="line"/>
      <point x="145" y="0" type="line"/>
    </contour>
    <contour>
      <point x="694" y="567" type="line"/>
      <point x="778" y="901" type="line"/>
      <point x="532" y="901" type="line"/>
      <point x="449" y="567" type="line"/>
    </contour>
  </outline>
</glyph>
<glyph name="dollar" format="1">
  <advance width="1233"/>
  <unicode hex="0024"/>
  <note>
	dollar
  </note>
  <outline>
    <contour>
      <point x="413" y="0" type="line"/>
      <point x="351" y="2"/>
      <point x="287" y="11"/>
      <point x="222" y="26" type="curve" smooth="yes"/>
      <point x="154" y="42"/>
      <point x="92" y="64"/>
      <point x="31" y="92" type="curve"/>
      <point x="66" y="272" type="line"/>
      <point x="174" y="192"/>
      <point x="304" y="146"/>
      <point x="440" y="141" type="curve"/>
      <point x="530" y="606" type="line"/>
      <point x="417" y="629"/>
      <point x="332" y="662"/>
      <point x="275" y="714" type="curve" smooth="yes"/>
      <point x="224" y="761"/>
      <point x="195" y="821"/>
      <point x="195" y="912" type="curve" smooth="yes"/>
      <point x="195" y="1023"/>
      <point x="239" y="1123"/>
      <point x="328" y="1200" type="curve" smooth="yes"/>
      <point x="417" y="1277"/>
      <point x="537" y="1317"/>
      <point x="669" y="1321" type="curve"/>
      <point x="717" y="1556" type="line"/>
      <point x="817" y="1556" type="line"/>
      <point x="770" y="1321" type="line"/>
      <point x="830" y="1317"/>
      <point x="893" y="1308"/>
      <point x="933" y="1300" type="curve" smooth="yes"/>
      <point x="953" y="1296"/>
      <point x="979" y="1290"/>
      <point x="1007" y="1283" type="curve"/>
      <point x="1034" y="1275"/>
      <point x="1060" y="1268"/>
      <point x="1083" y="1260" type="curve"/>
      <point x="1051" y="1087" type="line"/>
      <point x="1008" y="1114"/>
      <point x="952" y="1138"/>
      <point x="909" y="1151" type="curve" smooth="yes"/>
      <point x="866" y="1164"/>
      <point x="804" y="1177"/>
      <point x="743" y="1182" type="curve"/>
      <point x="662" y="756" type="line"/>
      <point x="779" y="733"/>
      <point x="866" y="694"/>
      <point x="925" y="639" type="curve" smooth="yes"/>
      <point x="985" y="583"/>
      <point x="1014" y="516"/>
      <point x="1014" y="421" type="curve" smooth="yes"/>
      <point x="1014" y="304"/>
      <point x="969" y="202"/>
      <point x="877" y="122" type="curve" smooth="yes"/>
      <point x="786" y="42"/>
      <point x="668" y="2"/>
      <point x="524" y="2" type="curve" smooth="yes"/>
      <point x="514" y="2" type="line"/>
      <point x="455" y="-301" type="line"/>
      <point x="354" y="-301" type="line"/>
    </contour>
    <contour>
      <point x="643" y="1184" type="line"/>
      <point x="486" y="1175"/>
      <point x="373" y="1072"/>
      <point x="373" y="941" type="curve" smooth="yes"/>
      <point x="373" y="894"/>
      <point x="387" y="859"/>
      <point x="415" y="834" type="curve" smooth="yes"/>
      <point x="442" y="810"/>
      <point x="487" y="790"/>
      <point x="563" y="774" type="curve"/>
    </contour>
    <contour>
      <point x="543" y="145" type="line"/>
      <point x="630" y="145"/>
      <point x="699" y="169"/>
      <point x="752" y="218" type="curve" smooth="yes"/>
      <point x="803" y="265"/>
      <point x="831" y="326"/>
      <point x="831" y="402" type="curve" smooth="yes"/>
      <point x="831" y="461"/>
      <point x="815" y="500"/>
      <point x="784" y="527" type="curve" smooth="yes"/>
      <point x="753" y="554"/>
      <point x="702" y="575"/>
      <point x="629" y="588" type="curve"/>
    </contour>
  </outline>
</glyph>
<glyph name="zero" format="1">
  <advance width="1233"/>
  <unicode hex="0030"/>
  <note>
	zero
  </note>
  <outline>
    <contour>
      <point x="221" y="-29"/>
      <point x="98" y="137"/>
      <point x="98" y="464" type="curve" smooth="yes"/>
      <point x="98" y="596"/>
      <point x="118" y="744"/>
      <point x="154" y="885" type="curve" smooth="yes"/>
      <point x="190" y="1026"/>
      <point x="241" y="1152"/>
      <point x="297" y="1244" type="curve" smooth="yes"/>
      <point x="353" y="1339"/>
      <point x="416" y="1406"/>
      <point x="493" y="1453" type="curve" smooth="yes"/>
      <point x="562" y="1496"/>
      <point x="645" y="1520"/>
      <point x="749" y="1520" type="curve" smooth="yes"/>
      <point x="884" y="1520"/>
      <point x="976" y="1480"/>
      <point x="1040" y="1396" type="curve" smooth="yes"/>
      <point x="1100" y="1316"/>
      <point x="1135" y="1199"/>
      <point x="1135" y="1028" type="curve" smooth="yes"/>
      <point x="1135" y="893"/>
      <point x="1114" y="740"/>
      <point x="1079" y="608" type="curve" smooth="yes"/>
      <point x="1044" y="471"/>
      <point x="993" y="346"/>
      <point x="936" y="249" type="curve" smooth="yes"/>
      <point x="880" y="153"/>
      <point x="817" y="84"/>
      <point x="741" y="39" type="curve" smooth="yes"/>
      <point x="669" y="-4"/>
      <point x="584" y="-29"/>
      <point x="480" y="-29" type="curve" smooth="yes"/>
    </contour>
    <contour>
      <point x="615" y="135"/>
      <point x="685" y="202"/>
      <point x="722" y="256" type="curve" smooth="yes"/>
      <point x="741" y="283"/>
      <point x="757" y="309"/>
      <point x="770" y="334" type="curve" smooth="yes"/>
      <point x="814" y="422"/>
      <point x="855" y="548"/>
      <point x="886" y="681" type="curve" smooth="yes"/>
      <point x="917" y="818"/>
      <point x="932" y="949"/>
      <point x="932" y="1057" type="curve" smooth="yes"/>
      <point x="932" y="1169"/>
      <point x="916" y="1240"/>
      <point x="883" y="1287" type="curve" smooth="yes"/>
      <point x="850" y="1334"/>
      <point x="796" y="1356"/>
      <point x="732" y="1356" type="curve" smooth="yes"/>
      <point x="676" y="1356"/>
      <point x="623" y="1339"/>
      <point x="578" y="1306" type="curve" smooth="yes"/>
      <point x="530" y="1271"/>
      <point x="492" y="1218"/>
      <point x="461" y="1158" type="curve" smooth="yes"/>
      <point x="416" y="1070"/>
      <point x="376" y="953"/>
      <point x="345" y="812" type="curve" smooth="yes"/>
      <point x="313" y="665"/>
      <point x="299" y="532"/>
      <point x="299" y="429" type="curve" smooth="yes"/>
      <point x="299" y="313"/>
      <point x="316" y="247"/>
      <point x="351" y="203" type="curve" smooth="yes"/>
      <point x="383" y="162"/>
      <point x="434" y="135"/>
      <point x="502" y="135" type="curve" smooth="yes"/>
    </contour>
    <contour>
      <point x="545" y="401"/>
      <point x="541" y="402"/>
      <point x="538" y="403" type="curve" smooth="yes"/>
      <point x="507" y="414"/>
      <point x="497" y="461"/>
      <point x="497" y="526" type="curve" smooth="yes"/>
      <point x="497" y="545"/>
      <point x="498" y="558"/>
      <point x="499" y="578" type="curve" smooth="yes"/>
      <point x="502" y="629"/>
      <point x="506" y="669"/>
      <point x="511" y="704" type="curve" smooth="yes"/>
      <point x="515" y="739"/>
      <point x="521" y="767"/>
      <point x="528" y="798" type="curve"/>
      <point x="530" y="805"/>
      <point x="533" y="816"/>
      <point x="536" y="829" type="curve" smooth="yes"/>
      <point x="542" y="855"/>
      <point x="552" y="888"/>
      <point x="565" y="925" type="curve" smooth="yes"/>
      <point x="578" y="961"/>
      <point x="605" y="1027"/>
      <point x="639" y="1063" type="curve" smooth="yes"/>
      <point x="656" y="1080"/>
      <point x="671" y="1089"/>
      <point x="686" y="1089" type="curve" smooth="yes"/>
      <point x="687" y="1089"/>
      <point x="689" y="1089"/>
      <point x="690" y="1089" type="curve" smooth="yes"/>
      <point x="691" y="1089"/>
      <point x="694" y="1088"/>
      <point x="697" y="1087" type="curve"/>
      <point x="710" y="1084"/>
      <point x="720" y="1073"/>
      <point x="729" y="1056" type="curve"/>
      <point x="737" y="1039"/>
      <point x="741" y="1010"/>
      <point x="741" y="969" type="curve"/>
      <point x="740" y="965"/>
      <point x="740" y="961"/>
      <point x="740" y="956" type="curve" smooth="yes"/>
      <point x="740" y="951"/>
      <point x="740" y="946"/>
      <point x="740" y="941" type="curve"/>
      <point x="737" y="890"/>
      <point x="735" y="853"/>
      <point x="731" y="823" type="curve" smooth="yes"/>
      <point x="727" y="793"/>
      <point x="723" y="770"/>
      <point x="718" y="750" type="curve" smooth="yes"/>
      <point x="711" y="722"/>
      <point x="702" y="687"/>
      <point x="691" y="651" type="curve" smooth="yes"/>
      <point x="679" y="614"/>
      <point x="665" y="574"/>
      <point x="652" y="541" type="curve" smooth="yes"/>
      <point x="635" y="496"/>
      <point x="618" y="462"/>
      <point x="601" y="438" type="curve" smooth="yes"/>
      <point x="584" y="413"/>
      <point x="567" y="401"/>
      <point x="550" y="401" type="curve" smooth="yes"/>
    </contour>
  </outline>
</glyph>
<glyph name="two" format="1">
  <advance width="1233"/>
  <unicode hex="0032"/>
  <note>
	two
  </note>
  <outline>
    <contour>
      <point x="32" y="136" type="line" smooth="yes"/>
      <point x="37" y="163"/>
      <point x="48" y="178"/>
      <point x="65" y="193" type="curve" smooth="yes"/>
      <point x="350" y="444" type="line"/>
      <point x="389" y="479" type="line" smooth="yes"/>
      <point x="564" y="635"/>
      <point x="697" y="766"/>
      <point x="788" y="878" type="curve" smooth="yes"/>
      <point x="879" y="989"/>
      <point x="926" y="1080"/>
      <point x="926" y="1160" type="curve" smooth="yes"/>
      <point x="926" y="1216"/>
      <point x="903" y="1264"/>
      <point x="862" y="1299" type="curve" smooth="yes"/>
      <point x="821" y="1334"/>
      <point x="761" y="1352"/>
      <point x="684" y="1352" type="curve" smooth="yes"/>
      <point x="620" y="1352"/>
      <point x="550" y="1339"/>
      <point x="486" y="1319" type="curve" smooth="yes"/>
      <point x="419" y="1298"/>
      <point x="338" y="1262"/>
      <point x="254" y="1217" type="curve"/>
      <point x="295" y="1421" type="line"/>
      <point x="375" y="1456"/>
      <point x="449" y="1480"/>
      <point x="512" y="1495" type="curve" smooth="yes"/>
      <point x="588" y="1514"/>
      <point x="652" y="1520"/>
      <point x="709" y="1520" type="curve" smooth="yes"/>
      <point x="838" y="1520"/>
      <point x="941" y="1485"/>
      <point x="1013" y="1424" type="curve" smooth="yes"/>
      <point x="1085" y="1363"/>
      <point x="1126" y="1275"/>
      <point x="1126" y="1163" type="curve" smooth="yes"/>
      <point x="1126" y="1107"/>
      <point x="1117" y="1053"/>
      <point x="1090" y="989" type="curve" smooth="yes"/>
      <point x="1063" y="924"/>
      <point x="1024" y="861"/>
      <point x="973" y="799" type="curve" smooth="yes"/>
      <point x="961" y="784"/>
      <point x="948" y="770"/>
      <point x="929" y="751" type="curve" smooth="yes"/>
      <point x="910" y="731"/>
      <point x="887" y="709"/>
      <point x="854" y="678" type="curve" smooth="yes"/>
      <point x="788" y="617"/>
      <point x="732" y="566"/>
      <point x="685" y="526" type="curve" smooth="yes"/>
      <point x="638" y="485"/>
      <point x="605" y="458"/>
      <point x="588" y="444" type="curve" smooth="yes"/>
      <point x="258" y="170" type="line"/>
      <point x="952" y="170" type="line"/>
      <point x="920" y="0" type="line"/>
      <point x="6" y="0" type="line"/>
    </contour>
  </outline>
</glyph>
<glyph name="A" format="1">
  <advance width="1233"/>
  <unicode hex="0041"/>
  <note>
	A
  </note>
  <outline>
    <contour>
      <point x="639" y="1493" type="line"/>
      <point x="885" y="1493" type="line"/>
      <point x="1051" y="0" type="line"/>
      <point x="850" y="0" type="line"/>
      <point x="815" y="389" type="line"/>
      <point x="295" y="389" type="line"/>
      <point x="111" y="0" type="line"/>
      <point x="-106" y="0" type="line"/>
    </contour>
    <contour>
      <point x="801" y="551" type="line"/>
      <point x="735" y="1325" type="line"/>
      <point x="371" y="551" type="line"/>
    </contour>
  </outline>
</glyph>
<glyph name="B" format="1">
  <advance width="1233"/>
  <unicode hex="0042"/>
  <note>
	B
  </note>
  <outline>
    <contour>
      <point x="313" y="1493" type="line"/>
      <point x="756" y="1493" type="line" smooth="yes"/>
      <point x="892" y="1493"/>
      <point x="994" y="1467"/>
      <point x="1063" y="1414" type="curve" smooth="yes"/>
      <point x="1132" y="1361"/>
      <point x="1167" y="1285"/>
      <point x="1167" y="1178" type="curve" smooth="yes"/>
      <point x="1167" y="977"/>
      <point x="1035" y="824"/>
      <point x="827" y="799" type="curve"/>
      <point x="910" y="784"/>
      <point x="974" y="750"/>
      <point x="1019" y="697" type="curve" smooth="yes"/>
      <point x="1064" y="644"/>
      <point x="1085" y="578"/>
      <point x="1085" y="486" type="curve" smooth="yes"/>
      <point x="1085" y="341"/>
      <point x="1033" y="218"/>
      <point x="926" y="130" type="curve" smooth="yes"/>
      <point x="820" y="43"/>
      <point x="670" y="0"/>
      <point x="475" y="0" type="curve" smooth="yes"/>
      <point x="23" y="0" type="line"/>
    </contour>
    <contour>
      <point x="639" y="877" type="line" smooth="yes"/>
      <point x="842" y="877"/>
      <point x="963" y="980"/>
      <point x="963" y="1148" type="curve" smooth="yes"/>
      <point x="963" y="1275"/>
      <point x="894" y="1327"/>
      <point x="727" y="1327" type="curve" smooth="yes"/>
      <point x="483" y="1327" type="line"/>
      <point x="395" y="877" type="line"/>
    </contour>
    <contour>
      <point x="506" y="166" type="line" smooth="yes"/>
      <point x="629" y="166"/>
      <point x="723" y="195"/>
      <point x="788" y="253" type="curve" smooth="yes"/>
      <point x="853" y="312"/>
      <point x="885" y="399"/>
      <point x="885" y="496" type="curve" smooth="yes"/>
      <point x="885" y="580"/>
      <point x="862" y="627"/>
      <point x="817" y="662" type="curve" smooth="yes"/>
      <point x="772" y="696"/>
      <point x="701" y="713"/>
      <point x="606" y="713" type="curve" smooth="yes"/>
      <point x="365" y="713" type="line"/>
      <point x="258" y="166" type="line"/>
    </contour>
  </outline>
</glyph>
<glyph name="L" format="1">
  <advance width="1233"/>
  <unicode hex="004C"/>
  <note>
	L
  </note>
  <outline>
    <contour>
      <point x="369" y="1493" type="line"/>
      <point x="571" y="1493" type="line"/>
      <point x="313" y="170" type="line"/>
      <point x="1034" y="170" type="line"/>
      <point x="1001" y="0" type="line"/>
      <point x="78" y="0" type="line"/>
    </contour>
  </outline>
</glyph>
<glyph name="Q" format="1">
  <advance width="1233"/>
  <unicode hex="0051"/>
  <note>
	Q
  </note>
  <outline>
    <contour>
      <point x="504" y="-27" type="line"/>
      <point x="494" y="-27" type="line" smooth="yes"/>
      <point x="346" y="-27"/>
      <point x="248" y="13"/>
      <point x="181" y="93" type="curve" smooth="yes"/>
      <point x="114" y="173"/>
      <point x="82" y="293"/>
      <point x="82" y="472" type="curve" smooth="yes"/>
      <point x="82" y="560"/>
      <point x="89" y="628"/>
      <point x="104" y="712" type="curve" smooth="yes"/>
      <point x="111" y="753"/>
      <point x="119" y="792"/>
      <point x="129" y="834" type="curve" smooth="yes"/>
      <point x="139" y="876"/>
      <point x="151" y="920"/>
      <point x="168" y="975" type="curve" smooth="yes"/>
      <point x="189" y="1042"/>
      <point x="208" y="1090"/>
      <point x="231" y="1141" type="curve" smooth="yes"/>
      <point x="240" y="1161"/>
      <point x="252" y="1184"/>
      <point x="265" y="1208" type="curve" smooth="yes"/>
      <point x="277" y="1232"/>
      <point x="291" y="1255"/>
      <point x="303" y="1272" type="curve" smooth="yes"/>
      <point x="354" y="1348"/>
      <point x="422" y="1417"/>
      <point x="501" y="1460" type="curve" smooth="yes"/>
      <point x="576" y="1501"/>
      <point x="657" y="1520"/>
      <point x="753" y="1520" type="curve" smooth="yes"/>
      <point x="889" y="1520"/>
      <point x="987" y="1481"/>
      <point x="1054" y="1397" type="curve" smooth="yes"/>
      <point x="1118" y="1317"/>
      <point x="1151" y="1196"/>
      <point x="1151" y="1029" type="curve" smooth="yes"/>
      <point x="1151" y="965"/>
      <point x="1146" y="902"/>
      <point x="1137" y="839" type="curve" smooth="yes"/>
      <point x="1128" y="776"/>
      <point x="1113" y="704"/>
      <point x="1094" y="629" type="curve" smooth="yes"/>
      <point x="1075" y="558"/>
      <point x="1052" y="482"/>
      <point x="1032" y="427" type="curve" smooth="yes"/>
      <point x="1011" y="370"/>
      <point x="986" y="315"/>
      <point x="963" y="274" type="curve" smooth="yes"/>
      <point x="934" y="222"/>
      <point x="894" y="163"/>
      <point x="839" y="111" type="curve" smooth="yes"/>
      <point x="798" y="71"/>
      <point x="747" y="33"/>
      <point x="690" y="10" type="curve"/>
      <point x="926" y="-270" type="line"/>
      <point x="690" y="-270" type="line"/>
    </contour>
    <contour>
      <point x="555" y="135"/>
      <point x="611" y="151"/>
      <point x="660" y="186" type="curve" smooth="yes"/>
      <point x="713" y="225"/>
      <point x="750" y="278"/>
      <point x="778" y="331" type="curve" smooth="yes"/>
      <point x="803" y="379"/>
      <point x="827" y="438"/>
      <point x="847" y="499" type="curve" smooth="yes"/>
      <point x="867" y="560"/>
      <point x="885" y="624"/>
      <point x="898" y="684" type="curve" smooth="yes"/>
      <point x="929" y="821"/>
      <point x="944" y="959"/>
      <point x="944" y="1067" type="curve" smooth="yes"/>
      <point x="944" y="1182"/>
      <point x="927" y="1245"/>
      <point x="892" y="1289" type="curve" smooth="yes"/>
      <point x="857" y="1332"/>
      <point x="805" y="1356"/>
      <point x="734" y="1356" type="curve" smooth="yes"/>
      <point x="675" y="1356"/>
      <point x="620" y="1340"/>
      <point x="572" y="1305" type="curve" smooth="yes"/>
      <point x="525" y="1270"/>
      <point x="486" y="1220"/>
      <point x="455" y="1160" type="curve" smooth="yes"/>
      <point x="408" y="1072"/>
      <point x="364" y="945"/>
      <point x="333" y="808" type="curve" smooth="yes"/>
      <point x="302" y="675"/>
      <point x="287" y="541"/>
      <point x="287" y="429" type="curve" smooth="yes"/>
      <point x="287" y="370"/>
      <point x="292" y="325"/>
      <point x="301" y="289" type="curve" smooth="yes"/>
      <point x="309" y="253"/>
      <point x="323" y="226"/>
      <point x="340" y="203" type="curve"/>
      <point x="379" y="155"/>
      <point x="434" y="135"/>
      <point x="498" y="135" type="curve" smooth="yes"/>
    </contour>
  </outline>
</glyph>
<glyph name="T" format="1">
  <advance width="1233"/>
  <unicode hex="0054"/>
  <note>
	T
  </note>
  <outline>
    <contour>
      <point x="629" y="1323" type="line"/>
      <point x="160" y="1323" type="line"/>
      <point x="193" y="1493" type="line"/>
      <point x="1333" y="1493" type="line"/>
      <point x="1300" y="1323" type="line"/>
      <point x="831" y="1323" type="line"/>
      <point x="575" y="0" type="line"/>
      <point x="371" y="0" type="line"/>
    </contour>
  </outline>
</glyph>
<glyph name="V" format="1">
  <advance width="1233"/>
  <unicode hex="0056"/>
  <note>
	V
  </note>
  <outline>
    <contour>
      <point x="199" y="1493" type="line"/>
      <point x="397" y="1493" type="line"/>
      <point x="510" y="190" type="line"/>
      <point x="1108" y="1493" type="line"/>
      <point x="1323" y="1493" type="line"/>
      <point x="604" y="0" type="line"/>
      <point x="346" y="0" type="line"/>
    </contour>
  </outline>
</glyph>
<glyph name="asciicircum" format="1">
  <advance width="1233"/>
  <unicode hex="005E"/>
  <note>
	asciicircum
  </note>
  <outline>
    <contour>
      <point x="528" y="1493" type="line"/>
      <point x="705" y="1493" type="line"/>
      <point x="1161" y="936" type="line"/>
      <point x="983" y="936" type="line"/>
      <point x="616" y="1331" type="line"/>
      <point x="250" y="936" type="line"/>
      <point x="72" y="936" type="line"/>
    </contour>
  </outline>
</glyph>
<glyph name="l" format="1">
  <advance width="1233"/>
  <unicode hex="006C"/>
  <note>
	l
  </note>
  <outline>
    <contour>
      <point x="623" y="-8"/>
      <point x="537" y="13"/>
      <point x="482" y="56" type="curve" smooth="yes"/>
      <point x="427" y="97"/>
      <point x="397" y="160"/>
      <point x="397" y="248" type="curve" smooth="yes"/>
      <point x="397" y="271"/>
      <point x="399" y="293"/>
      <point x="402" y="318" type="curve" smooth="yes"/>
      <point x="405" y="343"/>
      <point x="409" y="369"/>
      <point x="416" y="404" type="curve" smooth="yes"/>
      <point x="627" y="1412" type="line"/>
      <point x="311" y="1412" type="line"/>
      <point x="340" y="1556" type="line"/>
      <point x="840" y="1556" type="line"/>
      <point x="600" y="400" type="line" smooth="yes"/>
      <point x="595" y="376"/>
      <point x="593" y="362"/>
      <point x="593" y="354" type="curve"/>
      <point x="592" y="349"/>
      <point x="592" y="346"/>
      <point x="592" y="345" type="curve" smooth="yes"/>
      <point x="592" y="343"/>
      <point x="592" y="341"/>
      <point x="592" y="340" type="curve" smooth="yes"/>
      <point x="592" y="337"/>
      <point x="591" y="333"/>
      <point x="589" y="328" type="curve" smooth="yes"/>
      <point x="587" y="323"/>
      <point x="586" y="312"/>
      <point x="586" y="295" type="curve" smooth="yes"/>
      <point x="586" y="194"/>
      <point x="645" y="148"/>
      <point x="766" y="148" type="curve" smooth="yes"/>
      <point x="977" y="148" type="line"/>
      <point x="946" y="-8" type="line"/>
      <point x="739" y="-8" type="line" smooth="yes"/>
    </contour>
  </outline>
</glyph>
<glyph name="m" format="1">
  <advance width="1233"/>
  <unicode hex="006D"/>
  <note>
	m
  </note>
  <outline>
    <contour>
      <point x="203" y="1120" type="line"/>
      <point x="351" y="1120" type="line"/>
      <point x="352" y="1024" type="line"/>
      <point x="409" y="1104"/>
      <point x="485" y="1147"/>
      <point x="572" y="1147" type="curve" smooth="yes"/>
      <point x="671" y="1147"/>
      <point x="733" y="1095"/>
      <point x="748" y="1006" type="curve"/>
      <point x="775" y="1053"/>
      <point x="811" y="1088"/>
      <point x="850" y="1111" type="curve" smooth="yes"/>
      <point x="891" y="1135"/>
      <point x="940" y="1147"/>
      <point x="987" y="1147" type="curve" smooth="yes"/>
      <point x="1043" y="1147"/>
      <point x="1092" y="1130"/>
      <point x="1127" y="1094" type="curve" smooth="yes"/>
      <point x="1167" y="1051"/>
      <point x="1178" y="994"/>
      <point x="1178" y="943" type="curve" smooth="yes"/>
      <point x="1178" y="916"/>
      <point x="1176" y="869"/>
      <point x="1169" y="824" type="curve" smooth="yes"/>
      <point x="1166" y="800"/>
      <point x="1162" y="777"/>
      <point x="1158" y="750" type="curve" smooth="yes"/>
      <point x="1153" y="722"/>
      <point x="1147" y="690"/>
      <point x="1139" y="649" type="curve" smooth="yes"/>
      <point x="1012" y="0" type="line"/>
      <point x="844" y="0" type="line"/>
      <point x="969" y="641" type="line" smooth="yes"/>
      <point x="973" y="661"/>
      <point x="980" y="695"/>
      <point x="985" y="725" type="curve" smooth="yes"/>
      <point x="988" y="740"/>
      <point x="990" y="753"/>
      <point x="993" y="766" type="curve"/>
      <point x="995" y="779"/>
      <point x="996" y="787"/>
      <point x="997" y="792" type="curve" smooth="yes"/>
      <point x="1004" y="827"/>
      <point x="1006" y="861"/>
      <point x="1006" y="881" type="curve" smooth="yes"/>
      <point x="1006" y="913"/>
      <point x="998" y="946"/>
      <point x="983" y="965" type="curve" smooth="yes"/>
      <point x="968" y="984"/>
      <point x="944" y="993"/>
      <point x="909" y="993" type="curve" smooth="yes"/>
      <point x="854" y="993"/>
      <point x="820" y="972"/>
      <point x="793" y="929" type="curve" smooth="yes"/>
      <point x="761" y="878"/>
      <point x="738" y="794"/>
      <point x="707" y="641" type="curve" smooth="yes"/>
      <point x="582" y="0" type="line"/>
      <point x="414" y="0" type="line"/>
      <point x="539" y="641" type="line" smooth="yes"/>
      <point x="541" y="650"/>
      <point x="543" y="661"/>
      <point x="546" y="674" type="curve"/>
      <point x="550" y="701"/>
      <point x="556" y="730"/>
      <point x="561" y="758" type="curve" smooth="yes"/>
      <point x="566" y="786"/>
      <point x="569" y="807"/>
      <point x="573" y="839" type="curve"/>
      <point x="574" y="855"/>
      <point x="575" y="869"/>
      <point x="575" y="881" type="curve" smooth="yes"/>
      <point x="575" y="912"/>
      <point x="569" y="940"/>
      <point x="552" y="963" type="curve" smooth="yes"/>
      <point x="537" y="983"/>
      <point x="512" y="993"/>
      <point x="478" y="993" type="curve" smooth="yes"/>
      <point x="431" y="993"/>
      <point x="394" y="977"/>
      <point x="366" y="934" type="curve" smooth="yes"/>
      <point x="351" y="911"/>
      <point x="338" y="879"/>
      <point x="324" y="832" type="curve" smooth="yes"/>
      <point x="310" y="785"/>
      <point x="295" y="722"/>
      <point x="279" y="641" type="curve" smooth="yes"/>
      <point x="154" y="0" type="line"/>
      <point x="-14" y="0" type="line"/>
    </contour>
  </outline>
</glyph>
<glyph name="y" format="1">
  <advance width="1233"/>
  <unicode hex="0079"/>
  <note>
	y
  </note>
  <outline>
    <contour>
      <point x="20" y="-272" type="line"/>
      <point x="128" y="-272" type="line" smooth="yes"/>
      <point x="239" y="-272"/>
      <point x="311" y="-211"/>
      <point x="386" y="-66" type="curve" smooth="yes"/>
      <point x="429" y="18" type="line"/>
      <point x="212" y="1120" type="line"/>
      <point x="395" y="1120" type="line"/>
      <point x="567" y="258" type="line"/>
      <point x="1050" y="1120" type="line"/>
      <point x="1255" y="1120" type="line"/>
      <point x="816" y="360" type="line" smooth="yes"/>
      <point x="794" y="321"/>
      <point x="777" y="291"/>
      <point x="764" y="270" type="curve" smooth="yes"/>
      <point x="751" y="249"/>
      <point x="742" y="232"/>
      <point x="735" y="220" type="curve" smooth="yes"/>
      <point x="728" y="207"/>
      <point x="722" y="198"/>
      <point x="719" y="191" type="curve"/>
      <point x="711" y="178"/>
      <point x="703" y="163"/>
      <point x="687" y="135" type="curve" smooth="yes"/>
      <point x="678" y="120"/>
      <point x="666" y="99"/>
      <point x="651" y="72" type="curve" smooth="yes"/>
      <point x="583" y="-48"/>
      <point x="541" y="-121"/>
      <point x="511" y="-171" type="curve" smooth="yes"/>
      <point x="481" y="-221"/>
      <point x="462" y="-248"/>
      <point x="442" y="-275" type="curve" smooth="yes"/>
      <point x="406" y="-322"/>
      <point x="366" y="-362"/>
      <point x="310" y="-389" type="curve" smooth="yes"/>
      <point x="261" y="-414"/>
      <point x="204" y="-426"/>
      <point x="139" y="-426" type="curve" smooth="yes"/>
      <point x="-9" y="-426" type="line"/>
    </contour>
  </outline>
</glyph>
<glyph name="braceright" format="1">
  <advance width="1233"/>
  <unicode hex="007D"/>
  <note>
	braceright
  </note>
  <outline>
    <contour>
      <point x="64" y="-190" type="line"/>
      <point x="142" y="-190" type="line" smooth="yes"/>
      <point x="233" y="-190"/>
      <point x="294" y="-177"/>
      <point x="325" y="-150" type="curve" smooth="yes"/>
      <point x="340" y="-137"/>
      <point x="353" y="-116"/>
      <point x="366" y="-87" type="curve" smooth="yes"/>
      <point x="379" y="-58"/>
      <point x="391" y="-16"/>
      <point x="402" y="39" type="curve" smooth="yes"/>
      <point x="453" y="291" type="line" smooth="yes"/>
      <point x="473" y="391"/>
      <point x="501" y="469"/>
      <point x="546" y="524" type="curve" smooth="yes"/>
      <point x="587" y="573"/>
      <point x="644" y="603"/>
      <point x="718" y="616" type="curve"/>
      <point x="669" y="629"/>
      <point x="631" y="653"/>
      <point x="604" y="686" type="curve" smooth="yes"/>
      <point x="577" y="721"/>
      <point x="564" y="757"/>
      <point x="564" y="813" type="curve" smooth="yes"/>
      <point x="564" y="829"/>
      <point x="565" y="846"/>
      <point x="568" y="870" type="curve" smooth="yes"/>
      <point x="571" y="898"/>
      <point x="571" y="909"/>
      <point x="578" y="940" type="curve" smooth="yes"/>
      <point x="625" y="1183" type="line"/>
      <point x="625" y="1184"/>
      <point x="626" y="1188"/>
      <point x="627" y="1194" type="curve" smooth="yes"/>
      <point x="628" y="1200"/>
      <point x="629" y="1207"/>
      <point x="630" y="1214" type="curve" smooth="yes"/>
      <point x="631" y="1221"/>
      <point x="632" y="1227"/>
      <point x="633" y="1233" type="curve" smooth="yes"/>
      <point x="634" y="1238"/>
      <point x="634" y="1242"/>
      <point x="634" y="1243" type="curve"/>
      <point x="635" y="1259"/>
      <point x="636" y="1278"/>
      <point x="636" y="1290" type="curve" smooth="yes"/>
      <point x="636" y="1378"/>
      <point x="584" y="1413"/>
      <point x="453" y="1413" type="curve" smooth="yes"/>
      <point x="376" y="1413" type="line"/>
      <point x="402" y="1556" type="line"/>
      <point x="476" y="1556" type="line" smooth="yes"/>
      <point x="609" y="1556"/>
      <point x="693" y="1537"/>
      <point x="745" y="1502" type="curve" smooth="yes"/>
      <point x="797" y="1467"/>
      <point x="826" y="1417"/>
      <point x="826" y="1320" type="curve" smooth="yes"/>
      <point x="826" y="1301"/>
      <point x="825" y="1288"/>
      <point x="822" y="1259" type="curve" smooth="yes"/>
      <point x="819" y="1234"/>
      <point x="819" y="1223"/>
      <point x="812" y="1188" type="curve" smooth="yes"/>
      <point x="767" y="952" type="line"/>
      <point x="765" y="940" type="line"/>
      <point x="758" y="907"/>
      <point x="755" y="876"/>
      <point x="755" y="849" type="curve" smooth="yes"/>
      <point x="755" y="730"/>
      <point x="816" y="686"/>
      <point x="965" y="686" type="curve" smooth="yes"/>
      <point x="1057" y="686" type="line"/>
      <point x="1028" y="539" type="line"/>
      <point x="937" y="539" type="line" smooth="yes"/>
      <point x="842" y="539"/>
      <point x="773" y="521"/>
      <point x="730" y="484" type="curve" smooth="yes"/>
      <point x="687" y="448"/>
      <point x="654" y="383"/>
      <point x="634" y="279" type="curve" smooth="yes"/>
      <point x="587" y="35" type="line" smooth="yes"/>
      <point x="571" y="-49"/>
      <point x="549" y="-113"/>
      <point x="525" y="-160" type="curve" smooth="yes"/>
      <point x="501" y="-207"/>
      <point x="471" y="-244"/>
      <point x="435" y="-270" type="curve" smooth="yes"/>
      <point x="402" y="-294"/>
      <point x="366" y="-308"/>
      <point x="319" y="-319" type="curve" smooth="yes"/>
      <point x="273" y="-329"/>
      <point x="206" y="-334"/>
      <point x="118" y="-334" type="curve" smooth="yes"/>
      <point x="36" y="-334" type="line"/>
    </contour>
  </outline>
</glyph>
<glyph name="asciitilde" format="1">
  <advance width="1233"/>
  <unicode hex="007E"/>
  <note>
	asciitilde
  </note>
  <outline>
    <contour>
      <point x="1151" y="782" type="line"/>
      <point x="1146" y="633"/>
      <point x="1132" y="528"/>
      <point x="1083" y="441" type="curve"/>
      <point x="1035" y="344"/>
      <point x="956" y="296"/>
      <point x="846" y="296" type="curve" smooth="yes"/>
      <point x="793" y="296"/>
      <point x="748" y="307"/>
      <point x="709" y="330" type="curve" smooth="yes"/>
      <point x="674" y="352"/>
      <point x="632" y="397"/>
      <point x="583" y="464" type="curve" smooth="yes"/>
      <point x="531" y="536"/>
      <point x="493" y="582"/>
      <point x="468" y="601" type="curve"/>
      <point x="441" y="620"/>
      <point x="416" y="630"/>
      <point x="391" y="630" type="curve" smooth="yes"/>
      <point x="340" y="630"/>
      <point x="303" y="606"/>
      <point x="282" y="558" type="curve" smooth="yes"/>
      <point x="259" y="502"/>
      <point x="245" y="417"/>
      <point x="240" y="303" type="curve"/>
      <point x="84" y="303" type="line"/>
      <point x="87" y="442"/>
      <point x="110" y="555"/>
      <point x="152" y="643" type="curve"/>
      <point x="207" y="738"/>
      <point x="285" y="786"/>
      <point x="386" y="786" type="curve" smooth="yes"/>
      <point x="483" y="786"/>
      <point x="537" y="744"/>
      <point x="583" y="700" type="curve" smooth="yes"/>
      <point x="606" y="677"/>
      <point x="628" y="651"/>
      <point x="649" y="621" type="curve" smooth="yes"/>
      <point x="685" y="572"/>
      <point x="720" y="530"/>
      <point x="754" y="496" type="curve" smooth="yes"/>
      <point x="782" y="467"/>
      <point x="809" y="452"/>
      <point x="842" y="452" type="curve" smooth="yes"/>
      <point x="895" y="452"/>
      <point x="934" y="479"/>
      <point x="958" y="534" type="curve" smooth="yes"/>
      <point x="981" y="588"/>
      <point x="994" y="671"/>
      <point x="995" y="782" type="curve"/>
    </contour>
  </outline>
</glyph>
<glyph name="guillemotleft" format="1">
  <advance width="1233"/>
  <unicode hex="00AB"/>
  <note>
	guillemotleft
  </note>
  <outline>
    <contour>
      <point x="74" y="559" type="line"/>
      <point x="90" y="641" type="line"/>
      <point x="639" y="1059" type="line"/>
      <point x="596" y="848" type="line"/>
      <point x="246" y="584" type="line"/>
      <point x="496" y="317" type="line"/>
      <point x="461" y="141" type="line"/>
    </contour>
    <contour>
      <point x="541" y="559" type="line"/>
      <point x="557" y="641" type="line"/>
      <point x="1106" y="1059" type="line"/>
      <point x="1063" y="848" type="line"/>
      <point x="713" y="584" type="line"/>
      <point x="963" y="317" type="line"/>
      <point x="928" y="141" type="line"/>
    </contour>
  </outline>
</glyph>
<glyph name="periodcentered" format="1">
  <advance width="1233"/>
  <unicode hex="00B7"/>
  <note>
	periodcentered
  </note>
  <outline>
    <contour>
      <point x="525" y="576"/>
      <point x="454" y="645"/>
      <point x="454" y="745" type="curve" smooth="yes"/>
      <point x="454" y="845"/>
      <point x="525" y="914"/>
      <point x="616" y="914" type="curve" smooth="yes"/>
      <point x="707" y="914"/>
      <point x="778" y="845"/>
      <point x="778" y="745" type="curve" smooth="yes"/>
      <point x="778" y="645"/>
      <point x="707" y="576"/>
      <point x="616" y="576" type="curve" smooth="yes"/>
    </contour>
  </outline>
</glyph>
<glyph name="Ecircumflex" format="1">
  <advance width="1233"/>
  <unicode hex="00CA"/>
  <note>
	Ecircumflex
  </note>
  <outline>
    <contour>
      <point x="749" y="1861" type="line"/>
      <point x="962" y="1861" type="line"/>
      <point x="1120" y="1595" type="line"/>
      <point x="987" y="1595" type="line"/>
      <point x="848" y="1773" type="line"/>
      <point x="639" y="1595" type="line"/>
      <point x="487" y="1595" type="line"/>
    </contour>
    <contour>
      <point x="344" y="1493" type="line"/>
      <point x="1229" y="1493" type="line"/>
      <point x="1196" y="1323" type="line"/>
      <point x="512" y="1323" type="line"/>
      <point x="426" y="881" type="line"/>
      <point x="1079" y="881" type="line"/>
      <point x="1047" y="711" type="line"/>
      <point x="393" y="711" type="line"/>
      <point x="289" y="170" type="line"/>
      <point x="991" y="170" type="line"/>
      <point x="958" y="0" type="line"/>
      <point x="53" y="0" type="line"/>
    </contour>
  </outline>
</glyph>
<glyph name="aacute" format="1">
  <advance width="1233"/>
  <unicode hex="00E1"/>
  <note>
	aacute
  </note>
  <outline>
    <contour>
      <point x="911" y="1673" type="line"/>
      <point x="1130" y="1673" type="line"/>
      <point x="735" y="1297" type="line"/>
      <point x="579" y="1297" type="line"/>
    </contour>
    <contour>
      <point x="308" y="-29"/>
      <point x="225" y="-2"/>
      <point x="164" y="54" type="curve" smooth="yes"/>
      <point x="100" y="111"/>
      <point x="72" y="188"/>
      <point x="72" y="280" type="curve" smooth="yes"/>
      <point x="72" y="403"/>
      <point x="125" y="513"/>
      <point x="226" y="590" type="curve" smooth="yes"/>
      <point x="327" y="667"/>
      <point x="470" y="707"/>
      <point x="645" y="707" type="curve" smooth="yes"/>
      <point x="891" y="707" type="line"/>
      <point x="903" y="768" type="line"/>
      <point x="906" y="787" type="line"/>
      <point x="907" y="790"/>
      <point x="907" y="794"/>
      <point x="907" y="797" type="curve" smooth="yes"/>
      <point x="907" y="800"/>
      <point x="907" y="803"/>
      <point x="907" y="804" type="curve" smooth="yes"/>
      <point x="907" y="880"/>
      <point x="880" y="919"/>
      <point x="844" y="946" type="curve" smooth="yes"/>
      <point x="805" y="974"/>
      <point x="748" y="991"/>
      <point x="665" y="991" type="curve" smooth="yes"/>
      <point x="608" y="991"/>
      <point x="546" y="983"/>
      <point x="479" y="966" type="curve" smooth="yes"/>
      <point x="411" y="949"/>
      <point x="343" y="924"/>
      <point x="268" y="889" type="curve"/>
      <point x="303" y="1069" type="line"/>
      <point x="375" y="1096"/>
      <point x="443" y="1115"/>
      <point x="508" y="1128" type="curve" smooth="yes"/>
      <point x="573" y="1141"/>
      <point x="636" y="1147"/>
      <point x="693" y="1147" type="curve" smooth="yes"/>
      <point x="816" y="1147"/>
      <point x="916" y="1121"/>
      <point x="985" y="1065" type="curve" smooth="yes"/>
      <point x="1050" y="1013"/>
      <point x="1087" y="935"/>
      <point x="1087" y="839" type="curve" smooth="yes"/>
      <point x="1087" y="795"/>
      <point x="1079" y="731"/>
      <point x="1073" y="695" type="curve" smooth="yes"/>
      <point x="1070" y="676"/>
      <point x="1066" y="658"/>
      <point x="1063" y="639" type="curve"/>
      <point x="938" y="0" type="line"/>
      <point x="774" y="0" type="line"/>
      <point x="786" y="166" type="line"/>
      <point x="738" y="103"/>
      <point x="681" y="55"/>
      <point x="616" y="22" type="curve" smooth="yes"/>
      <point x="549" y="-13"/>
      <point x="483" y="-29"/>
      <point x="407" y="-29" type="curve" smooth="yes"/>
    </contour>
    <contour>
      <point x="557" y="125"/>
      <point x="640" y="161"/>
      <point x="711" y="232" type="curve" smooth="yes"/>
      <point x="786" y="307"/>
      <point x="833" y="407"/>
      <point x="856" y="522" type="curve" smooth="yes"/>
      <point x="864" y="563" type="line"/>
      <point x="692" y="563" type="line" smooth="yes"/>
      <point x="612" y="563"/>
      <point x="554" y="561"/>
      <point x="515" y="556" type="curve" smooth="yes"/>
      <point x="476" y="551"/>
      <point x="441" y="541"/>
      <point x="414" y="530" type="curve" smooth="yes"/>
      <point x="379" y="515"/>
      <point x="338" y="493"/>
      <point x="305" y="442" type="curve" smooth="yes"/>
      <point x="278" y="401"/>
      <point x="264" y="356"/>
      <point x="264" y="307" type="curve" smooth="yes"/>
      <point x="264" y="243"/>
      <point x="288" y="201"/>
      <point x="316" y="174" type="curve" smooth="yes"/>
      <point x="348" y="143"/>
      <point x="394" y="125"/>
      <point x="461" y="125" type="curve" smooth="yes"/>
    </contour>
  </outline>
</glyph>
<glyph name="Amacron" format="1">
  <advance width="1233"/>
  <unicode hex="0100"/>
  <note>
	Amacron
  </note>
  <outline>
    <contour>
      <point x="531" y="1800" type="line"/>
      <point x="1129" y="1800" type="line"/>
      <point x="1100" y="1652" type="line"/>
      <point x="502" y="1652" type="line"/>
    </contour>
    <contour>
      <point x="639" y="1493" type="line"/>
      <point x="885" y="1493" type="line"/>
      <point x="1051" y="0" type="line"/>
      <point x="850" y="0" type="line"/>
      <point x="815" y="389" type="line"/>
      <point x="295" y="389" type="line"/>
      <point x="111" y="0" type="line"/>
      <point x="-106" y="0" type="line"/>
    </contour>
    <contour>
      <point x="801" y="551" type="line"/>
      <point x="735" y="1325" type="line"/>
      <point x="371" y="551" type="line"/>
    </contour>
  </outline>
</glyph>
<glyph name="edotaccent" format="1">
  <advance width="1233"/>
  <unicode hex="0117"/>
  <note>
	edotaccent
  </note>
  <outline>
    <contour>
      <point x="678" y="1349" type="line" smooth="yes"/>
      <point x="660" y="1349"/>
      <point x="651" y="1357"/>
      <point x="651" y="1373" type="curve" smooth="yes"/>
      <point x="651" y="1377"/>
      <point x="651" y="1380"/>
      <point x="652" y="1382" type="curve"/>
      <point x="681" y="1526" type="line" smooth="yes"/>
      <point x="684" y="1544"/>
      <point x="694" y="1553"/>
      <point x="713" y="1553" type="curve" smooth="yes"/>
      <point x="858" y="1553" type="line" smooth="yes"/>
      <point x="876" y="1553"/>
      <point x="885" y="1545"/>
      <point x="885" y="1529" type="curve" smooth="yes"/>
      <point x="885" y="1525"/>
      <point x="885" y="1522"/>
      <point x="884" y="1520" type="curve"/>
      <point x="855" y="1376" type="line" smooth="yes"/>
      <point x="851" y="1358"/>
      <point x="840" y="1349"/>
      <point x="823" y="1349" type="curve" smooth="yes"/>
    </contour>
    <contour>
      <point x="253" y="-29"/>
      <point x="98" y="122"/>
      <point x="98" y="407" type="curve" smooth="yes"/>
      <point x="98" y="511"/>
      <point x="119" y="617"/>
      <point x="158" y="714" type="curve" smooth="yes"/>
      <point x="197" y="811"/>
      <point x="253" y="901"/>
      <point x="324" y="973" type="curve" smooth="yes"/>
      <point x="436" y="1089"/>
      <point x="570" y="1149"/>
      <point x="719" y="1149" type="curve" smooth="yes"/>
      <point x="842" y="1149"/>
      <point x="943" y="1107"/>
      <point x="1015" y="1035" type="curve" smooth="yes"/>
      <point x="1086" y="962"/>
      <point x="1126" y="856"/>
      <point x="1126" y="731" type="curve" smooth="yes"/>
      <point x="1126" y="683"/>
      <point x="1120" y="620"/>
      <point x="1104" y="516" type="curve"/>
      <point x="297" y="516" type="line"/>
      <point x="289" y="473"/>
      <point x="285" y="441"/>
      <point x="285" y="406" type="curve" smooth="yes"/>
      <point x="285" y="229"/>
      <point x="388" y="127"/>
      <point x="584" y="127" type="curve" smooth="yes"/>
      <point x="704" y="127"/>
      <point x="844" y="164"/>
      <point x="997" y="240" type="curve"/>
      <point x="961" y="57" type="line"/>
      <point x="820" y="0"/>
      <point x="689" y="-29"/>
      <point x="556" y="-29" type="curve" smooth="yes"/>
    </contour>
    <contour>
      <point x="938" y="659" type="line"/>
      <point x="946" y="695"/>
      <point x="948" y="716"/>
      <point x="948" y="739" type="curve" smooth="yes"/>
      <point x="948" y="818"/>
      <point x="925" y="881"/>
      <point x="883" y="925" type="curve" smooth="yes"/>
      <point x="841" y="968"/>
      <point x="780" y="991"/>
      <point x="707" y="991" type="curve" smooth="yes"/>
      <point x="620" y="991"/>
      <point x="541" y="959"/>
      <point x="477" y="901" type="curve" smooth="yes"/>
      <point x="412" y="843"/>
      <point x="361" y="759"/>
      <point x="332" y="659" type="curve"/>
    </contour>
  </outline>
</glyph>
<glyph name="hbar" format="1">
  <advance width="1233"/>
  <unicode hex="0127"/>
  <note>
	hbar
  </note>
  <outline>
    <contour>
      <point x="291" y="1270" type="line"/>
      <point x="166" y="1270" type="line"/>
      <point x="198" y="1434" type="line"/>
      <point x="323" y="1434" type="line"/>
      <point x="346" y="1556" type="line"/>
      <point x="530" y="1556" type="line"/>
      <point x="507" y="1434" type="line"/>
      <point x="860" y="1434" type="line"/>
      <point x="828" y="1270" type="line"/>
      <point x="475" y="1270" type="line"/>
      <point x="413" y="952" type="line"/>
      <point x="502" y="1081"/>
      <point x="628" y="1147"/>
      <point x="784" y="1147" type="curve" smooth="yes"/>
      <point x="897" y="1147"/>
      <point x="964" y="1110"/>
      <point x="1004" y="1057" type="curve" smooth="yes"/>
      <point x="1043" y="1004"/>
      <point x="1053" y="931"/>
      <point x="1053" y="862" type="curve" smooth="yes"/>
      <point x="1053" y="805"/>
      <point x="1046" y="755"/>
      <point x="1034" y="694" type="curve" smooth="yes"/>
      <point x="900" y="0" type="line"/>
      <point x="715" y="0" type="line"/>
      <point x="850" y="695" type="line" smooth="yes"/>
      <point x="858" y="738"/>
      <point x="862" y="776"/>
      <point x="862" y="809" type="curve" smooth="yes"/>
      <point x="862" y="853"/>
      <point x="855" y="898"/>
      <point x="831" y="931" type="curve" smooth="yes"/>
      <point x="806" y="964"/>
      <point x="762" y="987"/>
      <point x="689" y="987" type="curve" smooth="yes"/>
      <point x="605" y="987"/>
      <point x="533" y="958"/>
      <point x="475" y="899" type="curve" smooth="yes"/>
      <point x="417" y="840"/>
      <point x="374" y="752"/>
      <point x="351" y="633" type="curve" smooth="yes"/>
      <point x="228" y="0" type="line"/>
      <point x="44" y="0" type="line"/>
    </contour>
  </outline>
</glyph>
<glyph name="itilde" format="1">
  <advance width="1233"/>
  <unicode hex="0129"/>
  <note>
	itilde
  </note>
  <outline>
    <contour>
      <point x="772" y="1270"/>
      <point x="727" y="1283"/>
      <point x="672" y="1339" type="curve" smooth="yes"/>
      <point x="625" y="1388" type="line" smooth="yes"/>
      <point x="601" y="1413"/>
      <point x="576" y="1425"/>
      <point x="551" y="1425" type="curve" smooth="yes"/>
      <point x="495" y="1425"/>
      <point x="468" y="1369"/>
      <point x="457" y="1272" type="curve"/>
      <point x="332" y="1272" type="line"/>
      <point x="355" y="1451"/>
      <point x="428" y="1554"/>
      <point x="555" y="1554" type="curve" smooth="yes"/>
      <point x="608" y="1554"/>
      <point x="650" y="1536"/>
      <point x="701" y="1485" type="curve" smooth="yes"/>
      <point x="748" y="1438" type="line" smooth="yes"/>
      <point x="775" y="1411"/>
      <point x="791" y="1399"/>
      <point x="818" y="1399" type="curve" smooth="yes"/>
      <point x="872" y="1399"/>
      <point x="905" y="1451"/>
      <point x="916" y="1554" type="curve"/>
      <point x="1041" y="1554" type="line"/>
      <point x="1017" y="1367"/>
      <point x="944" y="1270"/>
      <point x="817" y="1270" type="curve" smooth="yes"/>
    </contour>
    <contour>
      <point x="749" y="-4" type="line" smooth="yes"/>
      <point x="517" y="-4"/>
      <point x="407" y="81"/>
      <point x="407" y="252" type="curve" smooth="yes"/>
      <point x="407" y="275"/>
      <point x="409" y="295"/>
      <point x="412" y="322" type="curve" smooth="yes"/>
      <point x="415" y="349"/>
      <point x="419" y="377"/>
      <point x="426" y="408" type="curve" smooth="yes"/>
      <point x="559" y="976" type="line"/>
      <point x="313" y="976" type="line"/>
      <point x="342" y="1120" type="line"/>
      <point x="772" y="1120" type="line"/>
      <point x="610" y="404" type="line" smooth="yes"/>
      <point x="605" y="383"/>
      <point x="601" y="354"/>
      <point x="600" y="342" type="curve" smooth="yes"/>
      <point x="599" y="331"/>
      <point x="598" y="322"/>
      <point x="597" y="317" type="curve" smooth="yes"/>
      <point x="596" y="311"/>
      <point x="596" y="305"/>
      <point x="596" y="298" type="curve" smooth="yes"/>
      <point x="596" y="198"/>
      <point x="655" y="152"/>
      <point x="776" y="152" type="curve" smooth="yes"/>
      <point x="987" y="152" type="line"/>
      <point x="956" y="-4" type="line"/>
    </contour>
  </outline>
</glyph>
<glyph name="imacron" format="1">
  <advance width="1233"/>
  <unicode hex="012B"/>
  <note>
	imacron
  </note>
  <outline>
    <contour>
      <point x="409" y="1468" type="line"/>
      <point x="1007" y="1468" type="line"/>
      <point x="978" y="1320" type="line"/>
      <point x="380" y="1320" type="line"/>
    </contour>
    <contour>
      <point x="749" y="-4" type="line" smooth="yes"/>
      <point x="517" y="-4"/>
      <point x="407" y="81"/>
      <point x="407" y="252" type="curve" smooth="yes"/>
      <point x="407" y="275"/>
      <point x="409" y="295"/>
      <point x="412" y="322" type="curve" smooth="yes"/>
      <point x="415" y="349"/>
      <point x="419" y="379"/>
      <point x="426" y="408" type="curve" smooth="yes"/>
      <point x="559" y="976" type="line"/>
      <point x="313" y="976" type="line"/>
      <point x="342" y="1120" type="line"/>
      <point x="772" y="1120" type="line"/>
      <point x="610" y="404" type="line" smooth="yes"/>
      <point x="605" y="383"/>
      <point x="601" y="353"/>
      <point x="600" y="342" type="curve"/>
      <point x="597" y="321"/>
      <point x="596" y="310"/>
      <point x="596" y="297" type="curve" smooth="yes"/>
      <point x="596" y="198"/>
      <point x="655" y="152"/>
      <point x="776" y="152" type="curve" smooth="yes"/>
      <point x="987" y="152" type="line"/>
      <point x="956" y="-4" type="line"/>
    </contour>
  </outline>
</glyph>
<glyph name="Lacute" format="1">
  <advance width="1233"/>
  <unicode hex="0139"/>
  <note>
	Lacute
  </note>
  <outline>
    <contour>
      <point x="839" y="1860" type="line"/>
      <point x="1047" y="1860" type="line"/>
      <point x="740" y="1596" type="line"/>
      <point x="580" y="1596" type="line"/>
    </contour>
    <contour>
      <point x="369" y="1493" type="line"/>
      <point x="571" y="1493" type="line"/>
      <point x="313" y="170" type="line"/>
      <point x="1034" y="170" type="line"/>
      <point x="1001" y="0" type="line"/>
      <point x="78" y="0" type="line"/>
    </contour>
  </outline>
</glyph>
<glyph name="Lcaron" format="1">
  <advance width="1233"/>
  <unicode hex="013D"/>
  <note>
	Lcaron
  </note>
  <outline>
    <contour>
      <point x="369" y="1493" type="line"/>
      <point x="571" y="1493" type="line"/>
      <point x="313" y="170" type="line"/>
      <point x="1034" y="170" type="line"/>
      <point x="1001" y="0" type="line"/>
      <point x="78" y="0" type="line"/>
    </contour>
    <contour>
      <point x="887" y="1492" type="line"/>
      <point x="1106" y="1492" type="line"/>
      <point x="898" y="1116" type="line"/>
      <point x="742" y="1116" type="line"/>
    </contour>
  </outline>
</glyph>
<glyph name="lslash" format="1">
  <advance width="1233"/>
  <unicode hex="0142"/>
  <note>
	lslash
  </note>
  <outline>
    <contour>
      <point x="614" y="-8"/>
      <point x="535" y="16"/>
      <point x="482" y="56" type="curve" smooth="yes"/>
      <point x="425" y="99"/>
      <point x="397" y="163"/>
      <point x="397" y="250" type="curve" smooth="yes"/>
      <point x="397" y="274"/>
      <point x="399" y="298"/>
      <point x="402" y="325" type="curve" smooth="yes"/>
      <point x="406" y="358"/>
      <point x="409" y="377"/>
      <point x="416" y="404" type="curve"/>
      <point x="475" y="690" type="line"/>
      <point x="162" y="471" type="line"/>
      <point x="88" y="570" type="line"/>
      <point x="512" y="862" type="line"/>
      <point x="627" y="1412" type="line"/>
      <point x="311" y="1412" type="line"/>
      <point x="340" y="1556" type="line"/>
      <point x="840" y="1556" type="line"/>
      <point x="725" y="1006" type="line"/>
      <point x="1040" y="1223" type="line"/>
      <point x="1114" y="1125" type="line"/>
      <point x="690" y="832" type="line"/>
      <point x="600" y="400" type="line" smooth="yes"/>
      <point x="598" y="390"/>
      <point x="596" y="379"/>
      <point x="595" y="367" type="curve"/>
      <point x="593" y="355"/>
      <point x="591" y="345"/>
      <point x="590" y="336" type="curve"/>
      <point x="587" y="316"/>
      <point x="586" y="304"/>
      <point x="586" y="291" type="curve" smooth="yes"/>
      <point x="586" y="240"/>
      <point x="600" y="208"/>
      <point x="631" y="184" type="curve" smooth="yes"/>
      <point x="660" y="161"/>
      <point x="701" y="148"/>
      <point x="766" y="148" type="curve" smooth="yes"/>
      <point x="977" y="148" type="line"/>
      <point x="946" y="-8" type="line"/>
      <point x="739" y="-8" type="line" smooth="yes"/>
    </contour>
  </outline>
</glyph>
<glyph name="eng" format="1">
  <advance width="1233"/>
  <unicode hex="014B"/>
  <note>
	eng
  </note>
  <outline>
    <contour>
      <point x="379" y="-270" type="line"/>
      <point x="564" y="-270" type="line" smooth="yes"/>
      <point x="688" y="-270"/>
      <point x="760" y="-187"/>
      <point x="792" y="-20" type="curve" smooth="yes"/>
      <point x="931" y="694" type="line" smooth="yes"/>
      <point x="939" y="737"/>
      <point x="943" y="775"/>
      <point x="943" y="810" type="curve" smooth="yes"/>
      <point x="943" y="853"/>
      <point x="937" y="897"/>
      <point x="913" y="931" type="curve" smooth="yes"/>
      <point x="889" y="965"/>
      <point x="846" y="987"/>
      <point x="771" y="987" type="curve" smooth="yes"/>
      <point x="595" y="987"/>
      <point x="476" y="862"/>
      <point x="432" y="633" type="curve" smooth="yes"/>
      <point x="309" y="0" type="line"/>
      <point x="125" y="0" type="line"/>
      <point x="343" y="1120" type="line"/>
      <point x="507" y="1120" type="line"/>
      <point x="494" y="952" type="line"/>
      <point x="586" y="1081"/>
      <point x="710" y="1147"/>
      <point x="865" y="1147" type="curve" smooth="yes"/>
      <point x="978" y="1147"/>
      <point x="1045" y="1111"/>
      <point x="1084" y="1058" type="curve" smooth="yes"/>
      <point x="1123" y="1005"/>
      <point x="1134" y="933"/>
      <point x="1134" y="864" type="curve" smooth="yes"/>
      <point x="1134" y="813"/>
      <point x="1128" y="757"/>
      <point x="1116" y="694" type="curve" smooth="yes"/>
      <point x="977" y="-20" type="line" smooth="yes"/>
      <point x="952" y="-151"/>
      <point x="901" y="-252"/>
      <point x="829" y="-320" type="curve" smooth="yes"/>
      <point x="757" y="-389"/>
      <point x="663" y="-426"/>
      <point x="554" y="-426" type="curve" smooth="yes"/>
      <point x="349" y="-426" type="line"/>
    </contour>
  </outline>
</glyph>
<glyph name="umacron" format="1">
  <advance width="1233"/>
  <unicode hex="016B"/>
  <note>
	umacron
  </note>
  <outline>
    <contour>
      <point x="469" y="1469" type="line"/>
      <point x="1067" y="1469" type="line"/>
      <point x="1038" y="1321" type="line"/>
      <point x="440" y="1321" type="line"/>
    </contour>
    <contour>
      <point x="321" y="-27"/>
      <point x="250" y="-2"/>
      <point x="201" y="46" type="curve" smooth="yes"/>
      <point x="152" y="94"/>
      <point x="125" y="164"/>
      <point x="125" y="253" type="curve" smooth="yes"/>
      <point x="125" y="296"/>
      <point x="131" y="362"/>
      <point x="143" y="426" type="curve" smooth="yes"/>
      <point x="276" y="1120" type="line"/>
      <point x="461" y="1120" type="line"/>
      <point x="326" y="426" type="line" smooth="yes"/>
      <point x="318" y="383"/>
      <point x="311" y="331"/>
      <point x="311" y="296" type="curve" smooth="yes"/>
      <point x="311" y="192"/>
      <point x="376" y="133"/>
      <point x="489" y="133" type="curve" smooth="yes"/>
      <point x="654" y="133"/>
      <point x="780" y="256"/>
      <point x="825" y="487" type="curve" smooth="yes"/>
      <point x="948" y="1120" type="line"/>
      <point x="1133" y="1120" type="line"/>
      <point x="915" y="0" type="line"/>
      <point x="751" y="0" type="line"/>
      <point x="764" y="168" type="line"/>
      <point x="668" y="38"/>
      <point x="550" y="-27"/>
      <point x="409" y="-27" type="curve" smooth="yes"/>
    </contour>
  </outline>
</glyph>
<glyph name="uring" format="1">
  <advance width="1233"/>
  <unicode hex="016F"/>
  <note>
	uring
  </note>
  <outline>
    <contour>
      <point x="662" y="1186"/>
      <point x="593" y="1217"/>
      <point x="544" y="1266" type="curve" smooth="yes"/>
      <point x="495" y="1315"/>
      <point x="464" y="1384"/>
      <point x="464" y="1461" type="curve" smooth="yes"/>
      <point x="464" y="1538"/>
      <point x="495" y="1607"/>
      <point x="544" y="1656" type="curve" smooth="yes"/>
      <point x="593" y="1705"/>
      <point x="662" y="1735"/>
      <point x="738" y="1735" type="curve" smooth="yes"/>
      <point x="814" y="1735"/>
      <point x="884" y="1705"/>
      <point x="933" y="1656" type="curve" smooth="yes"/>
      <point x="982" y="1607"/>
      <point x="1013" y="1538"/>
      <point x="1013" y="1461" type="curve" smooth="yes"/>
      <point x="1013" y="1384"/>
      <point x="982" y="1315"/>
      <point x="933" y="1266" type="curve" smooth="yes"/>
      <point x="884" y="1217"/>
      <point x="814" y="1186"/>
      <point x="738" y="1186" type="curve" smooth="yes"/>
    </contour>
    <contour>
      <point x="781" y="1309"/>
      <point x="818" y="1326"/>
      <point x="846" y="1353" type="curve" smooth="yes"/>
      <point x="873" y="1380"/>
      <point x="890" y="1417"/>
      <point x="890" y="1460" type="curve" smooth="yes"/>
      <point x="890" y="1503"/>
      <point x="873" y="1540"/>
      <point x="846" y="1568" type="curve"/>
      <point x="818" y="1595"/>
      <point x="781" y="1612"/>
      <point x="738" y="1612" type="curve" smooth="yes"/>
      <point x="695" y="1612"/>
      <point x="658" y="1596"/>
      <point x="631" y="1569" type="curve" smooth="yes"/>
      <point x="603" y="1541"/>
      <point x="587" y="1504"/>
      <point x="587" y="1461" type="curve" smooth="yes"/>
      <point x="587" y="1418"/>
      <point x="603" y="1380"/>
      <point x="631" y="1353" type="curve"/>
      <point x="658" y="1325"/>
      <point x="695" y="1309"/>
      <point x="738" y="1309" type="curve" smooth="yes"/>
    </contour>
    <contour>
      <point x="321" y="-27"/>
      <point x="250" y="-2"/>
      <point x="201" y="46" type="curve" smooth="yes"/>
      <point x="152" y="94"/>
      <point x="125" y="164"/>
      <point x="125" y="253" type="curve" smooth="yes"/>
      <point x="125" y="296"/>
      <point x="131" y="362"/>
      <point x="143" y="426" type="curve" smooth="yes"/>
      <point x="276" y="1120" type="line"/>
      <point x="461" y="1120" type="line"/>
      <point x="326" y="426" type="line" smooth="yes"/>
      <point x="318" y="383"/>
      <point x="311" y="331"/>
      <point x="311" y="296" type="curve" smooth="yes"/>
      <point x="311" y="192"/>
      <point x="376" y="133"/>
      <point x="489" y="133" type="curve" smooth="yes"/>
      <point x="654" y="133"/>
      <point x="780" y="256"/>
      <point x="825" y="487" type="curve" smooth="yes"/>
      <point x="948" y="1120" type="line"/>
      <point x="1133" y="1120" type="line"/>
      <point x="915" y="0" type="line"/>
      <point x="751" y="0" type="line"/>
      <point x="764" y="168" type="line"/>
      <point x="668" y="38"/>
      <point x="550" y="-27"/>
      <point x="409" y="-27" type="curve" smooth="yes"/>
    </contour>
  </outline>
</glyph>
<glyph name="Zacute" format="1">
  <advance width="1233"/>
  <unicode hex="0179"/>
  <note>
	Zacute
  </note>
  <outline>
    <contour>
      <point x="907" y="1866" type="line"/>
      <point x="1115" y="1866" type="line"/>
      <point x="808" y="1602" type="line"/>
      <point x="648" y="1602" type="line"/>
    </contour>
    <contour>
      <point x="23" y="154" type="line"/>
      <point x="999" y="1323" type="line"/>
      <point x="272" y="1323" type="line"/>
      <point x="305" y="1493" type="line"/>
      <point x="1274" y="1493" type="line"/>
      <point x="1245" y="1339" type="line"/>
      <point x="266" y="170" type="line"/>
      <point x="1040" y="170" type="line"/>
      <point x="1006" y="0" type="line"/>
      <point x="-6" y="0" type="line"/>
    </contour>
  </outline>
</glyph>
<glyph name="uni01A4" format="1">
  <advance width="1233"/>
  <unicode hex="01A4"/>
  <outline>
    <contour>
      <point x="377" y="0" type="line"/>
      <point x="494" y="600" type="line"/>
      <point x="728" y="600" type="line" smooth="yes"/>
      <point x="1064" y="600"/>
      <point x="1266" y="753"/>
      <point x="1322" y="1046" type="curve" smooth="yes"/>
      <point x="1330" y="1088"/>
      <point x="1334" y="1127"/>
      <point x="1334" y="1163" type="curve" smooth="yes"/>
      <point x="1334" y="1343"/>
      <point x="1233" y="1493"/>
      <point x="901" y="1493" type="curve" smooth="yes"/>
      <point x="465" y="1493" type="line" smooth="yes"/>
      <point x="296" y="1493"/>
      <point x="168" y="1397"/>
      <point x="136" y="1234" type="curve" smooth="yes"/>
      <point x="114" y="1120" type="line"/>
      <point x="289" y="1120" type="line"/>
      <point x="317" y="1260"/>
      <point x="360" y="1327"/>
      <point x="433" y="1327" type="curve"/>
      <point x="175" y="0" type="line"/>
    </contour>
    <contour>
      <point x="635" y="1327" type="line"/>
      <point x="869" y="1327" type="line" smooth="yes"/>
      <point x="1030" y="1327"/>
      <point x="1119" y="1254"/>
      <point x="1119" y="1114" type="curve" smooth="yes"/>
      <point x="1119" y="1088"/>
      <point x="1116" y="1067"/>
      <point x="1112" y="1047" type="curve" smooth="yes"/>
      <point x="1077" y="873"/>
      <point x="951" y="766"/>
      <point x="760" y="766" type="curve" smooth="yes"/>
      <point x="526" y="766" type="line"/>
    </contour>
  </outline>
</glyph>
<glyph name="oslashacute" format="1">
  <advance width="1233"/>
  <unicode hex="01FF"/>
  <note>
	oslashacute
  </note>
  <outline>
    <contour>
      <point x="907" y="1673" type="line"/>
      <point x="1126" y="1673" type="line"/>
      <point x="731" y="1297" type="line"/>
      <point x="575" y="1297" type="line"/>
    </contour>
    <contour>
      <point x="47" y="-20" type="line"/>
      <point x="176" y="133" type="line"/>
      <point x="138" y="196"/>
      <point x="119" y="281"/>
      <point x="119" y="389" type="curve" smooth="yes"/>
      <point x="119" y="576"/>
      <point x="173" y="763"/>
      <point x="274" y="911" type="curve" smooth="yes"/>
      <point x="381" y="1066"/>
      <point x="521" y="1147"/>
      <point x="722" y="1147" type="curve" smooth="yes"/>
      <point x="830" y="1147"/>
      <point x="908" y="1123"/>
      <point x="969" y="1075" type="curve"/>
      <point x="1081" y="1212" type="line"/>
      <point x="1174" y="1135" type="line"/>
      <point x="1051" y="989" type="line"/>
      <point x="1094" y="921"/>
      <point x="1114" y="838"/>
      <point x="1114" y="729" type="curve" smooth="yes"/>
      <point x="1114" y="634"/>
      <point x="1099" y="538"/>
      <point x="1072" y="449" type="curve" smooth="yes"/>
      <point x="1045" y="360"/>
      <point x="1006" y="276"/>
      <point x="958" y="207" type="curve" smooth="yes"/>
      <point x="854" y="56"/>
      <point x="711" y="-29"/>
      <point x="511" y="-29" type="curve" smooth="yes"/>
      <point x="403" y="-29"/>
      <point x="327" y="-4"/>
      <point x="258" y="45" type="curve"/>
      <point x="139" y="-96" type="line"/>
    </contour>
    <contour>
      <point x="852" y="938" type="line"/>
      <point x="812" y="975"/>
      <point x="760" y="991"/>
      <point x="703" y="991" type="curve" smooth="yes"/>
      <point x="588" y="991"/>
      <point x="491" y="927"/>
      <point x="423" y="820" type="curve" smooth="yes"/>
      <point x="354" y="713"/>
      <point x="313" y="561"/>
      <point x="313" y="388" type="curve" smooth="yes"/>
      <point x="313" y="349"/>
      <point x="315" y="326"/>
      <point x="319" y="302" type="curve"/>
    </contour>
    <contour>
      <point x="645" y="127"/>
      <point x="741" y="191"/>
      <point x="810" y="299" type="curve" smooth="yes"/>
      <point x="879" y="406"/>
      <point x="920" y="556"/>
      <point x="920" y="731" type="curve" smooth="yes"/>
      <point x="920" y="770"/>
      <point x="918" y="798"/>
      <point x="911" y="825" type="curve"/>
      <point x="377" y="186" type="line"/>
      <point x="416" y="147"/>
      <point x="469" y="127"/>
      <point x="533" y="127" type="curve" smooth="yes"/>
    </contour>
  </outline>
</glyph>
<glyph name="uni0218" format="1">
  <advance width="1233"/>
  <unicode hex="0218"/>
  <note>
	uni0218
  </note>
  <outline>
    <contour>
      <point x="288" y="-29"/>
      <point x="158" y="1"/>
      <point x="25" y="61" type="curve"/>
      <point x="66" y="270" type="line"/>
      <point x="201" y="174"/>
      <point x="338" y="135"/>
      <point x="469" y="135" type="curve" smooth="yes"/>
      <point x="586" y="135"/>
      <point x="682" y="168"/>
      <point x="747" y="224" type="curve" smooth="yes"/>
      <point x="812" y="280"/>
      <point x="848" y="359"/>
      <point x="848" y="452" type="curve" smooth="yes"/>
      <point x="848" y="505"/>
      <point x="837" y="543"/>
      <point x="803" y="575" type="curve" smooth="yes"/>
      <point x="769" y="606"/>
      <point x="714" y="631"/>
      <point x="627" y="659" type="curve" smooth="yes"/>
      <point x="526" y="692" type="line" smooth="yes"/>
      <point x="402" y="732"/>
      <point x="319" y="773"/>
      <point x="267" y="825" type="curve" smooth="yes"/>
      <point x="215" y="876"/>
      <point x="195" y="938"/>
      <point x="195" y="1022" type="curve" smooth="yes"/>
      <point x="195" y="1167"/>
      <point x="257" y="1292"/>
      <point x="362" y="1380" type="curve" smooth="yes"/>
      <point x="466" y="1468"/>
      <point x="613" y="1520"/>
      <point x="782" y="1520" type="curve" smooth="yes"/>
      <point x="898" y="1520"/>
      <point x="1011" y="1495"/>
      <point x="1147" y="1442" type="curve"/>
      <point x="1108" y="1237" type="line"/>
      <point x="999" y="1316"/>
      <point x="883" y="1356"/>
      <point x="759" y="1356" type="curve" smooth="yes"/>
      <point x="648" y="1356"/>
      <point x="557" y="1325"/>
      <point x="491" y="1274" type="curve" smooth="yes"/>
      <point x="425" y="1222"/>
      <point x="387" y="1150"/>
      <point x="387" y="1066" type="curve" smooth="yes"/>
      <point x="387" y="1015"/>
      <point x="400" y="980"/>
      <point x="436" y="950" type="curve" smooth="yes"/>
      <point x="471" y="920"/>
      <point x="527" y="894"/>
      <point x="614" y="866" type="curve" smooth="yes"/>
      <point x="735" y="827" type="line" smooth="yes"/>
      <point x="850" y="790"/>
      <point x="929" y="746"/>
      <point x="979" y="689" type="curve" smooth="yes"/>
      <point x="1029" y="632"/>
      <point x="1049" y="561"/>
      <point x="1049" y="472" type="curve" smooth="yes"/>
      <point x="1049" y="323"/>
      <point x="990" y="198"/>
      <point x="884" y="110" type="curve" smooth="yes"/>
      <point x="778" y="22"/>
      <point x="624" y="-29"/>
      <point x="435" y="-29" type="curve" smooth="yes"/>
    </contour>
    <contour>
      <point x="335" y="-197" type="line"/>
      <point x="574" y="-197" type="line"/>
      <point x="320" y="-542" type="line"/>
      <point x="174" y="-542" type="line"/>
    </contour>
  </outline>
</glyph>
<glyph name="uni02B9" format="1">
  <advance width="1233"/>
  <unicode hex="02B9"/>
  <note>
	uni02B9
  </note>
  <outline>
    <contour>
      <point x="605" y="1638" type="line"/>
      <point x="795" y="1638" type="line"/>
      <point x="589" y="1140" type="line"/>
      <point x="444" y="1140" type="line"/>
    </contour>
  </outline>
</glyph>
<glyph name="uni02BE" format="1">
  <advance width="1233"/>
  <unicode hex="02BE"/>
  <note>
	uni02BE
  </note>
  <outline>
    <contour>
      <point x="618" y="1028"/>
      <point x="622" y="1048"/>
      <point x="626" y="1069" type="curve" smooth="yes"/>
      <point x="630" y="1089"/>
      <point x="634" y="1109"/>
      <point x="638" y="1130" type="curve"/>
      <point x="686" y="1130"/>
      <point x="731" y="1151"/>
      <point x="766" y="1184" type="curve" smooth="yes"/>
      <point x="801" y="1216"/>
      <point x="823" y="1262"/>
      <point x="823" y="1311" type="curve" smooth="yes"/>
      <point x="823" y="1382"/>
      <point x="773" y="1433"/>
      <point x="697" y="1433" type="curve"/>
      <point x="721" y="1556" type="line"/>
      <point x="789" y="1556"/>
      <point x="845" y="1533"/>
      <point x="885" y="1494" type="curve" smooth="yes"/>
      <point x="924" y="1454"/>
      <point x="947" y="1399"/>
      <point x="947" y="1335" type="curve" smooth="yes"/>
      <point x="947" y="1318"/>
      <point x="945" y="1301"/>
      <point x="942" y="1282" type="curve"/>
      <point x="927" y="1206"/>
      <point x="884" y="1136"/>
      <point x="825" y="1087" type="curve" smooth="yes"/>
      <point x="766" y="1038"/>
      <point x="691" y="1007"/>
      <point x="615" y="1007" type="curve"/>
    </contour>
  </outline>
</glyph>
<glyph name="uni02C0" format="1">
  <advance width="1233"/>
  <unicode hex="02C0"/>
  <note>
	uni02C0
  </note>
  <outline>
    <contour>
      <point x="511" y="1341" type="line"/>
      <point x="551" y="1341" type="line" smooth="yes"/>
      <point x="639" y="1341"/>
      <point x="699" y="1366"/>
      <point x="739" y="1405" type="curve" smooth="yes"/>
      <point x="776" y="1441"/>
      <point x="799" y="1494"/>
      <point x="799" y="1543" type="curve" smooth="yes"/>
      <point x="799" y="1598"/>
      <point x="773" y="1636"/>
      <point x="718" y="1660" type="curve"/>
      <point x="690" y="1671"/>
      <point x="655" y="1677"/>
      <point x="614" y="1677" type="curve" smooth="yes"/>
      <point x="550" y="1677"/>
      <point x="481" y="1661"/>
      <point x="409" y="1629" type="curve"/>
      <point x="427" y="1725" type="line"/>
      <point x="496" y="1752"/>
      <point x="566" y="1764"/>
      <point x="638" y="1764" type="curve" smooth="yes"/>
      <point x="738" y="1764"/>
      <point x="810" y="1740"/>
      <point x="856" y="1703" type="curve" smooth="yes"/>
      <point x="902" y="1666"/>
      <point x="922" y="1613"/>
      <point x="922" y="1557" type="curve" smooth="yes"/>
      <point x="922" y="1538"/>
      <point x="920" y="1520"/>
      <point x="916" y="1502" type="curve" smooth="yes"/>
      <point x="901" y="1433"/>
      <point x="863" y="1377"/>
      <point x="811" y="1337" type="curve" smooth="yes"/>
      <point x="759" y="1297"/>
      <point x="694" y="1271"/>
      <point x="623" y="1259" type="curve"/>
      <point x="552" y="894" type="line"/>
      <point x="425" y="894" type="line"/>
    </contour>
  </outline>
</glyph>
<glyph name="uni030A" format="1">
  <advance width="0"/>
  <unicode hex="030A"/>
  <note>
	uni030A
  </note>
  <outline>
    <contour>
      <point x="-531" y="1321"/>
      <point x="-600" y="1352"/>
      <point x="-649" y="1401" type="curve" smooth="yes"/>
      <point x="-698" y="1450"/>
      <point x="-729" y="1519"/>
      <point x="-729" y="1596" type="curve" smooth="yes"/>
      <point x="-729" y="1673"/>
      <point x="-698" y="1742"/>
      <point x="-649" y="1791" type="curve" smooth="yes"/>
      <point x="-600" y="1840"/>
      <point x="-531" y="1870"/>
      <point x="-455" y="1870" type="curve" smooth="yes"/>
      <point x="-379" y="1870"/>
      <point x="-309" y="1840"/>
      <point x="-260" y="1791" type="curve" smooth="yes"/>
      <point x="-211" y="1742"/>
      <point x="-180" y="1673"/>
      <point x="-180" y="1596" type="curve" smooth="yes"/>
      <point x="-180" y="1519"/>
      <point x="-211" y="1450"/>
      <point x="-260" y="1401" type="curve" smooth="yes"/>
      <point x="-309" y="1352"/>
      <point x="-379" y="1321"/>
      <point x="-455" y="1321" type="curve" smooth="yes"/>
    </contour>
    <contour>
      <point x="-412" y="1444"/>
      <point x="-375" y="1461"/>
      <point x="-347" y="1488" type="curve" smooth="yes"/>
      <point x="-320" y="1515"/>
      <point x="-303" y="1552"/>
      <point x="-303" y="1595" type="curve" smooth="yes"/>
      <point x="-303" y="1638"/>
      <point x="-320" y="1675"/>
      <point x="-347" y="1703" type="curve"/>
      <point x="-375" y="1730"/>
      <point x="-412" y="1747"/>
      <point x="-455" y="1747" type="curve" smooth="yes"/>
      <point x="-498" y="1747"/>
      <point x="-535" y="1731"/>
      <point x="-562" y="1704" type="curve" smooth="yes"/>
      <point x="-590" y="1676"/>
      <point x="-606" y="1639"/>
      <point x="-606" y="1596" type="curve" smooth="yes"/>
      <point x="-606" y="1553"/>
      <point x="-590" y="1515"/>
      <point x="-562" y="1488" type="curve"/>
      <point x="-535" y="1460"/>
      <point x="-498" y="1444"/>
      <point x="-455" y="1444" type="curve" smooth="yes"/>
    </contour>
  </outline>
</glyph>
<glyph name="uni0311" format="1">
  <advance width="0"/>
  <unicode hex="0311"/>
  <note>
	uni0311
  </note>
  <outline>
    <contour>
      <point x="-765" y="1512"/>
      <point x="-642" y="1608"/>
      <point x="-447" y="1608" type="curve" smooth="yes"/>
      <point x="-351" y="1608"/>
      <point x="-286" y="1584"/>
      <point x="-245" y="1544" type="curve" smooth="yes"/>
      <point x="-204" y="1503"/>
      <point x="-187" y="1444"/>
      <point x="-187" y="1376" type="curve" smooth="yes"/>
      <point x="-187" y="1358"/>
      <point x="-188" y="1340"/>
      <point x="-190" y="1321" type="curve"/>
      <point x="-309" y="1321" type="line"/>
      <point x="-308" y="1426"/>
      <point x="-365" y="1471"/>
      <point x="-476" y="1471" type="curve" smooth="yes"/>
      <point x="-595" y="1471"/>
      <point x="-663" y="1420"/>
      <point x="-698" y="1321" type="curve"/>
      <point x="-817" y="1321" type="line"/>
    </contour>
  </outline>
</glyph>
<glyph name="uni0319" format="1">
  <advance width="0"/>
  <unicode hex="0319"/>
  <note>
	uni0319
  </note>
  <outline>
    <contour>
      <point x="-667" y="-277" type="line"/>
      <point x="-531" y="-277" type="line"/>
      <point x="-565" y="-454" type="line"/>
      <point x="-389" y="-454" type="line"/>
      <point x="-416" y="-590" type="line"/>
      <point x="-592" y="-590" type="line"/>
      <point x="-626" y="-767" type="line"/>
      <point x="-762" y="-767" type="line"/>
    </contour>
  </outline>
</glyph>
<glyph name="uni031C" format="1">
  <advance width="0"/>
  <unicode hex="031C"/>
  <note>
	uni031C
  </note>
  <outline>
    <contour>
      <point x="-812" y="-502"/>
      <point x="-857" y="-480"/>
      <point x="-886" y="-447" type="curve" smooth="yes"/>
      <point x="-915" y="-414"/>
      <point x="-930" y="-368"/>
      <point x="-930" y="-321" type="curve" smooth="yes"/>
      <point x="-930" y="-248"/>
      <point x="-894" y="-182"/>
      <point x="-843" y="-136" type="curve" smooth="yes"/>
      <point x="-792" y="-90"/>
      <point x="-726" y="-63"/>
      <point x="-663" y="-63" type="curve"/>
      <point x="-682" y="-161" type="line"/>
      <point x="-717" y="-161"/>
      <point x="-753" y="-177"/>
      <point x="-781" y="-202" type="curve" smooth="yes"/>
      <point x="-810" y="-227"/>
      <point x="-830" y="-263"/>
      <point x="-830" y="-304" type="curve" smooth="yes"/>
      <point x="-830" y="-356"/>
      <point x="-798" y="-404"/>
      <point x="-730" y="-404" type="curve"/>
      <point x="-749" y="-502" type="line"/>
    </contour>
  </outline>
</glyph>
<glyph name="uni031F" format="1">
  <advance width="0"/>
  <unicode hex="031F"/>
  <note>
	uni031F
  </note>
  <outline>
    <contour>
      <point x="-682" y="-590" type="line"/>
      <point x="-859" y="-590" type="line"/>
      <point x="-832" y="-454" type="line"/>
      <point x="-655" y="-454" type="line"/>
      <point x="-621" y="-277" type="line"/>
      <point x="-485" y="-277" type="line"/>
      <point x="-519" y="-454" type="line"/>
      <point x="-342" y="-454" type="line"/>
      <point x="-369" y="-590" type="line"/>
      <point x="-546" y="-590" type="line"/>
      <point x="-580" y="-767" type="line"/>
      <point x="-716" y="-767" type="line"/>
    </contour>
  </outline>
</glyph>
<glyph name="uni0321" format="1">
  <advance width="0"/>
  <unicode hex="0321"/>
  <note>
	uni0321
  </note>
  <outline>
    <contour>
      <point x="-893" y="-270" type="line"/>
      <point x="-708" y="-270" type="line" smooth="yes"/>
      <point x="-583" y="-270"/>
      <point x="-513" y="-185"/>
      <point x="-481" y="-20" type="curve" smooth="yes"/>
      <point x="-452" y="128" type="line"/>
      <point x="-267" y="128" type="line"/>
      <point x="-296" y="-20" type="line" smooth="yes"/>
      <point x="-321" y="-151"/>
      <point x="-372" y="-252"/>
      <point x="-444" y="-320" type="curve" smooth="yes"/>
      <point x="-516" y="-389"/>
      <point x="-610" y="-426"/>
      <point x="-719" y="-426" type="curve" smooth="yes"/>
      <point x="-924" y="-426" type="line"/>
    </contour>
  </outline>
</glyph>
<glyph name="uni032F" format="1">
  <advance width="0"/>
  <unicode hex="032F"/>
  <note>
	uni032F
  </note>
  <outline>
    <contour>
      <point x="-1116" y="-294"/>
      <point x="-993" y="-198"/>
      <point x="-798" y="-198" type="curve" smooth="yes"/>
      <point x="-702" y="-198"/>
      <point x="-637" y="-222"/>
      <point x="-596" y="-262" type="curve" smooth="yes"/>
      <point x="-555" y="-303"/>
      <point x="-538" y="-362"/>
      <point x="-538" y="-430" type="curve" smooth="yes"/>
      <point x="-538" y="-448"/>
      <point x="-539" y="-466"/>
      <point x="-541" y="-485" type="curve"/>
      <point x="-660" y="-485" type="line"/>
      <point x="-660" y="-472" type="line" smooth="yes"/>
      <point x="-660" y="-384"/>
      <point x="-708" y="-335"/>
      <point x="-824" y="-335" type="curve" smooth="yes"/>
      <point x="-943" y="-335"/>
      <point x="-1013" y="-386"/>
      <point x="-1049" y="-485" type="curve"/>
      <point x="-1168" y="-485" type="line"/>
    </contour>
  </outline>
</glyph>
<glyph name="uni0338" format="1">
  <advance width="0"/>
  <unicode hex="0338"/>
  <note>
	uni0338
  </note>
  <outline>
    <contour>
      <point x="-1369" y="0" type="line"/>
      <point x="26" y="1559" type="line"/>
      <point x="112" y="1485" type="line"/>
      <point x="-1279" y="-70" type="line"/>
    </contour>
  </outline>
</glyph>
<glyph name="uni033E" format="1">
  <advance width="0"/>
  <unicode hex="033E"/>
  <note>
	uni033E
  </note>
  <outline>
    <contour>
      <point x="-787" y="1328" type="line"/>
      <point x="-731" y="1329"/>
      <point x="-693" y="1335"/>
      <point x="-666" y="1344" type="curve" smooth="yes"/>
      <point x="-636" y="1355"/>
      <point x="-621" y="1369"/>
      <point x="-621" y="1388" type="curve" smooth="yes"/>
      <point x="-621" y="1393"/>
      <point x="-623" y="1400"/>
      <point x="-627" y="1408" type="curve" smooth="yes"/>
      <point x="-631" y="1416"/>
      <point x="-639" y="1425"/>
      <point x="-650" y="1436" type="curve"/>
      <point x="-697" y="1479" type="line"/>
      <point x="-729" y="1511"/>
      <point x="-740" y="1536"/>
      <point x="-740" y="1563" type="curve" smooth="yes"/>
      <point x="-740" y="1570"/>
      <point x="-739" y="1576"/>
      <point x="-738" y="1583" type="curve" smooth="yes"/>
      <point x="-729" y="1636"/>
      <point x="-694" y="1677"/>
      <point x="-639" y="1704" type="curve" smooth="yes"/>
      <point x="-584" y="1731"/>
      <point x="-511" y="1745"/>
      <point x="-424" y="1746" type="curve"/>
      <point x="-446" y="1636" type="line"/>
      <point x="-501" y="1635"/>
      <point x="-541" y="1630"/>
      <point x="-567" y="1621" type="curve" smooth="yes"/>
      <point x="-597" y="1610"/>
      <point x="-612" y="1595"/>
      <point x="-612" y="1576" type="curve" smooth="yes"/>
      <point x="-612" y="1571"/>
      <point x="-610" y="1564"/>
      <point x="-606" y="1556" type="curve" smooth="yes"/>
      <point x="-602" y="1548"/>
      <point x="-594" y="1539"/>
      <point x="-583" y="1528" type="curve"/>
      <point x="-536" y="1485" type="line"/>
      <point x="-504" y="1453"/>
      <point x="-493" y="1428"/>
      <point x="-493" y="1401" type="curve" smooth="yes"/>
      <point x="-493" y="1394"/>
      <point x="-494" y="1388"/>
      <point x="-495" y="1381" type="curve" smooth="yes"/>
      <point x="-504" y="1328"/>
      <point x="-539" y="1287"/>
      <point x="-594" y="1260" type="curve" smooth="yes"/>
      <point x="-649" y="1233"/>
      <point x="-722" y="1219"/>
      <point x="-809" y="1218" type="curve"/>
    </contour>
  </outline>
</glyph>
<glyph name="tonos" format="1">
  <advance width="1233"/>
  <unicode hex="0384"/>
  <note>
	tonos
  </note>
  <outline>
    <contour>
      <point x="907" y="1638" type="line"/>
      <point x="1126" y="1638" type="line"/>
      <point x="731" y="1262" type="line"/>
      <point x="575" y="1262" type="line"/>
    </contour>
  </outline>
</glyph>
<glyph name="Omegatonos" format="1">
  <advance width="1233"/>
  <unicode hex="038F"/>
  <note>
	Omegatonos
  </note>
  <outline>
    <contour>
      <point x="383" y="1638" type="line"/>
      <point x="602" y="1638" type="line"/>
      <point x="207" y="1262" type="line"/>
      <point x="51" y="1262" type="line"/>
    </contour>
    <contour>
      <point x="-33" y="172" type="line"/>
      <point x="212" y="172" type="line"/>
      <point x="120" y="297"/>
      <point x="76" y="428"/>
      <point x="76" y="585" type="curve" smooth="yes"/>
      <point x="76" y="708"/>
      <point x="107" y="894"/>
      <point x="189" y="1062" type="curve" smooth="yes"/>
      <point x="271" y="1229"/>
      <point x="386" y="1348"/>
      <point x="530" y="1412" type="curve" smooth="yes"/>
      <point x="601" y="1444"/>
      <point x="678" y="1460"/>
      <point x="759" y="1460" type="curve" smooth="yes"/>
      <point x="894" y="1460"/>
      <point x="998" y="1415"/>
      <point x="1069" y="1333" type="curve" smooth="yes"/>
      <point x="1140" y="1251"/>
      <point x="1177" y="1132"/>
      <point x="1177" y="985" type="curve" smooth="yes"/>
      <point x="1177" y="858"/>
      <point x="1148" y="716"/>
      <point x="1109" y="606" type="curve" smooth="yes"/>
      <point x="1069" y="496"/>
      <point x="1012" y="398"/>
      <point x="936" y="307" type="curve" smooth="yes"/>
      <point x="897" y="261"/>
      <point x="853" y="216"/>
      <point x="804" y="172" type="curve"/>
      <point x="1052" y="172" type="line"/>
      <point x="1018" y="0" type="line"/>
      <point x="555" y="0" type="line"/>
      <point x="589" y="172" type="line"/>
      <point x="678" y="221"/>
      <point x="759" y="307"/>
      <point x="824" y="416" type="curve" smooth="yes"/>
      <point x="888" y="524"/>
      <point x="937" y="656"/>
      <point x="964" y="799" type="curve" smooth="yes"/>
      <point x="975" y="862"/>
      <point x="981" y="919"/>
      <point x="981" y="971" type="curve" smooth="yes"/>
      <point x="981" y="1175"/>
      <point x="896" y="1294"/>
      <point x="728" y="1294" type="curve" smooth="yes"/>
      <point x="627" y="1294"/>
      <point x="535" y="1250"/>
      <point x="461" y="1166" type="curve" smooth="yes"/>
      <point x="387" y="1082"/>
      <point x="329" y="958"/>
      <point x="297" y="799" type="curve" smooth="yes"/>
      <point x="281" y="721"/>
      <point x="273" y="647"/>
      <point x="273" y="577" type="curve" smooth="yes"/>
      <point x="273" y="390"/>
      <point x="327" y="244"/>
      <point x="430" y="172" type="curve"/>
      <point x="396" y="0" type="line"/>
      <point x="-67" y="0" type="line"/>
    </contour>
  </outline>
</glyph>
<glyph name="Epsilon" format="1">
  <advance width="1233"/>
  <unicode hex="0395"/>
  <note>
	Epsilon
  </note>
  <outline>
    <contour>
      <point x="344" y="1493" type="line"/>
      <point x="1229" y="1493" type="line"/>
      <point x="1196" y="1323" type="line"/>
      <point x="512" y="1323" type="line"/>
      <point x="426" y="881" type="line"/>
      <point x="1079" y="881" type="line"/>
      <point x="1047" y="711" type="line"/>
      <point x="393" y="711" type="line"/>
      <point x="289" y="170" type="line"/>
      <point x="991" y="170" type="line"/>
      <point x="958" y="0" type="line"/>
      <point x="53" y="0" type="line"/>
    </contour>
  </outline>
</glyph>
<glyph name="Theta" format="1">
  <advance width="1233"/>
  <unicode hex="0398"/>
  <note>
	Theta
  </note>
  <outline>
    <contour>
      <point x="815" y="-29"/>
      <point x="1136" y="264"/>
      <point x="1217" y="684" type="curve" smooth="yes"/>
      <point x="1292" y="1070"/>
      <point x="1131" y="1393"/>
      <point x="789" y="1393" type="curve" smooth="yes"/>
      <point x="448" y="1393"/>
      <point x="140" y="1071"/>
      <point x="63" y="676" type="curve" smooth="yes"/>
      <point x="-12" y="289"/>
      <point x="161" y="-29"/>
      <point x="495" y="-29" type="curve" smooth="yes"/>
    </contour>
    <contour>
      <point x="279" y="156"/>
      <point x="213" y="404"/>
      <point x="266" y="679" type="curve" smooth="yes"/>
      <point x="317" y="941"/>
      <point x="472" y="1208"/>
      <point x="745" y="1208" type="curve" smooth="yes"/>
      <point x="1017" y="1208"/>
      <point x="1065" y="944"/>
      <point x="1015" y="685" type="curve" smooth="yes"/>
      <point x="961" y="407"/>
      <point x="798" y="156"/>
      <point x="538" y="156" type="curve" smooth="yes"/>
    </contour>
    <contour>
      <point x="857" y="594" type="line"/>
      <point x="890" y="764" type="line"/>
      <point x="423" y="764" type="line"/>
      <point x="390" y="594" type="line"/>
    </contour>
  </outline>
</glyph>
<glyph name="Pi" format="1">
  <advance width="1233"/>
  <unicode hex="03A0"/>
  <note>
	Pi
  </note>
  <outline>
    <contour>
      <point x="283" y="1493" type="line"/>
      <point x="1242" y="1493" type="line"/>
      <point x="952" y="0" type="line"/>
      <point x="749" y="0" type="line"/>
      <point x="1006" y="1323" type="line"/>
      <point x="453" y="1323" type="line"/>
      <point x="196" y="0" type="line"/>
      <point x="-7" y="0" type="line"/>
    </contour>
  </outline>
</glyph>
<glyph name="Phi" format="1">
  <advance width="1233"/>
  <unicode hex="03A6"/>
  <note>
	Phi
  </note>
  <outline>
    <contour>
      <point x="255" y="170" type="line"/>
      <point x="402" y="170" type="line"/>
      <point x="424" y="286" type="line"/>
      <point x="327" y="297"/>
      <point x="247" y="324"/>
      <point x="191" y="376" type="curve" smooth="yes"/>
      <point x="135" y="427"/>
      <point x="103" y="501"/>
      <point x="103" y="608" type="curve" smooth="yes"/>
      <point x="103" y="649"/>
      <point x="106" y="694"/>
      <point x="117" y="745" type="curve" smooth="yes"/>
      <point x="148" y="902"/>
      <point x="210" y="1012"/>
      <point x="294" y="1084" type="curve" smooth="yes"/>
      <point x="378" y="1156"/>
      <point x="484" y="1193"/>
      <point x="603" y="1205" type="curve"/>
      <point x="626" y="1323" type="line"/>
      <point x="479" y="1323" type="line"/>
      <point x="512" y="1493" type="line"/>
      <point x="1009" y="1493" type="line"/>
      <point x="976" y="1323" type="line"/>
      <point x="829" y="1323" type="line"/>
      <point x="806" y="1205" type="line"/>
      <point x="903" y="1194"/>
      <point x="984" y="1166"/>
      <point x="1040" y="1114" type="curve" smooth="yes"/>
      <point x="1096" y="1062"/>
      <point x="1128" y="985"/>
      <point x="1128" y="880" type="curve" smooth="yes"/>
      <point x="1128" y="840"/>
      <point x="1125" y="796"/>
      <point x="1114" y="745" type="curve" smooth="yes"/>
      <point x="1083" y="589"/>
      <point x="1022" y="480"/>
      <point x="938" y="408" type="curve" smooth="yes"/>
      <point x="854" y="335"/>
      <point x="747" y="298"/>
      <point x="627" y="286" type="curve"/>
      <point x="605" y="170" type="line"/>
      <point x="752" y="170" type="line"/>
      <point x="719" y="0" type="line"/>
      <point x="222" y="0" type="line"/>
    </contour>
    <contour>
      <point x="569" y="1029" type="line"/>
      <point x="520" y="1018"/>
      <point x="472" y="999"/>
      <point x="439" y="971" type="curve" smooth="yes"/>
      <point x="403" y="939"/>
      <point x="372" y="889"/>
      <point x="351" y="831" type="curve" smooth="yes"/>
      <point x="330" y="773"/>
      <point x="318" y="708"/>
      <point x="318" y="651" type="curve" smooth="yes"/>
      <point x="318" y="596"/>
      <point x="329" y="551"/>
      <point x="352" y="520" type="curve"/>
      <point x="375" y="492"/>
      <point x="412" y="473"/>
      <point x="459" y="462" type="curve"/>
    </contour>
    <contour>
      <point x="662" y="462" type="line"/>
      <point x="711" y="473"/>
      <point x="759" y="492"/>
      <point x="792" y="520" type="curve" smooth="yes"/>
      <point x="828" y="551"/>
      <point x="859" y="603"/>
      <point x="880" y="661" type="curve" smooth="yes"/>
      <point x="900" y="719"/>
      <point x="912" y="784"/>
      <point x="912" y="841" type="curve" smooth="yes"/>
      <point x="912" y="896"/>
      <point x="902" y="942"/>
      <point x="879" y="971" type="curve" smooth="yes"/>
      <point x="856" y="999"/>
      <point x="819" y="1018"/>
      <point x="772" y="1029" type="curve"/>
    </contour>
  </outline>
</glyph>
<glyph name="epsilontonos" format="1">
  <advance width="1233"/>
  <unicode hex="03AD"/>
  <note>
	epsilontonos
  </note>
  <outline>
    <contour>
      <point x="947" y="1673" type="line"/>
      <point x="1166" y="1673" type="line"/>
      <point x="771" y="1297" type="line"/>
      <point x="615" y="1297" type="line"/>
    </contour>
    <contour>
      <point x="399" y="-29"/>
      <point x="284" y="-2"/>
      <point x="211" y="59" type="curve" smooth="yes"/>
      <point x="151" y="110"/>
      <point x="127" y="176"/>
      <point x="127" y="244" type="curve" smooth="yes"/>
      <point x="127" y="291"/>
      <point x="138" y="337"/>
      <point x="158" y="380" type="curve" smooth="yes"/>
      <point x="178" y="423"/>
      <point x="207" y="460"/>
      <point x="240" y="488" type="curve" smooth="yes"/>
      <point x="276" y="518" type="line" smooth="yes"/>
      <point x="321" y="554"/>
      <point x="373" y="579"/>
      <point x="434" y="592" type="curve"/>
      <point x="415" y="596"/>
      <point x="390" y="604"/>
      <point x="374" y="612" type="curve" smooth="yes"/>
      <point x="353" y="623"/>
      <point x="325" y="643"/>
      <point x="303" y="673" type="curve" smooth="yes"/>
      <point x="281" y="703"/>
      <point x="264" y="742"/>
      <point x="264" y="791" type="curve" smooth="yes"/>
      <point x="264" y="804"/>
      <point x="265" y="817"/>
      <point x="268" y="832" type="curve" smooth="yes"/>
      <point x="283" y="920"/>
      <point x="341" y="996"/>
      <point x="427" y="1049" type="curve" smooth="yes"/>
      <point x="513" y="1101"/>
      <point x="628" y="1132"/>
      <point x="757" y="1132" type="curve" smooth="yes"/>
      <point x="850" y="1132"/>
      <point x="956" y="1116"/>
      <point x="1097" y="1084" type="curve"/>
      <point x="1062" y="905" type="line"/>
      <point x="999" y="926"/>
      <point x="935" y="943"/>
      <point x="876" y="953" type="curve" smooth="yes"/>
      <point x="817" y="963"/>
      <point x="764" y="966"/>
      <point x="727" y="965" type="curve" smooth="yes"/>
      <point x="696" y="964" type="line" smooth="yes"/>
      <point x="645" y="961"/>
      <point x="590" y="942"/>
      <point x="553" y="919" type="curve" smooth="yes"/>
      <point x="509" y="891" type="line"/>
      <point x="486" y="872"/>
      <point x="476" y="853"/>
      <point x="469" y="821" type="curve" smooth="yes"/>
      <point x="467" y="812"/>
      <point x="466" y="803"/>
      <point x="466" y="795" type="curve" smooth="yes"/>
      <point x="466" y="772"/>
      <point x="477" y="753"/>
      <point x="520" y="724" type="curve" smooth="yes"/>
      <point x="571" y="689"/>
      <point x="621" y="670"/>
      <point x="697" y="670" type="curve" smooth="yes"/>
      <point x="824" y="670" type="line"/>
      <point x="792" y="507" type="line"/>
      <point x="666" y="507" type="line" smooth="yes"/>
      <point x="593" y="507"/>
      <point x="506" y="480"/>
      <point x="442" y="444" type="curve" smooth="yes"/>
      <point x="378" y="408"/>
      <point x="349" y="366"/>
      <point x="340" y="321" type="curve"/>
      <point x="337" y="313"/>
      <point x="335" y="294"/>
      <point x="335" y="278" type="curve" smooth="yes"/>
      <point x="335" y="243"/>
      <point x="354" y="210"/>
      <point x="393" y="179" type="curve"/>
      <point x="396" y="178"/>
      <point x="398" y="176"/>
      <point x="400" y="174" type="curve" smooth="yes"/>
      <point x="402" y="172"/>
      <point x="404" y="170"/>
      <point x="407" y="169" type="curve"/>
      <point x="450" y="138"/>
      <point x="512" y="124"/>
      <point x="584" y="124" type="curve" smooth="yes"/>
      <point x="611" y="124"/>
      <point x="627" y="126"/>
      <point x="648" y="129" type="curve"/>
      <point x="776" y="158" type="line"/>
      <point x="791" y="161" type="line" smooth="yes"/>
      <point x="818" y="166"/>
      <point x="853" y="174"/>
      <point x="886" y="183" type="curve" smooth="yes"/>
      <point x="919" y="191"/>
      <point x="949" y="199"/>
      <point x="968" y="207" type="curve"/>
      <point x="932" y="26" type="line"/>
      <point x="800" y="-10"/>
      <point x="665" y="-29"/>
      <point x="544" y="-29" type="curve" smooth="yes"/>
    </contour>
  </outline>
</glyph>
<glyph name="nu" format="1">
  <advance width="1233"/>
  <unicode hex="03BD"/>
  <note>
	nu
  </note>
  <outline>
    <contour>
      <point x="225" y="1120" type="line"/>
      <point x="423" y="1120" type="line"/>
      <point x="529" y="180" type="line"/>
      <point x="625" y="263"/>
      <point x="718" y="359"/>
      <point x="791" y="455" type="curve" smooth="yes"/>
      <point x="863" y="550"/>
      <point x="917" y="642"/>
      <point x="934" y="717" type="curve"/>
      <point x="941" y="740"/>
      <point x="945" y="774"/>
      <point x="945" y="817" type="curve" smooth="yes"/>
      <point x="945" y="898"/>
      <point x="925" y="1005"/>
      <point x="856" y="1120" type="curve"/>
      <point x="1042" y="1120" type="line"/>
      <point x="1069" y="1073"/>
      <point x="1089" y="1018"/>
      <point x="1104" y="961" type="curve" smooth="yes"/>
      <point x="1119" y="904"/>
      <point x="1126" y="844"/>
      <point x="1126" y="791" type="curve" smooth="yes"/>
      <point x="1126" y="763"/>
      <point x="1124" y="738"/>
      <point x="1120" y="715" type="curve" smooth="yes"/>
      <point x="1105" y="632"/>
      <point x="1059" y="543"/>
      <point x="996" y="455" type="curve" smooth="yes"/>
      <point x="932" y="366"/>
      <point x="852" y="278"/>
      <point x="772" y="200" type="curve" smooth="yes"/>
      <point x="691" y="122"/>
      <point x="610" y="52"/>
      <point x="545" y="0" type="curve"/>
      <point x="349" y="0" type="line"/>
    </contour>
  </outline>
</glyph>
<glyph name="uni03C2" format="1">
  <advance width="1233"/>
  <unicode hex="03C2"/>
  <note>
	sigma1
  </note>
  <outline>
    <contour>
      <point x="532" y="-379"/>
      <point x="541" y="-330"/>
      <point x="552" y="-279" type="curve"/>
      <point x="597" y="-283"/>
      <point x="636" y="-266"/>
      <point x="665" y="-244" type="curve" smooth="yes"/>
      <point x="693" y="-222"/>
      <point x="712" y="-192"/>
      <point x="717" y="-168" type="curve"/>
      <point x="719" y="-156"/>
      <point x="720" y="-144"/>
      <point x="720" y="-132" type="curve" smooth="yes"/>
      <point x="720" y="-79"/>
      <point x="696" y="-37"/>
      <point x="623" y="-29" type="curve" smooth="yes"/>
      <point x="571" y="-24"/>
      <point x="503" y="-15"/>
      <point x="435" y="6" type="curve" smooth="yes"/>
      <point x="367" y="26"/>
      <point x="299" y="61"/>
      <point x="248" y="121" type="curve" smooth="yes"/>
      <point x="197" y="180"/>
      <point x="164" y="263"/>
      <point x="164" y="383" type="curve" smooth="yes"/>
      <point x="164" y="435"/>
      <point x="169" y="492"/>
      <point x="184" y="559" type="curve" smooth="yes"/>
      <point x="224" y="748"/>
      <point x="305" y="895"/>
      <point x="418" y="995" type="curve" smooth="yes"/>
      <point x="531" y="1095"/>
      <point x="676" y="1147"/>
      <point x="844" y="1147" type="curve" smooth="yes"/>
      <point x="904" y="1147"/>
      <point x="957" y="1141"/>
      <point x="1006" y="1127" type="curve" smooth="yes"/>
      <point x="1055" y="1113"/>
      <point x="1101" y="1090"/>
      <point x="1148" y="1061" type="curve"/>
      <point x="1110" y="868" type="line"/>
      <point x="1034" y="951"/>
      <point x="950" y="991"/>
      <point x="826" y="991" type="curve" smooth="yes"/>
      <point x="705" y="991"/>
      <point x="606" y="952"/>
      <point x="531" y="878" type="curve" smooth="yes"/>
      <point x="455" y="804"/>
      <point x="405" y="695"/>
      <point x="378" y="559" type="curve" smooth="yes"/>
      <point x="368" y="507"/>
      <point x="363" y="461"/>
      <point x="363" y="421" type="curve" smooth="yes"/>
      <point x="363" y="320"/>
      <point x="392" y="253"/>
      <point x="432" y="210" type="curve" smooth="yes"/>
      <point x="472" y="166"/>
      <point x="522" y="146"/>
      <point x="565" y="137" type="curve" smooth="yes"/>
      <point x="586" y="132"/>
      <point x="605" y="130"/>
      <point x="622" y="129" type="curve" smooth="yes"/>
      <point x="638" y="128"/>
      <point x="648" y="128"/>
      <point x="653" y="127" type="curve"/>
      <point x="832" y="100"/>
      <point x="905" y="36"/>
      <point x="905" y="-73" type="curve" smooth="yes"/>
      <point x="905" y="-96"/>
      <point x="902" y="-121"/>
      <point x="895" y="-148" type="curve" smooth="yes"/>
      <point x="876" y="-229"/>
      <point x="836" y="-299"/>
      <point x="775" y="-349" type="curve" smooth="yes"/>
      <point x="714" y="-399"/>
      <point x="630" y="-430"/>
      <point x="523" y="-430" type="curve"/>
    </contour>
  </outline>
</glyph>
<glyph name="sigma" format="1">
  <advance width="1233"/>
  <unicode hex="03C3"/>
  <note>
	sigma
  </note>
  <outline>
    <contour>
      <point x="238" y="-29"/>
      <point x="102" y="104"/>
      <point x="102" y="364" type="curve" smooth="yes"/>
      <point x="102" y="423"/>
      <point x="109" y="488"/>
      <point x="123" y="559" type="curve" smooth="yes"/>
      <point x="196" y="919"/>
      <point x="392" y="1120"/>
      <point x="711" y="1120" type="curve" smooth="yes"/>
      <point x="1226" y="1120" type="line"/>
      <point x="1190" y="936" type="line"/>
      <point x="949" y="936" type="line"/>
      <point x="1045" y="857"/>
      <point x="1083" y="745"/>
      <point x="1083" y="622" type="curve" smooth="yes"/>
      <point x="1083" y="531"/>
      <point x="1061" y="437"/>
      <point x="1024" y="350" type="curve" smooth="yes"/>
      <point x="987" y="262"/>
      <point x="935" y="182"/>
      <point x="874" y="122" type="curve" smooth="yes"/>
      <point x="772" y="21"/>
      <point x="644" y="-29"/>
      <point x="491" y="-29" type="curve" smooth="yes"/>
    </contour>
    <contour>
      <point x="610" y="127"/>
      <point x="694" y="169"/>
      <point x="758" y="245" type="curve" smooth="yes"/>
      <point x="822" y="320"/>
      <point x="867" y="428"/>
      <point x="887" y="559" type="curve" smooth="yes"/>
      <point x="891" y="586"/>
      <point x="894" y="610"/>
      <point x="894" y="634" type="curve" smooth="yes"/>
      <point x="894" y="675"/>
      <point x="886" y="714"/>
      <point x="864" y="752" type="curve" smooth="yes"/>
      <point x="842" y="790"/>
      <point x="805" y="828"/>
      <point x="749" y="868" type="curve" smooth="yes"/>
      <point x="708" y="897"/>
      <point x="673" y="916"/>
      <point x="641" y="935" type="curve"/>
      <point x="552" y="928"/>
      <point x="483" y="898"/>
      <point x="431" y="836" type="curve" smooth="yes"/>
      <point x="378" y="774"/>
      <point x="342" y="683"/>
      <point x="318" y="559" type="curve" smooth="yes"/>
      <point x="306" y="496"/>
      <point x="300" y="439"/>
      <point x="300" y="390" type="curve" smooth="yes"/>
      <point x="300" y="215"/>
      <point x="371" y="127"/>
      <point x="514" y="127" type="curve" smooth="yes"/>
    </contour>
  </outline>
</glyph>
<glyph name="psi" format="1">
  <advance width="1233"/>
  <unicode hex="03C8"/>
  <note>
	psi
  </note>
  <outline>
    <contour>
      <point x="413" y="-25" type="line"/>
      <point x="330" y="-25"/>
      <point x="253" y="14"/>
      <point x="197" y="82" type="curve" smooth="yes"/>
      <point x="140" y="149"/>
      <point x="104" y="244"/>
      <point x="104" y="359" type="curve" smooth="yes"/>
      <point x="104" y="395"/>
      <point x="107" y="433"/>
      <point x="115" y="472" type="curve" smooth="yes"/>
      <point x="241" y="1120" type="line"/>
      <point x="426" y="1120" type="line"/>
      <point x="302" y="479" type="line" smooth="yes"/>
      <point x="295" y="440"/>
      <point x="291" y="407"/>
      <point x="291" y="376" type="curve" smooth="yes"/>
      <point x="291" y="317"/>
      <point x="306" y="267"/>
      <point x="336" y="226" type="curve" smooth="yes"/>
      <point x="367" y="183"/>
      <point x="410" y="153"/>
      <point x="445" y="140" type="curve"/>
      <point x="635" y="1120" type="line"/>
      <point x="818" y="1120" type="line"/>
      <point x="628" y="140" type="line"/>
      <point x="672" y="155"/>
      <point x="726" y="187"/>
      <point x="769" y="226" type="curve" smooth="yes"/>
      <point x="837" y="287"/>
      <point x="880" y="366"/>
      <point x="903" y="479" type="curve" smooth="yes"/>
      <point x="1027" y="1120" type="line"/>
      <point x="1212" y="1120" type="line"/>
      <point x="1086" y="472" type="line" smooth="yes"/>
      <point x="1058" y="328"/>
      <point x="983" y="204"/>
      <point x="892" y="116" type="curve" smooth="yes"/>
      <point x="800" y="28"/>
      <point x="692" y="-25"/>
      <point x="596" y="-25" type="curve"/>
      <point x="518" y="-426" type="line"/>
      <point x="335" y="-426" type="line"/>
    </contour>
  </outline>
</glyph>
<glyph name="uni03F4" format="1">
  <advance width="1233"/>
  <unicode hex="03F4"/>
  <note>
	uni03F4
  </note>
  <outline>
    <contour>
      <point x="205" y="-29"/>
      <point x="81" y="116"/>
      <point x="81" y="420" type="curve" smooth="yes"/>
      <point x="81" y="513"/>
      <point x="93" y="622"/>
      <point x="117" y="745" type="curve" smooth="yes"/>
      <point x="218" y="1266"/>
      <point x="431" y="1520"/>
      <point x="767" y="1520" type="curve" smooth="yes"/>
      <point x="1024" y="1520"/>
      <point x="1152" y="1369"/>
      <point x="1152" y="1068" type="curve" smooth="yes"/>
      <point x="1152" y="975"/>
      <point x="1140" y="867"/>
      <point x="1116" y="745" type="curve" smooth="yes"/>
      <point x="1015" y="225"/>
      <point x="802" y="-29"/>
      <point x="465" y="-29" type="curve" smooth="yes"/>
    </contour>
    <contour>
      <point x="928" y="881" type="line"/>
      <point x="939" y="956"/>
      <point x="945" y="1021"/>
      <point x="945" y="1080" type="curve" smooth="yes"/>
      <point x="945" y="1168"/>
      <point x="931" y="1237"/>
      <point x="898" y="1284" type="curve" smooth="yes"/>
      <point x="865" y="1331"/>
      <point x="812" y="1356"/>
      <point x="735" y="1356" type="curve" smooth="yes"/>
      <point x="632" y="1356"/>
      <point x="556" y="1312"/>
      <point x="496" y="1230" type="curve" smooth="yes"/>
      <point x="436" y="1148"/>
      <point x="393" y="1029"/>
      <point x="357" y="881" type="curve"/>
    </contour>
    <contour>
      <point x="600" y="135"/>
      <point x="680" y="179"/>
      <point x="744" y="273" type="curve" smooth="yes"/>
      <point x="808" y="367"/>
      <point x="858" y="511"/>
      <point x="898" y="711" type="curve"/>
      <point x="321" y="711" type="line"/>
      <point x="298" y="594"/>
      <point x="289" y="496"/>
      <point x="289" y="416" type="curve" smooth="yes"/>
      <point x="289" y="303"/>
      <point x="293" y="135"/>
      <point x="497" y="135" type="curve" smooth="yes"/>
    </contour>
  </outline>
</glyph>
<glyph name="uni0408" format="1">
  <advance width="1233"/>
  <unicode hex="0408"/>
  <note>
	uni0408
  </note>
  <outline>
    <contour>
      <point x="234" y="-29"/>
      <point x="108" y="2"/>
      <point x="-25" y="61" type="curve"/>
      <point x="20" y="297" type="line"/>
      <point x="124" y="184"/>
      <point x="245" y="135"/>
      <point x="386" y="135" type="curve" smooth="yes"/>
      <point x="479" y="135"/>
      <point x="546" y="157"/>
      <point x="595" y="212" type="curve" smooth="yes"/>
      <point x="644" y="267"/>
      <point x="675" y="355"/>
      <point x="702" y="487" type="curve" smooth="yes"/>
      <point x="866" y="1323" type="line"/>
      <point x="485" y="1323" type="line"/>
      <point x="518" y="1493" type="line"/>
      <point x="1102" y="1493" type="line"/>
      <point x="905" y="487" type="line" smooth="yes"/>
      <point x="868" y="299"/>
      <point x="815" y="170"/>
      <point x="732" y="88" type="curve" smooth="yes"/>
      <point x="648" y="6"/>
      <point x="536" y="-29"/>
      <point x="381" y="-29" type="curve" smooth="yes"/>
    </contour>
  </outline>
</glyph>
<glyph name="uni040F" format="1">
  <advance width="1233"/>
  <unicode hex="040F"/>
  <note>
	uni040F
  </note>
  <outline>
    <contour>
      <point x="397" y="0" type="line"/>
      <point x="3" y="0" type="line"/>
      <point x="293" y="1493" type="line"/>
      <point x="496" y="1493" type="line"/>
      <point x="239" y="170" type="line"/>
      <point x="792" y="170" type="line"/>
      <point x="1049" y="1493" type="line"/>
      <point x="1252" y="1493" type="line"/>
      <point x="962" y="0" type="line"/>
      <point x="568" y="0" type="line"/>
      <point x="506" y="-322" type="line"/>
      <point x="335" y="-322" type="line"/>
    </contour>
  </outline>
</glyph>
<glyph name="uni0411" format="1">
  <advance width="1233"/>
  <unicode hex="0411"/>
  <note>
	uni0411
  </note>
  <outline>
    <contour>
      <point x="311" y="1493" type="line"/>
      <point x="1213" y="1493" type="line"/>
      <point x="1181" y="1327" type="line"/>
      <point x="482" y="1327" type="line"/>
      <point x="394" y="877" type="line"/>
      <point x="629" y="877" type="line"/>
      <point x="876" y="866"/>
      <point x="1024" y="803"/>
      <point x="1069" y="671" type="curve" smooth="yes"/>
      <point x="1081" y="636"/>
      <point x="1087" y="593"/>
      <point x="1087" y="542" type="curve" smooth="yes"/>
      <point x="1087" y="470"/>
      <point x="1073" y="387"/>
      <point x="1040" y="308" type="curve" smooth="yes"/>
      <point x="1007" y="229"/>
      <point x="955" y="156"/>
      <point x="879" y="104" type="curve" smooth="yes"/>
      <point x="779" y="35"/>
      <point x="636" y="0"/>
      <point x="463" y="0" type="curve" smooth="yes"/>
      <point x="21" y="0" type="line"/>
    </contour>
    <contour>
      <point x="495" y="166" type="line" smooth="yes"/>
      <point x="612" y="166"/>
      <point x="698" y="186"/>
      <point x="758" y="228" type="curve" smooth="yes"/>
      <point x="818" y="270"/>
      <point x="853" y="335"/>
      <point x="872" y="430" type="curve" smooth="yes"/>
      <point x="878" y="460"/>
      <point x="881" y="488"/>
      <point x="881" y="513" type="curve" smooth="yes"/>
      <point x="881" y="653"/>
      <point x="792" y="713"/>
      <point x="601" y="713" type="curve" smooth="yes"/>
      <point x="362" y="713" type="line"/>
      <point x="256" y="166" type="line"/>
    </contour>
  </outline>
</glyph>
<glyph name="uni0421" format="1">
  <advance width="1233"/>
  <unicode hex="0421"/>
  <note>
	uni0421
  </note>
  <outline>
    <contour>
      <point x="107" y="322"/>
      <point x="152" y="190"/>
      <point x="234" y="102" type="curve" smooth="yes"/>
      <point x="316" y="14"/>
      <point x="437" y="-29"/>
      <point x="590" y="-29" type="curve" smooth="yes"/>
      <point x="709" y="-29"/>
      <point x="825" y="-2"/>
      <point x="936" y="53" type="curve"/>
      <point x="975" y="260" type="line"/>
      <point x="858" y="179"/>
      <point x="735" y="135"/>
      <point x="618" y="135" type="curve" smooth="yes"/>
      <point x="425" y="135"/>
      <point x="318" y="253"/>
      <point x="318" y="508" type="curve" smooth="yes"/>
      <point x="318" y="628"/>
      <point x="342" y="759"/>
      <point x="383" y="880" type="curve" smooth="yes"/>
      <point x="423" y="1000"/>
      <point x="481" y="1111"/>
      <point x="549" y="1192" type="curve" smooth="yes"/>
      <point x="640" y="1300"/>
      <point x="747" y="1356"/>
      <point x="876" y="1356" type="curve" smooth="yes"/>
      <point x="983" y="1356"/>
      <point x="1079" y="1314"/>
      <point x="1163" y="1231" type="curve"/>
      <point x="1204" y="1437" type="line"/>
      <point x="1204" y="1827" type="line" smooth="yes"/>
      <point x="1204" y="1833"/>
      <point x="1200" y="1837"/>
      <point x="1194" y="1837" type="curve" smooth="yes"/>
      <point x="1007" y="1837" type="line" smooth="yes"/>
      <point x="1001" y="1837"/>
      <point x="997" y="1833"/>
      <point x="997" y="1827" type="curve" smooth="yes"/>
      <point x="997" y="1527" type="line" smooth="yes"/>
      <point x="997" y="1516"/>
      <point x="991" y="1512"/>
      <point x="981" y="1513" type="curve" smooth="yes"/>
      <point x="950" y="1518"/>
      <point x="918" y="1520"/>
      <point x="884" y="1520" type="curve" smooth="yes"/>
      <point x="676" y="1520"/>
      <point x="497" y="1437"/>
      <point x="361" y="1266" type="curve" smooth="yes"/>
      <point x="286" y="1171"/>
      <point x="222" y="1049"/>
      <point x="178" y="915" type="curve" smooth="yes"/>
      <point x="133" y="781"/>
      <point x="107" y="635"/>
      <point x="107" y="499" type="curve" smooth="yes"/>
    </contour>
  </outline>
</glyph>
<glyph name="uni0426" format="1">
  <advance width="1233"/>
  <unicode hex="0426"/>
  <note>
	uni0426
  </note>
  <outline>
    <contour>
      <point x="889" y="0" type="line"/>
      <point x="-34" y="0" type="line"/>
      <point x="256" y="1493" type="line"/>
      <point x="459" y="1493" type="line"/>
      <point x="202" y="170" type="line"/>
      <point x="755" y="170" type="line"/>
      <point x="1012" y="1493" type="line"/>
      <point x="1215" y="1493" type="line"/>
      <point x="958" y="170" type="line"/>
      <point x="1092" y="170" type="line"/>
      <point x="997" y="-322" type="line"/>
      <point x="827" y="-322" type="line"/>
    </contour>
  </outline>
</glyph>
<glyph name="uni043A" format="1">
  <advance width="1233"/>
  <unicode hex="043A"/>
  <note>
	uni043A
  </note>
  <outline>
    <contour>
      <point x="325" y="1120" type="line"/>
      <point x="515" y="1120" type="line"/>
      <point x="424" y="655" type="line"/>
      <point x="998" y="1120" type="line"/>
      <point x="1222" y="1120" type="line"/>
      <point x="699" y="698" type="line"/>
      <point x="1073" y="0" type="line"/>
      <point x="848" y="0" type="line"/>
      <point x="546" y="578" type="line"/>
      <point x="384" y="449" type="line"/>
      <point x="297" y="0" type="line"/>
      <point x="107" y="0" type="line"/>
    </contour>
  </outline>
</glyph>
<glyph name="uni0440" format="1">
  <advance width="1233"/>
  <unicode hex="0440"/>
  <note>
	uni0440
  </note>
  <outline>
    <contour>
      <point x="299" y="1120" type="line"/>
      <point x="463" y="1120" type="line"/>
      <point x="455" y="977" type="line"/>
      <point x="539" y="1089"/>
      <point x="654" y="1147"/>
      <point x="791" y="1147" type="curve" smooth="yes"/>
      <point x="898" y="1147"/>
      <point x="982" y="1111"/>
      <point x="1040" y="1043" type="curve" smooth="yes"/>
      <point x="1098" y="974"/>
      <point x="1128" y="873"/>
      <point x="1128" y="742" type="curve" smooth="yes"/>
      <point x="1128" y="654"/>
      <point x="1115" y="558"/>
      <point x="1089" y="466" type="curve" smooth="yes"/>
      <point x="1063" y="373"/>
      <point x="1026" y="284"/>
      <point x="979" y="211" type="curve" smooth="yes"/>
      <point x="883" y="58"/>
      <point x="746" y="-29"/>
      <point x="578" y="-29" type="curve" smooth="yes"/>
      <point x="445" y="-29"/>
      <point x="353" y="25"/>
      <point x="293" y="141" type="curve"/>
      <point x="182" y="-426" type="line"/>
      <point x="-2" y="-426" type="line"/>
    </contour>
    <contour>
      <point x="683" y="127"/>
      <point x="765" y="186"/>
      <point x="829" y="302" type="curve" smooth="yes"/>
      <point x="861" y="362"/>
      <point x="888" y="434"/>
      <point x="906" y="509" type="curve" smooth="yes"/>
      <point x="924" y="584"/>
      <point x="934" y="661"/>
      <point x="934" y="730" type="curve" smooth="yes"/>
      <point x="934" y="909"/>
      <point x="868" y="991"/>
      <point x="729" y="991" type="curve" smooth="yes"/>
      <point x="606" y="991"/>
      <point x="523" y="925"/>
      <point x="459" y="812" type="curve" smooth="yes"/>
      <point x="427" y="753"/>
      <point x="401" y="683"/>
      <point x="383" y="611" type="curve" smooth="yes"/>
      <point x="365" y="538"/>
      <point x="354" y="464"/>
      <point x="354" y="397" type="curve" smooth="yes"/>
      <point x="354" y="212"/>
      <point x="431" y="127"/>
      <point x="568" y="127" type="curve" smooth="yes"/>
    </contour>
  </outline>
</glyph>
<glyph name="uni0441" format="1">
  <advance width="1233"/>
  <unicode hex="0441"/>
  <note>
	uni0441
  </note>
  <outline>
    <contour>
      <point x="136" y="121"/>
      <point x="291" y="-29"/>
      <point x="586" y="-29" type="curve" smooth="yes"/>
      <point x="713" y="-29"/>
      <point x="823" y="-1"/>
      <point x="920" y="51" type="curve"/>
      <point x="959" y="252" type="line"/>
      <point x="847" y="168"/>
      <point x="730" y="127"/>
      <point x="607" y="127" type="curve" smooth="yes"/>
      <point x="420" y="127"/>
      <point x="330" y="219"/>
      <point x="330" y="418" type="curve" smooth="yes"/>
      <point x="330" y="486"/>
      <point x="341" y="558"/>
      <point x="362" y="626" type="curve" smooth="yes"/>
      <point x="382" y="694"/>
      <point x="412" y="758"/>
      <point x="449" y="813" type="curve" smooth="yes"/>
      <point x="529" y="929"/>
      <point x="635" y="991"/>
      <point x="788" y="991" type="curve" smooth="yes"/>
      <point x="903" y="991"/>
      <point x="992" y="956"/>
      <point x="1080" y="879" type="curve"/>
      <point x="1117" y="1061" type="line"/>
      <point x="1117" y="1401" type="line" smooth="yes"/>
      <point x="1117" y="1407"/>
      <point x="1113" y="1411"/>
      <point x="1107" y="1411" type="curve" smooth="yes"/>
      <point x="945" y="1411" type="line" smooth="yes"/>
      <point x="939" y="1411"/>
      <point x="935" y="1407"/>
      <point x="935" y="1401" type="curve" smooth="yes"/>
      <point x="935" y="1147" type="line" smooth="yes"/>
      <point x="935" y="1137"/>
      <point x="929" y="1132"/>
      <point x="919" y="1134" type="curve" smooth="yes"/>
      <point x="875" y="1143"/>
      <point x="830" y="1147"/>
      <point x="785" y="1147" type="curve" smooth="yes"/>
      <point x="605" y="1147"/>
      <point x="451" y="1079"/>
      <point x="334" y="950" type="curve" smooth="yes"/>
      <point x="271" y="881"/>
      <point x="223" y="797"/>
      <point x="189" y="705" type="curve" smooth="yes"/>
      <point x="155" y="613"/>
      <point x="136" y="514"/>
      <point x="136" y="414" type="curve" smooth="yes"/>
    </contour>
  </outline>
</glyph>
<glyph name="uni0447" format="1">
  <advance width="1233"/>
  <unicode hex="0447"/>
  <note>
	uni0447
  </note>
  <outline>
    <contour>
      <point x="811" y="466" type="line"/>
      <point x="806" y="464"/>
      <point x="794" y="460"/>
      <point x="776" y="453" type="curve" smooth="yes"/>
      <point x="739" y="439"/>
      <point x="682" y="423"/>
      <point x="610" y="411" type="curve" smooth="yes"/>
      <point x="573" y="405"/>
      <point x="534" y="402"/>
      <point x="492" y="402" type="curve" smooth="yes"/>
      <point x="379" y="402"/>
      <point x="301" y="427"/>
      <point x="253" y="471" type="curve" smooth="yes"/>
      <point x="204" y="514"/>
      <point x="183" y="575"/>
      <point x="183" y="647" type="curve" smooth="yes"/>
      <point x="183" y="680"/>
      <point x="187" y="716"/>
      <point x="195" y="755" type="curve" smooth="yes"/>
      <point x="266" y="1122" type="line"/>
      <point x="450" y="1122" type="line"/>
      <point x="379" y="755" type="line" smooth="yes"/>
      <point x="375" y="735"/>
      <point x="373" y="716"/>
      <point x="373" y="699" type="curve" smooth="yes"/>
      <point x="373" y="595"/>
      <point x="440" y="562"/>
      <point x="587" y="562" type="curve" smooth="yes"/>
      <point x="667" y="562"/>
      <point x="746" y="572"/>
      <point x="841" y="621" type="curve"/>
      <point x="938" y="1122" type="line"/>
      <point x="1122" y="1122" type="line"/>
      <point x="904" y="0" type="line"/>
      <point x="720" y="0" type="line"/>
    </contour>
  </outline>
</glyph>
<glyph name="uni044E" format="1">
  <advance width="1233"/>
  <unicode hex="044E"/>
  <note>
	uni044E
  </note>
  <outline>
    <contour>
      <point x="600" y="-29"/>
      <point x="529" y="18"/>
      <point x="482" y="90" type="curve" smooth="yes"/>
      <point x="434" y="162"/>
      <point x="413" y="259"/>
      <point x="413" y="362" type="curve" smooth="yes"/>
      <point x="413" y="401"/>
      <point x="416" y="441"/>
      <point x="421" y="484" type="curve"/>
      <point x="279" y="484" type="line"/>
      <point x="185" y="0" type="line"/>
      <point x="1" y="0" type="line"/>
      <point x="219" y="1120" type="line"/>
      <point x="403" y="1120" type="line"/>
      <point x="309" y="634" type="line"/>
      <point x="451" y="634" type="line"/>
      <point x="495" y="805"/>
      <point x="564" y="934"/>
      <point x="648" y="1019" type="curve" smooth="yes"/>
      <point x="731" y="1104"/>
      <point x="829" y="1147"/>
      <point x="932" y="1147" type="curve" smooth="yes"/>
      <point x="1033" y="1147"/>
      <point x="1106" y="1106"/>
      <point x="1154" y="1038" type="curve" smooth="yes"/>
      <point x="1201" y="970"/>
      <point x="1223" y="876"/>
      <point x="1223" y="769" type="curve" smooth="yes"/>
      <point x="1223" y="724"/>
      <point x="1219" y="657"/>
      <point x="1207" y="581" type="curve" smooth="yes"/>
      <point x="1194" y="505"/>
      <point x="1173" y="421"/>
      <point x="1140" y="339" type="curve" smooth="yes"/>
      <point x="1107" y="257"/>
      <point x="1061" y="177"/>
      <point x="998" y="112" type="curve" smooth="yes"/>
      <point x="910" y="21"/>
      <point x="805" y="-29"/>
      <point x="700" y="-29" type="curve" smooth="yes"/>
    </contour>
    <contour>
      <point x="788" y="127"/>
      <point x="844" y="169"/>
      <point x="892" y="246" type="curve" smooth="yes"/>
      <point x="940" y="323"/>
      <point x="980" y="435"/>
      <point x="1008" y="575" type="curve" smooth="yes"/>
      <point x="1022" y="644"/>
      <point x="1029" y="703"/>
      <point x="1029" y="754" type="curve" smooth="yes"/>
      <point x="1029" y="805"/>
      <point x="1022" y="863"/>
      <point x="1003" y="910" type="curve" smooth="yes"/>
      <point x="983" y="957"/>
      <point x="953" y="990"/>
      <point x="905" y="990" type="curve" smooth="yes"/>
      <point x="853" y="990"/>
      <point x="798" y="949"/>
      <point x="748" y="874" type="curve" smooth="yes"/>
      <point x="698" y="799"/>
      <point x="655" y="689"/>
      <point x="627" y="553" type="curve" smooth="yes"/>
      <point x="612" y="478"/>
      <point x="606" y="417"/>
      <point x="606" y="365" type="curve" smooth="yes"/>
      <point x="606" y="322"/>
      <point x="610" y="262"/>
      <point x="628" y="214" type="curve" smooth="yes"/>
      <point x="646" y="165"/>
      <point x="676" y="127"/>
      <point x="731" y="127" type="curve" smooth="yes"/>
    </contour>
  </outline>
</glyph>
<glyph name="uni0454" format="1">
  <advance width="1233"/>
  <unicode hex="0454"/>
  <note>
	uni0454
  </note>
  <outline>
    <contour>
      <point x="447" y="-29"/>
      <point x="335" y="9"/>
      <point x="259" y="82" type="curve" smooth="yes"/>
      <point x="182" y="154"/>
      <point x="139" y="261"/>
      <point x="139" y="400" type="curve" smooth="yes"/>
      <point x="139" y="501"/>
      <point x="162" y="664"/>
      <point x="243" y="810" type="curve" smooth="yes"/>
      <point x="323" y="956"/>
      <point x="439" y="1056"/>
      <point x="584" y="1108" type="curve" smooth="yes"/>
      <point x="656" y="1134"/>
      <point x="734" y="1147"/>
      <point x="817" y="1147" type="curve" smooth="yes"/>
      <point x="926" y="1147"/>
      <point x="1019" y="1125"/>
      <point x="1119" y="1061" type="curve"/>
      <point x="1081" y="868" type="line"/>
      <point x="1000" y="957"/>
      <point x="911" y="991"/>
      <point x="796" y="991" type="curve" smooth="yes"/>
      <point x="675" y="991"/>
      <point x="584" y="952"/>
      <point x="517" y="892" type="curve" smooth="yes"/>
      <point x="449" y="831"/>
      <point x="404" y="748"/>
      <point x="375" y="659" type="curve"/>
      <point x="912" y="660" type="line"/>
      <point x="884" y="516" type="line"/>
      <point x="342" y="516" type="line"/>
      <point x="337" y="483"/>
      <point x="335" y="452"/>
      <point x="335" y="421" type="curve" smooth="yes"/>
      <point x="335" y="330"/>
      <point x="357" y="258"/>
      <point x="405" y="207" type="curve" smooth="yes"/>
      <point x="453" y="155"/>
      <point x="526" y="127"/>
      <point x="629" y="127" type="curve" smooth="yes"/>
      <point x="749" y="127"/>
      <point x="858" y="164"/>
      <point x="961" y="248" type="curve"/>
      <point x="923" y="57" type="line"/>
      <point x="812" y="0"/>
      <point x="709" y="-29"/>
      <point x="586" y="-29" type="curve" smooth="yes"/>
    </contour>
  </outline>
</glyph>
<glyph name="uni045E" format="1">
  <advance width="1233"/>
  <unicode hex="045E"/>
  <note>
	uni045E
  </note>
  <outline>
    <contour>
      <point x="598" y="1261"/>
      <point x="499" y="1350"/>
      <point x="499" y="1507" type="curve" smooth="yes"/>
      <point x="499" y="1530"/>
      <point x="499" y="1537"/>
      <point x="502" y="1548" type="curve"/>
      <point x="622" y="1548" type="line"/>
      <point x="622" y="1531" type="line" smooth="yes"/>
      <point x="622" y="1443"/>
      <point x="682" y="1398"/>
      <point x="791" y="1398" type="curve" smooth="yes"/>
      <point x="904" y="1398"/>
      <point x="970" y="1448"/>
      <point x="1009" y="1548" type="curve"/>
      <point x="1128" y="1548" type="line"/>
      <point x="1084" y="1356"/>
      <point x="962" y="1261"/>
      <point x="777" y="1261" type="curve" smooth="yes"/>
    </contour>
    <contour>
      <point x="20" y="-272" type="line"/>
      <point x="128" y="-272" type="line" smooth="yes"/>
      <point x="184" y="-272"/>
      <point x="230" y="-256"/>
      <point x="271" y="-222" type="curve" smooth="yes"/>
      <point x="312" y="-188"/>
      <point x="350" y="-137"/>
      <point x="386" y="-66" type="curve" smooth="yes"/>
      <point x="429" y="18" type="line"/>
      <point x="212" y="1120" type="line"/>
      <point x="395" y="1120" type="line"/>
      <point x="567" y="258" type="line"/>
      <point x="1050" y="1120" type="line"/>
      <point x="1255" y="1120" type="line"/>
      <point x="816" y="360" type="line" smooth="yes"/>
      <point x="799" y="331"/>
      <point x="783" y="303"/>
      <point x="767" y="274" type="curve" smooth="yes"/>
      <point x="734" y="217"/>
      <point x="704" y="165"/>
      <point x="680" y="123" type="curve" smooth="yes"/>
      <point x="668" y="102"/>
      <point x="658" y="85"/>
      <point x="651" y="72" type="curve" smooth="yes"/>
      <point x="546" y="-112"/>
      <point x="483" y="-220"/>
      <point x="442" y="-276" type="curve" smooth="yes"/>
      <point x="362" y="-381"/>
      <point x="260" y="-426"/>
      <point x="139" y="-426" type="curve" smooth="yes"/>
      <point x="-9" y="-426" type="line"/>
    </contour>
  </outline>
</glyph>
<glyph name="uni0462" format="1">
  <advance width="1233"/>
  <unicode hex="0462"/>
  <note>
	uni0462
  </note>
  <outline>
    <contour>
      <point x="363" y="1105" type="line"/>
      <point x="102" y="1105" type="line"/>
      <point x="134" y="1269" type="line"/>
      <point x="395" y="1269" type="line"/>
      <point x="438" y="1493" type="line"/>
      <point x="640" y="1493" type="line"/>
      <point x="597" y="1269" type="line"/>
      <point x="966" y="1269" type="line"/>
      <point x="934" y="1105" type="line"/>
      <point x="565" y="1105" type="line"/>
      <point x="523" y="893" type="line"/>
      <point x="661" y="893" type="line" smooth="yes"/>
      <point x="952" y="893"/>
      <point x="1095" y="778"/>
      <point x="1095" y="563" type="curve" smooth="yes"/>
      <point x="1095" y="527"/>
      <point x="1091" y="488"/>
      <point x="1083" y="446" type="curve" smooth="yes"/>
      <point x="1054" y="297"/>
      <point x="986" y="185"/>
      <point x="886" y="111" type="curve" smooth="yes"/>
      <point x="785" y="37"/>
      <point x="651" y="0"/>
      <point x="488" y="0" type="curve" smooth="yes"/>
      <point x="148" y="0" type="line"/>
    </contour>
    <contour>
      <point x="520" y="166" type="line" smooth="yes"/>
      <point x="612" y="166"/>
      <point x="691" y="191"/>
      <point x="752" y="239" type="curve" smooth="yes"/>
      <point x="812" y="286"/>
      <point x="855" y="355"/>
      <point x="872" y="446" type="curve" smooth="yes"/>
      <point x="877" y="469"/>
      <point x="879" y="492"/>
      <point x="879" y="515" type="curve" smooth="yes"/>
      <point x="879" y="652"/>
      <point x="789" y="727"/>
      <point x="629" y="727" type="curve" smooth="yes"/>
      <point x="491" y="727" type="line"/>
      <point x="382" y="166" type="line"/>
    </contour>
  </outline>
</glyph>
<glyph name="uni0495" format="1">
  <advance width="1233"/>
  <unicode hex="0495"/>
  <note>
	uni0495
  </note>
  <outline>
    <contour>
      <point x="378" y="-270" type="line"/>
      <point x="550" y="-270" type="line" smooth="yes"/>
      <point x="626" y="-270"/>
      <point x="675" y="-256"/>
      <point x="708" y="-217" type="curve" smooth="yes"/>
      <point x="741" y="-178"/>
      <point x="760" y="-116"/>
      <point x="779" y="-20" type="curve" smooth="yes"/>
      <point x="831" y="244" type="line" smooth="yes"/>
      <point x="842" y="300"/>
      <point x="848" y="341"/>
      <point x="848" y="376" type="curve" smooth="yes"/>
      <point x="848" y="427"/>
      <point x="834" y="454"/>
      <point x="803" y="470" type="curve" smooth="yes"/>
      <point x="772" y="485"/>
      <point x="725" y="487"/>
      <point x="657" y="487" type="curve" smooth="yes"/>
      <point x="397" y="487" type="line"/>
      <point x="302" y="0" type="line"/>
      <point x="118" y="0" type="line"/>
      <point x="336" y="1120" type="line"/>
      <point x="1088" y="1120" type="line"/>
      <point x="1052" y="936" type="line"/>
      <point x="484" y="936" type="line"/>
      <point x="425" y="631" type="line"/>
      <point x="675" y="631" type="line" smooth="yes"/>
      <point x="811" y="631"/>
      <point x="901" y="619"/>
      <point x="958" y="587" type="curve" smooth="yes"/>
      <point x="1014" y="555"/>
      <point x="1037" y="503"/>
      <point x="1037" y="423" type="curve" smooth="yes"/>
      <point x="1037" y="375"/>
      <point x="1029" y="318"/>
      <point x="1016" y="250" type="curve" smooth="yes"/>
      <point x="963" y="-20" type="line" smooth="yes"/>
      <point x="935" y="-167"/>
      <point x="887" y="-268"/>
      <point x="819" y="-332" type="curve" smooth="yes"/>
      <point x="750" y="-397"/>
      <point x="657" y="-426"/>
      <point x="540" y="-426" type="curve" smooth="yes"/>
      <point x="347" y="-426" type="line"/>
    </contour>
  </outline>
</glyph>
<glyph name="uni04A2" format="1">
  <advance width="1233"/>
  <unicode hex="04A2"/>
  <note>
	uni04A2
  </note>
  <outline>
    <contour>
      <point x="940" y="0" type="line"/>
      <point x="738" y="0" type="line"/>
      <point x="877" y="711" type="line"/>
      <point x="322" y="711" type="line"/>
      <point x="185" y="0" type="line"/>
      <point x="-18" y="0" type="line"/>
      <point x="273" y="1493" type="line"/>
      <point x="475" y="1493" type="line"/>
      <point x="357" y="881" type="line"/>
      <point x="910" y="881" type="line"/>
      <point x="1028" y="1493" type="line"/>
      <point x="1231" y="1493" type="line"/>
      <point x="973" y="170" type="line"/>
      <point x="1176" y="170" type="line"/>
      <point x="1082" y="-312" type="line"/>
      <point x="879" y="-312" type="line"/>
    </contour>
  </outline>
</glyph>
<glyph name="uni04C3" format="1">
  <advance width="1233"/>
  <unicode hex="04C3"/>
  <note>
	uni04C3
  </note>
  <outline>
    <contour>
      <point x="375" y="-240" type="line"/>
      <point x="437" y="-240" type="line" smooth="yes"/>
      <point x="529" y="-240"/>
      <point x="594" y="-218"/>
      <point x="643" y="-164" type="curve" smooth="yes"/>
      <point x="691" y="-110"/>
      <point x="724" y="-25"/>
      <point x="749" y="104" type="curve" smooth="yes"/>
      <point x="806" y="394" type="line" smooth="yes"/>
      <point x="814" y="435"/>
      <point x="818" y="472"/>
      <point x="818" y="506" type="curve" smooth="yes"/>
      <point x="818" y="643"/>
      <point x="752" y="711"/>
      <point x="619" y="711" type="curve" smooth="yes"/>
      <point x="468" y="711" type="line"/>
      <point x="325" y="584" type="line"/>
      <point x="211" y="0" type="line"/>
      <point x="8" y="0" type="line"/>
      <point x="298" y="1493" type="line"/>
      <point x="501" y="1493" type="line"/>
      <point x="372" y="829" type="line"/>
      <point x="1132" y="1493" type="line"/>
      <point x="1369" y="1493" type="line"/>
      <point x="669" y="881" type="line"/>
      <point x="693" y="881" type="line" smooth="yes"/>
      <point x="794" y="881"/>
      <point x="879" y="854"/>
      <point x="937" y="799" type="curve" smooth="yes"/>
      <point x="995" y="744"/>
      <point x="1027" y="662"/>
      <point x="1027" y="550" type="curve" smooth="yes"/>
      <point x="1027" y="507"/>
      <point x="1022" y="461"/>
      <point x="1012" y="410" type="curve" smooth="yes"/>
      <point x="952" y="104" type="line" smooth="yes"/>
      <point x="916" y="-79"/>
      <point x="858" y="-206"/>
      <point x="771" y="-289" type="curve" smooth="yes"/>
      <point x="683" y="-373"/>
      <point x="567" y="-410"/>
      <point x="418" y="-410" type="curve" smooth="yes"/>
      <point x="342" y="-410" type="line"/>
    </contour>
  </outline>
</glyph>
<glyph name="uni04C7" format="1">
  <advance width="1233"/>
  <unicode hex="04C7"/>
  <note>
	uni04C7
  </note>
  <outline>
    <contour>
      <point x="394" y="-240" type="line"/>
      <point x="456" y="-240" type="line" smooth="yes"/>
      <point x="549" y="-240"/>
      <point x="615" y="-216"/>
      <point x="664" y="-162" type="curve" smooth="yes"/>
      <point x="712" y="-108"/>
      <point x="744" y="-23"/>
      <point x="768" y="104" type="curve" smooth="yes"/>
      <point x="886" y="711" type="line"/>
      <point x="333" y="711" type="line"/>
      <point x="195" y="0" type="line"/>
      <point x="-8" y="0" type="line"/>
      <point x="282" y="1493" type="line"/>
      <point x="485" y="1493" type="line"/>
      <point x="366" y="881" type="line"/>
      <point x="919" y="881" type="line"/>
      <point x="1038" y="1493" type="line"/>
      <point x="1241" y="1493" type="line"/>
      <point x="971" y="104" type="line" smooth="yes"/>
      <point x="935" y="-80"/>
      <point x="877" y="-208"/>
      <point x="790" y="-291" type="curve" smooth="yes"/>
      <point x="702" y="-374"/>
      <point x="586" y="-410"/>
      <point x="437" y="-410" type="curve" smooth="yes"/>
      <point x="361" y="-410" type="line"/>
    </contour>
  </outline>
</glyph>
<glyph name="uni04D3" format="1">
  <advance width="1233"/>
  <unicode hex="04D3"/>
  <note>
	uni04D3
  </note>
  <outline>
    <contour>
      <point x="473" y="1350" type="line" smooth="yes"/>
      <point x="453" y="1350"/>
      <point x="442" y="1363"/>
      <point x="446" y="1383" type="curve" smooth="yes"/>
      <point x="474" y="1525" type="line" smooth="yes"/>
      <point x="477" y="1543"/>
      <point x="487" y="1552"/>
      <point x="506" y="1552" type="curve" smooth="yes"/>
      <point x="649" y="1552" type="line" smooth="yes"/>
      <point x="668" y="1552"/>
      <point x="677" y="1544"/>
      <point x="677" y="1527" type="curve" smooth="yes"/>
      <point x="677" y="1524"/>
      <point x="677" y="1521"/>
      <point x="676" y="1519" type="curve"/>
      <point x="648" y="1377" type="line" smooth="yes"/>
      <point x="645" y="1359"/>
      <point x="634" y="1350"/>
      <point x="616" y="1350" type="curve" smooth="yes"/>
    </contour>
    <contour>
      <point x="864" y="1350" type="line" smooth="yes"/>
      <point x="844" y="1350"/>
      <point x="833" y="1363"/>
      <point x="837" y="1383" type="curve" smooth="yes"/>
      <point x="865" y="1525" type="line" smooth="yes"/>
      <point x="868" y="1543"/>
      <point x="878" y="1552"/>
      <point x="897" y="1552" type="curve" smooth="yes"/>
      <point x="1040" y="1552" type="line" smooth="yes"/>
      <point x="1059" y="1552"/>
      <point x="1068" y="1544"/>
      <point x="1068" y="1527" type="curve" smooth="yes"/>
      <point x="1068" y="1524"/>
      <point x="1068" y="1521"/>
      <point x="1067" y="1519" type="curve"/>
      <point x="1039" y="1377" type="line" smooth="yes"/>
      <point x="1036" y="1359"/>
      <point x="1025" y="1350"/>
      <point x="1007" y="1350" type="curve" smooth="yes"/>
    </contour>
    <contour>
      <point x="304" y="-29"/>
      <point x="221" y="1"/>
      <point x="163" y="55" type="curve" smooth="yes"/>
      <point x="105" y="109"/>
      <point x="72" y="187"/>
      <point x="72" y="283" type="curve" smooth="yes"/>
      <point x="72" y="408"/>
      <point x="127" y="514"/>
      <point x="227" y="589" type="curve" smooth="yes"/>
      <point x="326" y="664"/>
      <point x="469" y="707"/>
      <point x="645" y="707" type="curve" smooth="yes"/>
      <point x="891" y="707" type="line"/>
      <point x="903" y="768" type="line"/>
      <point x="906" y="780"/>
      <point x="907" y="794"/>
      <point x="907" y="807" type="curve" smooth="yes"/>
      <point x="907" y="932"/>
      <point x="821" y="991"/>
      <point x="665" y="991" type="curve" smooth="yes"/>
      <point x="548" y="991"/>
      <point x="416" y="957"/>
      <point x="268" y="889" type="curve"/>
      <point x="303" y="1069" type="line"/>
      <point x="448" y="1121"/>
      <point x="574" y="1147"/>
      <point x="693" y="1147" type="curve" smooth="yes"/>
      <point x="817" y="1147"/>
      <point x="916" y="1117"/>
      <point x="984" y="1065" type="curve" smooth="yes"/>
      <point x="1051" y="1012"/>
      <point x="1087" y="935"/>
      <point x="1087" y="839" type="curve" smooth="yes"/>
      <point x="1087" y="794"/>
      <point x="1079" y="723"/>
      <point x="1063" y="639" type="curve" smooth="yes"/>
      <point x="938" y="0" type="line"/>
      <point x="774" y="0" type="line"/>
      <point x="786" y="166" type="line"/>
      <point x="690" y="42"/>
      <point x="561" y="-29"/>
      <point x="404" y="-29" type="curve" smooth="yes"/>
    </contour>
    <contour>
      <point x="550" y="125"/>
      <point x="637" y="161"/>
      <point x="707" y="229" type="curve" smooth="yes"/>
      <point x="777" y="296"/>
      <point x="831" y="395"/>
      <point x="856" y="522" type="curve" smooth="yes"/>
      <point x="864" y="563" type="line"/>
      <point x="692" y="563" type="line" smooth="yes"/>
      <point x="617" y="563"/>
      <point x="562" y="561"/>
      <point x="519" y="556" type="curve" smooth="yes"/>
      <point x="475" y="551"/>
      <point x="442" y="542"/>
      <point x="414" y="530" type="curve" smooth="yes"/>
      <point x="323" y="491"/>
      <point x="264" y="411"/>
      <point x="264" y="307" type="curve" smooth="yes"/>
      <point x="264" y="195"/>
      <point x="334" y="125"/>
      <point x="461" y="125" type="curve" smooth="yes"/>
    </contour>
  </outline>
</glyph>
<glyph name="uni04DE" format="1">
  <advance width="1233"/>
  <unicode hex="04DE"/>
  <note>
	uni04DE
  </note>
  <outline>
    <contour>
      <point x="485" y="1647" type="line" smooth="yes"/>
      <point x="465" y="1647"/>
      <point x="454" y="1660"/>
      <point x="458" y="1680" type="curve" smooth="yes"/>
      <point x="486" y="1823" type="line" smooth="yes"/>
      <point x="489" y="1841"/>
      <point x="499" y="1850"/>
      <point x="518" y="1850" type="curve" smooth="yes"/>
      <point x="662" y="1850" type="line" smooth="yes"/>
      <point x="680" y="1850"/>
      <point x="689" y="1842"/>
      <point x="689" y="1826" type="curve" smooth="yes"/>
      <point x="689" y="1822"/>
      <point x="689" y="1819"/>
      <point x="688" y="1817" type="curve"/>
      <point x="659" y="1674" type="line" smooth="yes"/>
      <point x="655" y="1656"/>
      <point x="644" y="1647"/>
      <point x="627" y="1647" type="curve" smooth="yes"/>
    </contour>
    <contour>
      <point x="876" y="1647" type="line" smooth="yes"/>
      <point x="856" y="1647"/>
      <point x="845" y="1660"/>
      <point x="849" y="1680" type="curve" smooth="yes"/>
      <point x="877" y="1823" type="line" smooth="yes"/>
      <point x="880" y="1841"/>
      <point x="890" y="1850"/>
      <point x="909" y="1850" type="curve" smooth="yes"/>
      <point x="1052" y="1850" type="line" smooth="yes"/>
      <point x="1072" y="1850"/>
      <point x="1083" y="1837"/>
      <point x="1079" y="1817" type="curve" smooth="yes"/>
      <point x="1051" y="1674" type="line" smooth="yes"/>
      <point x="1048" y="1656"/>
      <point x="1037" y="1647"/>
      <point x="1019" y="1647" type="curve" smooth="yes"/>
    </contour>
    <contour>
      <point x="255" y="-29"/>
      <point x="111" y="-6"/>
      <point x="-18" y="45" type="curve"/>
      <point x="20" y="246" type="line"/>
      <point x="141" y="177"/>
      <point x="268" y="141"/>
      <point x="396" y="141" type="curve" smooth="yes"/>
      <point x="520" y="141"/>
      <point x="622" y="175"/>
      <point x="694" y="235" type="curve" smooth="yes"/>
      <point x="765" y="294"/>
      <point x="805" y="378"/>
      <point x="805" y="478" type="curve" smooth="yes"/>
      <point x="805" y="634"/>
      <point x="709" y="715"/>
      <point x="524" y="715" type="curve" smooth="yes"/>
      <point x="371" y="715" type="line"/>
      <point x="403" y="881" type="line"/>
      <point x="557" y="881" type="line" smooth="yes"/>
      <point x="662" y="881"/>
      <point x="748" y="908"/>
      <point x="808" y="956" type="curve" smooth="yes"/>
      <point x="868" y="1004"/>
      <point x="901" y="1072"/>
      <point x="901" y="1156" type="curve" smooth="yes"/>
      <point x="901" y="1289"/>
      <point x="821" y="1350"/>
      <point x="650" y="1350" type="curve" smooth="yes"/>
      <point x="538" y="1350"/>
      <point x="412" y="1323"/>
      <point x="260" y="1270" type="curve"/>
      <point x="297" y="1456" type="line"/>
      <point x="462" y="1500"/>
      <point x="588" y="1520"/>
      <point x="693" y="1520" type="curve" smooth="yes"/>
      <point x="821" y="1520"/>
      <point x="924" y="1490"/>
      <point x="994" y="1434" type="curve" smooth="yes"/>
      <point x="1064" y="1377"/>
      <point x="1102" y="1293"/>
      <point x="1102" y="1186" type="curve" smooth="yes"/>
      <point x="1102" y="1087"/>
      <point x="1070" y="1002"/>
      <point x="1011" y="935" type="curve" smooth="yes"/>
      <point x="952" y="867"/>
      <point x="867" y="820"/>
      <point x="762" y="799" type="curve"/>
      <point x="911" y="771"/>
      <point x="1004" y="667"/>
      <point x="1004" y="480" type="curve" smooth="yes"/>
      <point x="1004" y="329"/>
      <point x="943" y="203"/>
      <point x="835" y="113" type="curve" smooth="yes"/>
      <point x="727" y="23"/>
      <point x="571" y="-29"/>
      <point x="382" y="-29" type="curve" smooth="yes"/>
    </contour>
  </outline>
</glyph>
<glyph name="uni04E1" format="1">
  <advance width="1233"/>
  <unicode hex="04E1"/>
  <note>
	uni04E1
  </note>
  <outline>
    <contour>
      <point x="214" y="-436"/>
      <point x="93" y="-415"/>
      <point x="-51" y="-362" type="curve"/>
      <point x="-13" y="-167" type="line"/>
      <point x="87" y="-232"/>
      <point x="216" y="-266"/>
      <point x="361" y="-266" type="curve" smooth="yes"/>
      <point x="621" y="-266"/>
      <point x="772" y="-160"/>
      <point x="807" y="27" type="curve" smooth="yes"/>
      <point x="811" y="48"/>
      <point x="813" y="68"/>
      <point x="813" y="88" type="curve" smooth="yes"/>
      <point x="813" y="209"/>
      <point x="736" y="266"/>
      <point x="653" y="290" type="curve" smooth="yes"/>
      <point x="612" y="302"/>
      <point x="564" y="308"/>
      <point x="511" y="308" type="curve" smooth="yes"/>
      <point x="337" y="308" type="line"/>
      <point x="370" y="474" type="line"/>
      <point x="897" y="973" type="line"/>
      <point x="230" y="973" type="line"/>
      <point x="258" y="1120" type="line"/>
      <point x="1132" y="1120" type="line"/>
      <point x="1100" y="952" type="line"/>
      <point x="596" y="476" type="line"/>
      <point x="681" y="476"/>
      <point x="761" y="453"/>
      <point x="827" y="415" type="curve" smooth="yes"/>
      <point x="893" y="377"/>
      <point x="945" y="325"/>
      <point x="974" y="269" type="curve" smooth="yes"/>
      <point x="999" y="221"/>
      <point x="1014" y="162"/>
      <point x="1014" y="95" type="curve" smooth="yes"/>
      <point x="1014" y="26"/>
      <point x="998" y="-50"/>
      <point x="962" y="-121" type="curve" smooth="yes"/>
      <point x="926" y="-193"/>
      <point x="870" y="-260"/>
      <point x="790" y="-315" type="curve" smooth="yes"/>
      <point x="669" y="-399"/>
      <point x="515" y="-436"/>
      <point x="342" y="-436" type="curve" smooth="yes"/>
    </contour>
  </outline>
</glyph>
<glyph name="uni04E8" format="1">
  <advance width="1233"/>
  <unicode hex="04E8"/>
  <note>
	uni04E8
  </note>
  <outline>
    <contour>
      <point x="210" y="-29"/>
      <point x="81" y="116"/>
      <point x="81" y="421" type="curve" smooth="yes"/>
      <point x="81" y="514"/>
      <point x="93" y="622"/>
      <point x="117" y="745" type="curve" smooth="yes"/>
      <point x="217" y="1258"/>
      <point x="424" y="1520"/>
      <point x="767" y="1520" type="curve" smooth="yes"/>
      <point x="1028" y="1520"/>
      <point x="1152" y="1369"/>
      <point x="1152" y="1068" type="curve" smooth="yes"/>
      <point x="1152" y="975"/>
      <point x="1140" y="867"/>
      <point x="1116" y="745" type="curve" smooth="yes"/>
      <point x="1015" y="225"/>
      <point x="802" y="-29"/>
      <point x="465" y="-29" type="curve" smooth="yes"/>
    </contour>
    <contour>
      <point x="928" y="881" type="line"/>
      <point x="939" y="956"/>
      <point x="945" y="1021"/>
      <point x="945" y="1080" type="curve" smooth="yes"/>
      <point x="945" y="1168"/>
      <point x="931" y="1237"/>
      <point x="898" y="1284" type="curve" smooth="yes"/>
      <point x="865" y="1331"/>
      <point x="812" y="1356"/>
      <point x="735" y="1356" type="curve" smooth="yes"/>
      <point x="632" y="1356"/>
      <point x="556" y="1312"/>
      <point x="496" y="1230" type="curve" smooth="yes"/>
      <point x="436" y="1148"/>
      <point x="393" y="1029"/>
      <point x="357" y="881" type="curve"/>
    </contour>
    <contour>
      <point x="602" y="135"/>
      <point x="682" y="181"/>
      <point x="746" y="276" type="curve" smooth="yes"/>
      <point x="810" y="371"/>
      <point x="858" y="515"/>
      <point x="898" y="711" type="curve"/>
      <point x="321" y="711" type="line"/>
      <point x="298" y="594"/>
      <point x="289" y="495"/>
      <point x="289" y="415" type="curve" smooth="yes"/>
      <point x="289" y="303"/>
      <point x="291" y="135"/>
      <point x="499" y="135" type="curve" smooth="yes"/>
    </contour>
  </outline>
</glyph>
<glyph name="uni04ED" format="1">
  <advance width="1233"/>
  <unicode hex="04ED"/>
  <note>
	uni04ED
  </note>
  <outline>
    <contour>
      <point x="469" y="1350" type="line" smooth="yes"/>
      <point x="449" y="1350"/>
      <point x="438" y="1363"/>
      <point x="442" y="1383" type="curve" smooth="yes"/>
      <point x="470" y="1525" type="line" smooth="yes"/>
      <point x="473" y="1543"/>
      <point x="483" y="1552"/>
      <point x="502" y="1552" type="curve" smooth="yes"/>
      <point x="645" y="1552" type="line" smooth="yes"/>
      <point x="664" y="1552"/>
      <point x="673" y="1544"/>
      <point x="673" y="1527" type="curve" smooth="yes"/>
      <point x="673" y="1524"/>
      <point x="673" y="1521"/>
      <point x="672" y="1519" type="curve"/>
      <point x="644" y="1377" type="line" smooth="yes"/>
      <point x="641" y="1359"/>
      <point x="630" y="1350"/>
      <point x="612" y="1350" type="curve" smooth="yes"/>
    </contour>
    <contour>
      <point x="860" y="1350" type="line" smooth="yes"/>
      <point x="840" y="1350"/>
      <point x="829" y="1363"/>
      <point x="833" y="1383" type="curve" smooth="yes"/>
      <point x="861" y="1525" type="line" smooth="yes"/>
      <point x="864" y="1543"/>
      <point x="874" y="1552"/>
      <point x="893" y="1552" type="curve" smooth="yes"/>
      <point x="1036" y="1552" type="line" smooth="yes"/>
      <point x="1055" y="1552"/>
      <point x="1064" y="1544"/>
      <point x="1064" y="1527" type="curve" smooth="yes"/>
      <point x="1064" y="1524"/>
      <point x="1064" y="1521"/>
      <point x="1063" y="1519" type="curve"/>
      <point x="1035" y="1377" type="line" smooth="yes"/>
      <point x="1032" y="1359"/>
      <point x="1021" y="1350"/>
      <point x="1003" y="1350" type="curve" smooth="yes"/>
    </contour>
    <contour>
      <point x="293" y="-29"/>
      <point x="201" y="0"/>
      <point x="112" y="57" type="curve"/>
      <point x="150" y="248" type="line"/>
      <point x="219" y="167"/>
      <point x="313" y="127"/>
      <point x="433" y="127" type="curve" smooth="yes"/>
      <point x="550" y="127"/>
      <point x="645" y="164"/>
      <point x="718" y="232" type="curve" smooth="yes"/>
      <point x="791" y="299"/>
      <point x="842" y="396"/>
      <point x="873" y="516" type="curve"/>
      <point x="331" y="516" type="line"/>
      <point x="359" y="660" type="line"/>
      <point x="896" y="660" type="line"/>
      <point x="897" y="667"/>
      <point x="897" y="673"/>
      <point x="897" y="679" type="curve" smooth="yes"/>
      <point x="897" y="685"/>
      <point x="897" y="691"/>
      <point x="897" y="697" type="curve" smooth="yes"/>
      <point x="897" y="770"/>
      <point x="882" y="844"/>
      <point x="838" y="900" type="curve" smooth="yes"/>
      <point x="794" y="955"/>
      <point x="722" y="991"/>
      <point x="609" y="991" type="curve" smooth="yes"/>
      <point x="488" y="991"/>
      <point x="378" y="951"/>
      <point x="270" y="868" type="curve"/>
      <point x="308" y="1061" type="line"/>
      <point x="364" y="1089"/>
      <point x="417" y="1110"/>
      <point x="473" y="1125" type="curve" smooth="yes"/>
      <point x="528" y="1140"/>
      <point x="584" y="1147"/>
      <point x="647" y="1147" type="curve" smooth="yes"/>
      <point x="812" y="1147"/>
      <point x="925" y="1095"/>
      <point x="995" y="1016" type="curve" smooth="yes"/>
      <point x="1065" y="936"/>
      <point x="1093" y="829"/>
      <point x="1093" y="721" type="curve" smooth="yes"/>
      <point x="1093" y="670"/>
      <point x="1087" y="618"/>
      <point x="1076" y="559" type="curve" smooth="yes"/>
      <point x="1040" y="374"/>
      <point x="959" y="226"/>
      <point x="844" y="126" type="curve" smooth="yes"/>
      <point x="729" y="25"/>
      <point x="583" y="-29"/>
      <point x="416" y="-29" type="curve" smooth="yes"/>
    </contour>
  </outline>
</glyph>
<glyph name="uni04EE" format="1">
  <advance width="1233"/>
  <unicode hex="04EE"/>
  <note>
	uni04EE
  </note>
  <outline>
    <contour>
      <point x="546" y="1850" type="line"/>
      <point x="1144" y="1850" type="line"/>
      <point x="1115" y="1702" type="line"/>
      <point x="517" y="1702" type="line"/>
    </contour>
    <contour>
      <point x="87" y="172" type="line"/>
      <point x="196" y="172" type="line" smooth="yes"/>
      <point x="249" y="172"/>
      <point x="294" y="189"/>
      <point x="332" y="218" type="curve" smooth="yes"/>
      <point x="370" y="247"/>
      <point x="403" y="290"/>
      <point x="435" y="342" type="curve" smooth="yes"/>
      <point x="448" y="363"/>
      <point x="464" y="391"/>
      <point x="479" y="416" type="curve"/>
      <point x="264" y="1493" type="line"/>
      <point x="481" y="1493" type="line"/>
      <point x="631" y="663" type="line"/>
      <point x="1100" y="1493" type="line"/>
      <point x="1313" y="1493" type="line"/>
      <point x="694" y="425" type="line" smooth="yes"/>
      <point x="633" y="318"/>
      <point x="569" y="221"/>
      <point x="513" y="156" type="curve" smooth="yes"/>
      <point x="481" y="119"/>
      <point x="443" y="81"/>
      <point x="393" y="51" type="curve" smooth="yes"/>
      <point x="343" y="21"/>
      <point x="281" y="0"/>
      <point x="202" y="0" type="curve" smooth="yes"/>
      <point x="54" y="0" type="line"/>
    </contour>
  </outline>
</glyph>
<glyph name="uni04F1" format="1">
  <advance width="1233"/>
  <unicode hex="04F1"/>
  <note>
	uni04F1
  </note>
  <outline>
    <contour>
      <point x="489" y="1320" type="line" smooth="yes"/>
      <point x="469" y="1320"/>
      <point x="458" y="1333"/>
      <point x="462" y="1353" type="curve" smooth="yes"/>
      <point x="490" y="1495" type="line" smooth="yes"/>
      <point x="493" y="1513"/>
      <point x="503" y="1522"/>
      <point x="522" y="1522" type="curve" smooth="yes"/>
      <point x="665" y="1522" type="line" smooth="yes"/>
      <point x="684" y="1522"/>
      <point x="693" y="1514"/>
      <point x="693" y="1497" type="curve" smooth="yes"/>
      <point x="693" y="1494"/>
      <point x="693" y="1491"/>
      <point x="692" y="1489" type="curve"/>
      <point x="664" y="1347" type="line" smooth="yes"/>
      <point x="661" y="1329"/>
      <point x="650" y="1320"/>
      <point x="632" y="1320" type="curve" smooth="yes"/>
    </contour>
    <contour>
      <point x="880" y="1320" type="line" smooth="yes"/>
      <point x="860" y="1320"/>
      <point x="849" y="1333"/>
      <point x="853" y="1353" type="curve" smooth="yes"/>
      <point x="881" y="1495" type="line" smooth="yes"/>
      <point x="884" y="1513"/>
      <point x="894" y="1522"/>
      <point x="913" y="1522" type="curve" smooth="yes"/>
      <point x="1056" y="1522" type="line" smooth="yes"/>
      <point x="1075" y="1522"/>
      <point x="1084" y="1514"/>
      <point x="1084" y="1497" type="curve" smooth="yes"/>
      <point x="1084" y="1494"/>
      <point x="1084" y="1491"/>
      <point x="1083" y="1489" type="curve"/>
      <point x="1055" y="1347" type="line" smooth="yes"/>
      <point x="1052" y="1329"/>
      <point x="1041" y="1320"/>
      <point x="1023" y="1320" type="curve" smooth="yes"/>
    </contour>
    <contour>
      <point x="10" y="-272" type="line"/>
      <point x="118" y="-272" type="line" smooth="yes"/>
      <point x="174" y="-272"/>
      <point x="220" y="-256"/>
      <point x="261" y="-222" type="curve" smooth="yes"/>
      <point x="302" y="-188"/>
      <point x="340" y="-137"/>
      <point x="376" y="-66" type="curve" smooth="yes"/>
      <point x="419" y="18" type="line"/>
      <point x="202" y="1120" type="line"/>
      <point x="385" y="1120" type="line"/>
      <point x="557" y="258" type="line"/>
      <point x="1040" y="1120" type="line"/>
      <point x="1245" y="1120" type="line"/>
      <point x="806" y="360" type="line" smooth="yes"/>
      <point x="789" y="331"/>
      <point x="773" y="303"/>
      <point x="757" y="274" type="curve" smooth="yes"/>
      <point x="724" y="217"/>
      <point x="694" y="165"/>
      <point x="670" y="123" type="curve" smooth="yes"/>
      <point x="658" y="102"/>
      <point x="648" y="85"/>
      <point x="641" y="72" type="curve" smooth="yes"/>
      <point x="536" y="-112"/>
      <point x="473" y="-220"/>
      <point x="432" y="-276" type="curve" smooth="yes"/>
      <point x="352" y="-381"/>
      <point x="250" y="-426"/>
      <point x="129" y="-426" type="curve" smooth="yes"/>
      <point x="-19" y="-426" type="line"/>
    </contour>
  </outline>
</glyph>
<glyph name="uni0510" format="1">
  <advance width="1233"/>
  <unicode hex="0510"/>
  <note>
	uni0510
  </note>
  <outline>
    <contour>
      <point x="368" y="-29"/>
      <point x="255" y="2"/>
      <point x="179" y="61" type="curve" smooth="yes"/>
      <point x="103" y="120"/>
      <point x="62" y="205"/>
      <point x="62" y="313" type="curve" smooth="yes"/>
      <point x="62" y="346"/>
      <point x="65" y="379"/>
      <point x="72" y="412" type="curve" smooth="yes"/>
      <point x="111" y="611"/>
      <point x="241" y="746"/>
      <point x="450" y="799" type="curve"/>
      <point x="309" y="838"/>
      <point x="238" y="922"/>
      <point x="238" y="1047" type="curve" smooth="yes"/>
      <point x="238" y="1070"/>
      <point x="240" y="1095"/>
      <point x="245" y="1120" type="curve" smooth="yes"/>
      <point x="268" y="1241"/>
      <point x="336" y="1341"/>
      <point x="433" y="1411" type="curve" smooth="yes"/>
      <point x="530" y="1481"/>
      <point x="657" y="1520"/>
      <point x="798" y="1520" type="curve" smooth="yes"/>
      <point x="902" y="1520"/>
      <point x="1019" y="1499"/>
      <point x="1172" y="1456" type="curve"/>
      <point x="1136" y="1270" type="line"/>
      <point x="1007" y="1325"/>
      <point x="881" y="1350"/>
      <point x="778" y="1350" type="curve" smooth="yes"/>
      <point x="586" y="1350"/>
      <point x="468" y="1261"/>
      <point x="443" y="1112" type="curve" smooth="yes"/>
      <point x="440" y="1097"/>
      <point x="439" y="1081"/>
      <point x="439" y="1065" type="curve" smooth="yes"/>
      <point x="439" y="941"/>
      <point x="532" y="881"/>
      <point x="693" y="881" type="curve" smooth="yes"/>
      <point x="847" y="881" type="line"/>
      <point x="815" y="715" type="line"/>
      <point x="661" y="715" type="line" smooth="yes"/>
      <point x="562" y="715"/>
      <point x="476" y="690"/>
      <point x="409" y="642" type="curve" smooth="yes"/>
      <point x="342" y="594"/>
      <point x="296" y="524"/>
      <point x="276" y="432" type="curve" smooth="yes"/>
      <point x="271" y="405"/>
      <point x="268" y="382"/>
      <point x="268" y="361" type="curve" smooth="yes"/>
      <point x="268" y="224"/>
      <point x="367" y="141"/>
      <point x="566" y="141" type="curve" smooth="yes"/>
      <point x="694" y="141"/>
      <point x="833" y="174"/>
      <point x="982" y="246" type="curve"/>
      <point x="943" y="45" type="line"/>
      <point x="795" y="-3"/>
      <point x="644" y="-29"/>
      <point x="512" y="-29" type="curve" smooth="yes"/>
    </contour>
  </outline>
</glyph>
<glyph name="uni0533" format="1">
  <advance width="1233"/>
  <unicode hex="0533"/>
  <note>
	uni0533
  </note>
  <outline>
    <contour>
      <point x="760" y="451" type="line"/>
      <point x="491" y="451" type="line" smooth="yes"/>
      <point x="346" y="451"/>
      <point x="241" y="491"/>
      <point x="177" y="579" type="curve" smooth="yes"/>
      <point x="134" y="636"/>
      <point x="111" y="712"/>
      <point x="111" y="816" type="curve" smooth="yes"/>
      <point x="111" y="917"/>
      <point x="139" y="1097"/>
      <point x="208" y="1232" type="curve" smooth="yes"/>
      <point x="276" y="1367"/>
      <point x="372" y="1451"/>
      <point x="495" y="1491" type="curve" smooth="yes"/>
      <point x="556" y="1510"/>
      <point x="624" y="1520"/>
      <point x="699" y="1520" type="curve" smooth="yes"/>
      <point x="847" y="1520"/>
      <point x="957" y="1482"/>
      <point x="1021" y="1397" type="curve" smooth="yes"/>
      <point x="1064" y="1341"/>
      <point x="1086" y="1263"/>
      <point x="1086" y="1163" type="curve" smooth="yes"/>
      <point x="1086" y="1110"/>
      <point x="1080" y="1051"/>
      <point x="1067" y="988" type="curve" smooth="yes"/>
      <point x="995" y="621" type="line"/>
      <point x="1120" y="621" type="line"/>
      <point x="1087" y="451" type="line"/>
      <point x="962" y="451" type="line"/>
      <point x="875" y="0" type="line"/>
      <point x="673" y="0" type="line"/>
    </contour>
    <contour>
      <point x="793" y="621" type="line"/>
      <point x="878" y="1058" type="line" smooth="yes"/>
      <point x="885" y="1094"/>
      <point x="890" y="1129"/>
      <point x="890" y="1161" type="curve" smooth="yes"/>
      <point x="890" y="1198"/>
      <point x="884" y="1231"/>
      <point x="869" y="1262" type="curve" smooth="yes"/>
      <point x="841" y="1318"/>
      <point x="781" y="1356"/>
      <point x="664" y="1356" type="curve" smooth="yes"/>
      <point x="547" y="1356"/>
      <point x="480" y="1319"/>
      <point x="431" y="1251" type="curve" smooth="yes"/>
      <point x="383" y="1186"/>
      <point x="347" y="1088"/>
      <point x="328" y="988" type="curve" smooth="yes"/>
      <point x="317" y="932"/>
      <point x="312" y="879"/>
      <point x="312" y="832" type="curve" smooth="yes"/>
      <point x="312" y="741"/>
      <point x="326" y="688"/>
      <point x="389" y="650" type="curve" smooth="yes"/>
      <point x="420" y="631"/>
      <point x="465" y="621"/>
      <point x="524" y="621" type="curve" smooth="yes"/>
    </contour>
  </outline>
</glyph>
<glyph name="uni0537" format="1">
  <advance width="1233"/>
  <unicode hex="0537"/>
  <note>
	uni0537
  </note>
  <outline>
    <contour>
      <point x="265" y="1493" type="line"/>
      <point x="468" y="1493" type="line"/>
      <point x="395" y="1120" type="line"/>
      <point x="1185" y="1120" type="line"/>
      <point x="1152" y="950" type="line"/>
      <point x="362" y="950" type="line"/>
      <point x="210" y="170" type="line"/>
      <point x="861" y="170" type="line"/>
      <point x="828" y="0" type="line"/>
      <point x="-25" y="0" type="line"/>
    </contour>
  </outline>
</glyph>
<glyph name="uni053F" format="1">
  <advance width="1233"/>
  <unicode hex="053F"/>
  <note>
	uni053F
  </note>
  <outline>
    <contour>
      <point x="821" y="431" type="line"/>
      <point x="737" y="380"/>
      <point x="648" y="352"/>
      <point x="531" y="352" type="curve" smooth="yes"/>
      <point x="395" y="352"/>
      <point x="282" y="391"/>
      <point x="217" y="471" type="curve" smooth="yes"/>
      <point x="172" y="526"/>
      <point x="149" y="601"/>
      <point x="149" y="696" type="curve" smooth="yes"/>
      <point x="149" y="739"/>
      <point x="154" y="786"/>
      <point x="164" y="838" type="curve" smooth="yes"/>
      <point x="292" y="1493" type="line"/>
      <point x="494" y="1493" type="line"/>
      <point x="354" y="776" type="line" smooth="yes"/>
      <point x="349" y="749"/>
      <point x="346" y="724"/>
      <point x="346" y="701" type="curve" smooth="yes"/>
      <point x="346" y="666"/>
      <point x="352" y="633"/>
      <point x="369" y="602" type="curve"/>
      <point x="384" y="577"/>
      <point x="405" y="555"/>
      <point x="437" y="540" type="curve" smooth="yes"/>
      <point x="469" y="525"/>
      <point x="513" y="516"/>
      <point x="570" y="516" type="curve" smooth="yes"/>
      <point x="686" y="516"/>
      <point x="758" y="551"/>
      <point x="806" y="602" type="curve" smooth="yes"/>
      <point x="850" y="649"/>
      <point x="875" y="709"/>
      <point x="888" y="776" type="curve" smooth="yes"/>
      <point x="955" y="1120" type="line"/>
      <point x="1157" y="1120" type="line"/>
      <point x="939" y="0" type="line"/>
      <point x="737" y="0" type="line"/>
    </contour>
  </outline>
</glyph>
<glyph name="uni0543" format="1">
  <advance width="1233"/>
  <unicode hex="0543"/>
  <note>
	uni0543
  </note>
  <outline>
    <contour>
      <point x="215" y="0" type="line" smooth="yes"/>
      <point x="134" y="0"/>
      <point x="68" y="18"/>
      <point x="28" y="54" type="curve" smooth="yes"/>
      <point x="-1" y="81"/>
      <point x="-22" y="120"/>
      <point x="-22" y="180" type="curve" smooth="yes"/>
      <point x="-22" y="196"/>
      <point x="-20" y="214"/>
      <point x="-17" y="233" type="curve" smooth="yes"/>
      <point x="6" y="357"/>
      <point x="100" y="505"/>
      <point x="241" y="688" type="curve" smooth="yes"/>
      <point x="317" y="787"/>
      <point x="406" y="892"/>
      <point x="486" y="983" type="curve"/>
      <point x="292" y="1493" type="line"/>
      <point x="520" y="1493" type="line"/>
      <point x="648" y="1155" type="line"/>
      <point x="881" y="1388"/>
      <point x="1089" y="1520"/>
      <point x="1293" y="1520" type="curve"/>
      <point x="1259" y="1345" type="line"/>
      <point x="1114" y="1345"/>
      <point x="932" y="1221"/>
      <point x="712" y="988" type="curve"/>
      <point x="1025" y="164" type="line"/>
      <point x="993" y="0" type="line"/>
    </contour>
    <contour>
      <point x="795" y="175" type="line"/>
      <point x="553" y="808" type="line"/>
      <point x="452" y="688"/>
      <point x="331" y="531"/>
      <point x="268" y="428" type="curve" smooth="yes"/>
      <point x="237" y="377"/>
      <point x="218" y="332"/>
      <point x="211" y="294" type="curve" smooth="yes"/>
      <point x="209" y="284"/>
      <point x="208" y="275"/>
      <point x="208" y="266" type="curve" smooth="yes"/>
      <point x="208" y="209"/>
      <point x="254" y="189"/>
      <point x="299" y="181" type="curve" smooth="yes"/>
      <point x="321" y="177"/>
      <point x="347" y="175"/>
      <point x="377" y="175" type="curve" smooth="yes"/>
    </contour>
  </outline>
</glyph>
<glyph name="uni0549" format="1">
  <advance width="1233"/>
  <unicode hex="0549"/>
  <note>
	uni0549
  </note>
  <outline>
    <contour>
      <point x="109" y="267" type="line"/>
      <point x="151" y="479" type="line"/>
      <point x="369" y="378" type="line" smooth="yes"/>
      <point x="408" y="359"/>
      <point x="472" y="344"/>
      <point x="528" y="344" type="curve" smooth="yes"/>
      <point x="631" y="344"/>
      <point x="718" y="395"/>
      <point x="794" y="494" type="curve" smooth="yes"/>
      <point x="830" y="541"/>
      <point x="863" y="599"/>
      <point x="891" y="668" type="curve" smooth="yes"/>
      <point x="920" y="739"/>
      <point x="942" y="816"/>
      <point x="957" y="892" type="curve" smooth="yes"/>
      <point x="972" y="967"/>
      <point x="979" y="1038"/>
      <point x="979" y="1098" type="curve" smooth="yes"/>
      <point x="979" y="1227"/>
      <point x="942" y="1296"/>
      <point x="867" y="1331" type="curve" smooth="yes"/>
      <point x="831" y="1348"/>
      <point x="785" y="1356"/>
      <point x="729" y="1356" type="curve" smooth="yes"/>
      <point x="621" y="1356"/>
      <point x="539" y="1327"/>
      <point x="474" y="1252" type="curve" smooth="yes"/>
      <point x="407" y="1176"/>
      <point x="359" y="1056"/>
      <point x="330" y="895" type="curve" smooth="yes"/>
      <point x="326" y="873" type="line"/>
      <point x="123" y="873" type="line"/>
      <point x="127" y="895" type="line" smooth="yes"/>
      <point x="167" y="1116"/>
      <point x="260" y="1280"/>
      <point x="371" y="1379" type="curve" smooth="yes"/>
      <point x="484" y="1479"/>
      <point x="618" y="1520"/>
      <point x="759" y="1520" type="curve" smooth="yes"/>
      <point x="907" y="1520"/>
      <point x="1034" y="1476"/>
      <point x="1107" y="1376" type="curve" smooth="yes"/>
      <point x="1158" y="1307"/>
      <point x="1189" y="1201"/>
      <point x="1189" y="1072" type="curve" smooth="yes"/>
      <point x="1189" y="960"/>
      <point x="1164" y="828"/>
      <point x="1114" y="701" type="curve" smooth="yes"/>
      <point x="1064" y="574"/>
      <point x="997" y="468"/>
      <point x="932" y="401" type="curve" smooth="yes"/>
      <point x="867" y="333"/>
      <point x="799" y="290"/>
      <point x="735" y="268" type="curve" smooth="yes"/>
      <point x="703" y="257"/>
      <point x="674" y="251"/>
      <point x="647" y="251" type="curve"/>
      <point x="860" y="152" type="line"/>
      <point x="819" y="-58" type="line"/>
    </contour>
  </outline>
</glyph>
<glyph name="uni054D" format="1">
  <advance width="1233"/>
  <unicode hex="054D"/>
  <note>
	uni054D
  </note>
  <outline>
    <contour>
      <point x="320" y="-29"/>
      <point x="211" y="10"/>
      <point x="146" y="90" type="curve" smooth="yes"/>
      <point x="101" y="145"/>
      <point x="78" y="220"/>
      <point x="78" y="314" type="curve" smooth="yes"/>
      <point x="78" y="357"/>
      <point x="83" y="405"/>
      <point x="93" y="457" type="curve" smooth="yes"/>
      <point x="294" y="1493" type="line"/>
      <point x="496" y="1493" type="line"/>
      <point x="283" y="395" type="line" smooth="yes"/>
      <point x="278" y="368"/>
      <point x="275" y="343"/>
      <point x="275" y="319" type="curve" smooth="yes"/>
      <point x="275" y="284"/>
      <point x="281" y="250"/>
      <point x="297" y="221" type="curve" smooth="yes"/>
      <point x="325" y="170"/>
      <point x="382" y="135"/>
      <point x="498" y="135" type="curve" smooth="yes"/>
      <point x="613" y="135"/>
      <point x="687" y="170"/>
      <point x="735" y="221" type="curve" smooth="yes"/>
      <point x="782" y="270"/>
      <point x="805" y="334"/>
      <point x="817" y="395" type="curve" smooth="yes"/>
      <point x="1030" y="1493" type="line"/>
      <point x="1232" y="1493" type="line"/>
      <point x="1031" y="457" type="line" smooth="yes"/>
      <point x="999" y="290"/>
      <point x="932" y="170"/>
      <point x="836" y="90" type="curve" smooth="yes"/>
      <point x="740" y="10"/>
      <point x="616" y="-29"/>
      <point x="468" y="-29" type="curve" smooth="yes"/>
    </contour>
  </outline>
</glyph>
<glyph name="uni0556" format="1">
  <advance width="1233"/>
  <unicode hex="0556"/>
  <note>
	uni0556
  </note>
  <outline>
    <contour>
      <point x="395" y="-29"/>
      <point x="328" y="-25"/>
      <point x="274" y="-16" type="curve" smooth="yes"/>
      <point x="220" y="-8"/>
      <point x="177" y="5"/>
      <point x="141" y="24" type="curve" smooth="yes"/>
      <point x="60" y="67"/>
      <point x="23" y="137"/>
      <point x="10" y="229" type="curve" smooth="yes"/>
      <point x="6" y="254"/>
      <point x="5" y="279"/>
      <point x="5" y="304" type="curve" smooth="yes"/>
      <point x="5" y="344"/>
      <point x="8" y="383"/>
      <point x="15" y="422" type="curve" smooth="yes"/>
      <point x="21" y="460"/>
      <point x="27" y="498"/>
      <point x="33" y="537" type="curve" smooth="yes"/>
      <point x="36" y="556" type="line"/>
      <point x="230" y="556" type="line"/>
      <point x="227" y="537" type="line" smooth="yes"/>
      <point x="211" y="454"/>
      <point x="200" y="386"/>
      <point x="200" y="327" type="curve" smooth="yes"/>
      <point x="200" y="295"/>
      <point x="203" y="266"/>
      <point x="211" y="241" type="curve" smooth="yes"/>
      <point x="234" y="172"/>
      <point x="288" y="133"/>
      <point x="401" y="133" type="curve"/>
      <point x="560" y="952" type="line"/>
      <point x="335" y="952"/>
      <point x="229" y="1014"/>
      <point x="229" y="1155" type="curve" smooth="yes"/>
      <point x="229" y="1177"/>
      <point x="231" y="1200"/>
      <point x="236" y="1223" type="curve" smooth="yes"/>
      <point x="253" y="1311"/>
      <point x="291" y="1381"/>
      <point x="367" y="1428" type="curve" smooth="yes"/>
      <point x="437" y="1471"/>
      <point x="540" y="1493"/>
      <point x="676" y="1493" type="curve" smooth="yes"/>
      <point x="858" y="1493" type="line"/>
      <point x="786" y="1120" type="line"/>
      <point x="947" y="1113"/>
      <point x="1060" y="1069"/>
      <point x="1109" y="980" type="curve" smooth="yes"/>
      <point x="1136" y="929"/>
      <point x="1151" y="855"/>
      <point x="1151" y="763" type="curve" smooth="yes"/>
      <point x="1151" y="695"/>
      <point x="1143" y="619"/>
      <point x="1126" y="536" type="curve" smooth="yes"/>
      <point x="1103" y="428"/>
      <point x="1067" y="315"/>
      <point x="1022" y="230" type="curve" smooth="yes"/>
      <point x="975" y="142"/>
      <point x="913" y="68"/>
      <point x="818" y="24" type="curve" smooth="yes"/>
      <point x="777" y="5"/>
      <point x="724" y="-11"/>
      <point x="668" y="-19" type="curve" smooth="yes"/>
      <point x="611" y="-27"/>
      <point x="542" y="-29"/>
      <point x="479" y="-29" type="curve" smooth="yes"/>
    </contour>
    <contour>
      <point x="634" y="1329" type="line"/>
      <point x="570" y="1329"/>
      <point x="527" y="1326"/>
      <point x="496" y="1311" type="curve" smooth="yes"/>
      <point x="464" y="1296"/>
      <point x="446" y="1270"/>
      <point x="437" y="1223" type="curve"/>
      <point x="434" y="1211"/>
      <point x="433" y="1201"/>
      <point x="433" y="1190" type="curve" smooth="yes"/>
      <point x="433" y="1139"/>
      <point x="472" y="1127"/>
      <point x="514" y="1123" type="curve" smooth="yes"/>
      <point x="535" y="1121"/>
      <point x="561" y="1120"/>
      <point x="593" y="1120" type="curve"/>
    </contour>
    <contour>
      <point x="594" y="133" type="line"/>
      <point x="706" y="133"/>
      <point x="776" y="170"/>
      <point x="823" y="237" type="curve" smooth="yes"/>
      <point x="868" y="301"/>
      <point x="899" y="401"/>
      <point x="926" y="537" type="curve" smooth="yes"/>
      <point x="945" y="629"/>
      <point x="955" y="703"/>
      <point x="955" y="763" type="curve" smooth="yes"/>
      <point x="955" y="834"/>
      <point x="941" y="899"/>
      <point x="877" y="928" type="curve" smooth="yes"/>
      <point x="844" y="942"/>
      <point x="803" y="949"/>
      <point x="753" y="949" type="curve"/>
    </contour>
  </outline>
</glyph>
<glyph name="uni0562" format="1">
  <advance width="1233"/>
  <unicode hex="0562"/>
  <note>
	uni0562
  </note>
  <outline>
    <contour>
      <point x="330" y="1120" type="line"/>
      <point x="514" y="1120" type="line"/>
      <point x="481" y="952" type="line"/>
      <point x="573" y="1082"/>
      <point x="696" y="1147"/>
      <point x="851" y="1147" type="curve" smooth="yes"/>
      <point x="1036" y="1147"/>
      <point x="1122" y="1053"/>
      <point x="1122" y="865" type="curve" smooth="yes"/>
      <point x="1122" y="814"/>
      <point x="1115" y="758"/>
      <point x="1103" y="694" type="curve" smooth="yes"/>
      <point x="1056" y="450" type="line"/>
      <point x="871" y="450" type="line"/>
      <point x="918" y="694" type="line" smooth="yes"/>
      <point x="926" y="737"/>
      <point x="931" y="776"/>
      <point x="931" y="809" type="curve" smooth="yes"/>
      <point x="931" y="932"/>
      <point x="874" y="987"/>
      <point x="757" y="987" type="curve" smooth="yes"/>
      <point x="668" y="987"/>
      <point x="594" y="954"/>
      <point x="537" y="894" type="curve" smooth="yes"/>
      <point x="480" y="833"/>
      <point x="440" y="744"/>
      <point x="419" y="633" type="curve" smooth="yes"/>
      <point x="324" y="143" type="line"/>
      <point x="1006" y="143" type="line"/>
      <point x="978" y="0" type="line"/>
      <point x="296" y="0" type="line"/>
      <point x="214" y="-426" type="line"/>
      <point x="30" y="-426" type="line"/>
    </contour>
  </outline>
</glyph>
<glyph name="uni0566" format="1">
  <advance width="1233"/>
  <unicode hex="0566"/>
  <note>
	uni0566
  </note>
  <outline>
    <contour>
      <point x="763" y="139" type="line"/>
      <point x="679" y="26"/>
      <point x="568" y="-33"/>
      <point x="429" y="-33" type="curve" smooth="yes"/>
      <point x="292" y="-33"/>
      <point x="198" y="24"/>
      <point x="143" y="124" type="curve" smooth="yes"/>
      <point x="108" y="188"/>
      <point x="91" y="268"/>
      <point x="91" y="363" type="curve" smooth="yes"/>
      <point x="91" y="420"/>
      <point x="97" y="483"/>
      <point x="110" y="551" type="curve" smooth="yes"/>
      <point x="146" y="739"/>
      <point x="218" y="885"/>
      <point x="310" y="985" type="curve" smooth="yes"/>
      <point x="406" y="1088"/>
      <point x="525" y="1143"/>
      <point x="658" y="1143" type="curve" smooth="yes"/>
      <point x="794" y="1143"/>
      <point x="886" y="1086"/>
      <point x="925" y="973" type="curve"/>
      <point x="974" y="1120" type="line"/>
      <point x="1139" y="1120" type="line"/>
      <point x="866" y="-281" type="line"/>
      <point x="1034" y="-281" type="line"/>
      <point x="1006" y="-426" type="line"/>
      <point x="653" y="-426" type="line"/>
    </contour>
    <contour>
      <point x="674" y="123"/>
      <point x="789" y="276"/>
      <point x="844" y="555" type="curve" smooth="yes"/>
      <point x="857" y="624"/>
      <point x="864" y="683"/>
      <point x="864" y="734" type="curve" smooth="yes"/>
      <point x="864" y="901"/>
      <point x="796" y="987"/>
      <point x="659" y="987" type="curve" smooth="yes"/>
      <point x="566" y="987"/>
      <point x="491" y="947"/>
      <point x="436" y="879" type="curve" smooth="yes"/>
      <point x="392" y="824"/>
      <point x="356" y="741"/>
      <point x="329" y="651" type="curve" smooth="yes"/>
      <point x="302" y="561"/>
      <point x="287" y="462"/>
      <point x="287" y="378" type="curve" smooth="yes"/>
      <point x="287" y="261"/>
      <point x="318" y="185"/>
      <point x="379" y="150" type="curve" smooth="yes"/>
      <point x="410" y="132"/>
      <point x="447" y="123"/>
      <point x="491" y="123" type="curve" smooth="yes"/>
    </contour>
  </outline>
</glyph>
<glyph name="uni056E" format="1">
  <advance width="1233"/>
  <unicode hex="056E"/>
  <note>
	uni056E
  </note>
  <outline>
    <contour>
      <point x="290" y="-29"/>
      <point x="185" y="33"/>
      <point x="128" y="132" type="curve" smooth="yes"/>
      <point x="89" y="197"/>
      <point x="72" y="276"/>
      <point x="72" y="365" type="curve" smooth="yes"/>
      <point x="72" y="472"/>
      <point x="99" y="637"/>
      <point x="167" y="772" type="curve" smooth="yes"/>
      <point x="234" y="907"/>
      <point x="323" y="1002"/>
      <point x="427" y="1056" type="curve" smooth="yes"/>
      <point x="478" y="1083"/>
      <point x="532" y="1101"/>
      <point x="588" y="1111" type="curve"/>
      <point x="352" y="1290" type="line"/>
      <point x="615" y="1579" type="line"/>
      <point x="744" y="1481" type="line"/>
      <point x="608" y="1330" type="line"/>
      <point x="889" y="1120" type="line"/>
      <point x="1160" y="1120" type="line"/>
      <point x="1127" y="950" type="line"/>
      <point x="1037" y="950" type="line"/>
      <point x="1065" y="889"/>
      <point x="1075" y="820"/>
      <point x="1075" y="753" type="curve" smooth="yes"/>
      <point x="1075" y="714"/>
      <point x="1071" y="674"/>
      <point x="1066" y="635" type="curve" smooth="yes"/>
      <point x="1061" y="596"/>
      <point x="1054" y="560"/>
      <point x="1049" y="535" type="curve" smooth="yes"/>
      <point x="1014" y="370"/>
      <point x="958" y="236"/>
      <point x="854" y="132" type="curve" smooth="yes"/>
      <point x="753" y="29"/>
      <point x="624" y="-29"/>
      <point x="459" y="-29" type="curve" smooth="yes"/>
    </contour>
    <contour>
      <point x="596" y="127"/>
      <point x="676" y="173"/>
      <point x="736" y="248" type="curve" smooth="yes"/>
      <point x="800" y="327"/>
      <point x="831" y="427"/>
      <point x="854" y="535" type="curve" smooth="yes"/>
      <point x="866" y="594"/>
      <point x="877" y="668"/>
      <point x="877" y="732" type="curve" smooth="yes"/>
      <point x="877" y="807"/>
      <point x="859" y="890"/>
      <point x="803" y="950" type="curve"/>
      <point x="650" y="950" type="line" smooth="yes"/>
      <point x="546" y="950"/>
      <point x="465" y="904"/>
      <point x="405" y="828" type="curve" smooth="yes"/>
      <point x="342" y="751"/>
      <point x="304" y="644"/>
      <point x="283" y="535" type="curve" smooth="yes"/>
      <point x="272" y="484"/>
      <point x="267" y="434"/>
      <point x="267" y="387" type="curve" smooth="yes"/>
      <point x="267" y="282"/>
      <point x="298" y="202"/>
      <point x="363" y="159" type="curve" smooth="yes"/>
      <point x="395" y="138"/>
      <point x="437" y="127"/>
      <point x="489" y="127" type="curve" smooth="yes"/>
    </contour>
  </outline>
</glyph>
<glyph name="uni0572" format="1">
  <advance width="1233"/>
  <unicode hex="0572"/>
  <note>
	uni0572
  </note>
  <outline>
    <contour>
      <point x="849" y="694" type="line" smooth="yes"/>
      <point x="857" y="737"/>
      <point x="862" y="776"/>
      <point x="862" y="809" type="curve" smooth="yes"/>
      <point x="862" y="932"/>
      <point x="805" y="987"/>
      <point x="688" y="987" type="curve" smooth="yes"/>
      <point x="599" y="987"/>
      <point x="525" y="954"/>
      <point x="468" y="894" type="curve" smooth="yes"/>
      <point x="411" y="833"/>
      <point x="371" y="744"/>
      <point x="350" y="633" type="curve" smooth="yes"/>
      <point x="227" y="0" type="line"/>
      <point x="43" y="0" type="line"/>
      <point x="261" y="1120" type="line"/>
      <point x="425" y="1120" type="line"/>
      <point x="412" y="952" type="line"/>
      <point x="504" y="1082"/>
      <point x="627" y="1147"/>
      <point x="782" y="1147" type="curve" smooth="yes"/>
      <point x="965" y="1147"/>
      <point x="1053" y="1056"/>
      <point x="1053" y="865" type="curve" smooth="yes"/>
      <point x="1053" y="814"/>
      <point x="1046" y="758"/>
      <point x="1034" y="694" type="curve" smooth="yes"/>
      <point x="844" y="-283" type="line"/>
      <point x="993" y="-283" type="line"/>
      <point x="966" y="-426" type="line"/>
      <point x="632" y="-426" type="line"/>
    </contour>
  </outline>
</glyph>
<glyph name="uni0578" format="1">
  <advance width="1233"/>
  <unicode hex="0578"/>
  <note>
	uni0578
  </note>
  <outline>
    <contour>
      <point x="297" y="1120" type="line"/>
      <point x="461" y="1120" type="line"/>
      <point x="449" y="952" type="line"/>
      <point x="553" y="1085"/>
      <point x="666" y="1147"/>
      <point x="803" y="1147" type="curve" smooth="yes"/>
      <point x="891" y="1147"/>
      <point x="963" y="1122"/>
      <point x="1013" y="1075" type="curve" smooth="yes"/>
      <point x="1063" y="1027"/>
      <point x="1090" y="959"/>
      <point x="1090" y="874" type="curve" smooth="yes"/>
      <point x="1090" y="827"/>
      <point x="1082" y="763"/>
      <point x="1069" y="694" type="curve" smooth="yes"/>
      <point x="934" y="0" type="line"/>
      <point x="750" y="0" type="line"/>
      <point x="885" y="695" type="line"/>
      <point x="886" y="698"/>
      <point x="887" y="703"/>
      <point x="888" y="709" type="curve"/>
      <point x="898" y="756"/>
      <point x="903" y="793"/>
      <point x="903" y="821" type="curve" smooth="yes"/>
      <point x="903" y="926"/>
      <point x="840" y="987"/>
      <point x="723" y="987" type="curve" smooth="yes"/>
      <point x="639" y="987"/>
      <point x="566" y="954"/>
      <point x="508" y="894" type="curve" smooth="yes"/>
      <point x="450" y="834"/>
      <point x="406" y="745"/>
      <point x="385" y="633" type="curve" smooth="yes"/>
      <point x="262" y="0" type="line"/>
      <point x="78" y="0" type="line"/>
    </contour>
  </outline>
</glyph>
<glyph name="uni0579" format="1">
  <advance width="1233"/>
  <unicode hex="0579"/>
  <note>
	uni0579
  </note>
  <outline>
    <contour>
      <point x="159" y="-426"/>
      <point x="116" y="-367"/>
      <point x="116" y="-298" type="curve" smooth="yes"/>
      <point x="116" y="-283"/>
      <point x="117" y="-269"/>
      <point x="120" y="-253" type="curve" smooth="yes"/>
      <point x="135" y="-177"/>
      <point x="177" y="-83"/>
      <point x="236" y="13" type="curve" smooth="yes"/>
      <point x="296" y="109"/>
      <point x="369" y="210"/>
      <point x="452" y="302" type="curve" smooth="yes"/>
      <point x="485" y="339"/>
      <point x="527" y="384"/>
      <point x="572" y="428" type="curve" smooth="yes"/>
      <point x="617" y="472"/>
      <point x="665" y="515"/>
      <point x="709" y="551" type="curve"/>
      <point x="649" y="551"/>
      <point x="576" y="571"/>
      <point x="520" y="618" type="curve" smooth="yes"/>
      <point x="477" y="654"/>
      <point x="444" y="705"/>
      <point x="444" y="780" type="curve" smooth="yes"/>
      <point x="444" y="797"/>
      <point x="446" y="816"/>
      <point x="450" y="836" type="curve" smooth="yes"/>
      <point x="465" y="912"/>
      <point x="505" y="994"/>
      <point x="600" y="1074" type="curve" smooth="yes"/>
      <point x="714" y="1170" type="line"/>
      <point x="815" y="1057" type="line"/>
      <point x="778" y="1027" type="line" smooth="yes"/>
      <point x="739" y="996"/>
      <point x="704" y="961"/>
      <point x="677" y="925" type="curve" smooth="yes"/>
      <point x="649" y="889"/>
      <point x="632" y="851"/>
      <point x="632" y="815" type="curve" smooth="yes"/>
      <point x="632" y="774"/>
      <point x="657" y="746"/>
      <point x="688" y="727" type="curve" smooth="yes"/>
      <point x="727" y="703"/>
      <point x="775" y="691"/>
      <point x="834" y="691" type="curve" smooth="yes"/>
      <point x="881" y="691"/>
      <point x="924" y="699"/>
      <point x="957" y="711" type="curve"/>
      <point x="998" y="598" type="line"/>
      <point x="879" y="515"/>
      <point x="769" y="419"/>
      <point x="680" y="330" type="curve" smooth="yes"/>
      <point x="592" y="242"/>
      <point x="508" y="142"/>
      <point x="444" y="49" type="curve" smooth="yes"/>
      <point x="375" y="-52"/>
      <point x="329" y="-143"/>
      <point x="329" y="-204" type="curve" smooth="yes"/>
      <point x="329" y="-237"/>
      <point x="342" y="-261"/>
      <point x="362" y="-273" type="curve"/>
      <point x="371" y="-280"/>
      <point x="384" y="-283"/>
      <point x="399" y="-283" type="curve" smooth="yes"/>
      <point x="862" y="-283" type="line"/>
      <point x="834" y="-426" type="line"/>
      <point x="256" y="-426" type="line" smooth="yes"/>
    </contour>
  </outline>
</glyph>
<glyph name="uni057A" format="1">
  <advance width="1233"/>
  <unicode hex="057A"/>
  <note>
	uni057A
  </note>
  <outline>
    <contour>
      <point x="913" y="96" type="line"/>
      <point x="848" y="9"/>
      <point x="775" y="-27"/>
      <point x="691" y="-27" type="curve" smooth="yes"/>
      <point x="599" y="-27"/>
      <point x="535" y="17"/>
      <point x="516" y="114" type="curve"/>
      <point x="451" y="18"/>
      <point x="381" y="-27"/>
      <point x="270" y="-27" type="curve" smooth="yes"/>
      <point x="187" y="-27"/>
      <point x="133" y="-3"/>
      <point x="106" y="76" type="curve" smooth="yes"/>
      <point x="96" y="106"/>
      <point x="91" y="143"/>
      <point x="91" y="187" type="curve" smooth="yes"/>
      <point x="91" y="259"/>
      <point x="104" y="350"/>
      <point x="127" y="471" type="curve" smooth="yes"/>
      <point x="253" y="1120" type="line"/>
      <point x="421" y="1120" type="line"/>
      <point x="296" y="479" type="line" smooth="yes"/>
      <point x="292" y="458"/>
      <point x="289" y="439"/>
      <point x="286" y="422" type="curve" smooth="yes"/>
      <point x="283" y="405"/>
      <point x="280" y="389"/>
      <point x="277" y="374" type="curve" smooth="yes"/>
      <point x="274" y="359"/>
      <point x="272" y="344"/>
      <point x="271" y="330" type="curve"/>
      <point x="269" y="316"/>
      <point x="267" y="302"/>
      <point x="265" y="287" type="curve" smooth="yes"/>
      <point x="262" y="263"/>
      <point x="260" y="240"/>
      <point x="260" y="221" type="curve" smooth="yes"/>
      <point x="260" y="162"/>
      <point x="278" y="127"/>
      <point x="350" y="127" type="curve" smooth="yes"/>
      <point x="407" y="127"/>
      <point x="447" y="149"/>
      <point x="472" y="188" type="curve" smooth="yes"/>
      <point x="485" y="209"/>
      <point x="499" y="242"/>
      <point x="513" y="288" type="curve" smooth="yes"/>
      <point x="527" y="333"/>
      <point x="542" y="397"/>
      <point x="558" y="479" type="curve" smooth="yes"/>
      <point x="683" y="1120" type="line"/>
      <point x="851" y="1120" type="line"/>
      <point x="726" y="479" type="line" smooth="yes"/>
      <point x="702" y="352"/>
      <point x="692" y="276"/>
      <point x="692" y="229" type="curve" smooth="yes"/>
      <point x="692" y="192"/>
      <point x="697" y="159"/>
      <point x="730" y="141" type="curve" smooth="yes"/>
      <point x="746" y="132"/>
      <point x="766" y="127"/>
      <point x="789" y="127" type="curve" smooth="yes"/>
      <point x="845" y="127"/>
      <point x="877" y="151"/>
      <point x="901" y="188" type="curve" smooth="yes"/>
      <point x="914" y="209"/>
      <point x="928" y="237"/>
      <point x="941" y="282" type="curve" smooth="yes"/>
      <point x="954" y="326"/>
      <point x="970" y="388"/>
      <point x="987" y="479" type="curve" smooth="yes"/>
      <point x="1112" y="1120" type="line"/>
      <point x="1279" y="1120" type="line"/>
      <point x="978" y="-426" type="line"/>
      <point x="811" y="-426" type="line"/>
    </contour>
  </outline>
</glyph>
<glyph name="uni057B" format="1">
  <advance width="1233"/>
  <unicode hex="057B"/>
  <note>
	uni057B
  </note>
  <outline>
    <contour>
      <point x="210" y="-426" type="line" smooth="yes"/>
      <point x="159" y="-426"/>
      <point x="117" y="-408"/>
      <point x="90" y="-379" type="curve" smooth="yes"/>
      <point x="67" y="-355"/>
      <point x="55" y="-327"/>
      <point x="55" y="-295" type="curve" smooth="yes"/>
      <point x="55" y="-286"/>
      <point x="56" y="-278"/>
      <point x="57" y="-269" type="curve"/>
      <point x="65" y="-216"/>
      <point x="96" y="-164"/>
      <point x="135" y="-117" type="curve" smooth="yes"/>
      <point x="174" y="-70"/>
      <point x="222" y="-26"/>
      <point x="266" y="14" type="curve" smooth="yes"/>
      <point x="313" y="57"/>
      <point x="338" y="86"/>
      <point x="358" y="133" type="curve" smooth="yes"/>
      <point x="375" y="172"/>
      <point x="387" y="223"/>
      <point x="394" y="262" type="curve" smooth="yes"/>
      <point x="397" y="282"/>
      <point x="399" y="300"/>
      <point x="399" y="317" type="curve" smooth="yes"/>
      <point x="399" y="364"/>
      <point x="387" y="402"/>
      <point x="367" y="446" type="curve" smooth="yes"/>
      <point x="352" y="477"/>
      <point x="332" y="510"/>
      <point x="323" y="525" type="curve" smooth="yes"/>
      <point x="290" y="580"/>
      <point x="261" y="628"/>
      <point x="250" y="689" type="curve" smooth="yes"/>
      <point x="247" y="704"/>
      <point x="246" y="721"/>
      <point x="246" y="738" type="curve" smooth="yes"/>
      <point x="246" y="837"/>
      <point x="305" y="957"/>
      <point x="434" y="1046" type="curve" smooth="yes"/>
      <point x="498" y="1090"/>
      <point x="567" y="1120"/>
      <point x="639" y="1136" type="curve" smooth="yes"/>
      <point x="675" y="1144"/>
      <point x="709" y="1148"/>
      <point x="752" y="1148" type="curve" smooth="yes"/>
      <point x="883" y="1148"/>
      <point x="997" y="1112"/>
      <point x="1065" y="1044" type="curve" smooth="yes"/>
      <point x="1118" y="991"/>
      <point x="1149" y="914"/>
      <point x="1149" y="826" type="curve" smooth="yes"/>
      <point x="1149" y="799"/>
      <point x="1146" y="774"/>
      <point x="1141" y="747" type="curve" smooth="yes"/>
      <point x="1120" y="642"/>
      <point x="1057" y="538"/>
      <point x="976" y="442" type="curve" smooth="yes"/>
      <point x="889" y="339"/>
      <point x="783" y="246"/>
      <point x="691" y="170" type="curve" smooth="yes"/>
      <point x="668" y="151"/>
      <point x="638" y="127"/>
      <point x="610" y="104" type="curve" smooth="yes"/>
      <point x="582" y="81"/>
      <point x="556" y="60"/>
      <point x="544" y="51" type="curve" smooth="yes"/>
      <point x="444" y="-28"/>
      <point x="374" y="-83"/>
      <point x="323" y="-139" type="curve" smooth="yes"/>
      <point x="296" y="-168"/>
      <point x="285" y="-186"/>
      <point x="280" y="-207" type="curve"/>
      <point x="279" y="-210"/>
      <point x="279" y="-212"/>
      <point x="279" y="-214" type="curve" smooth="yes"/>
      <point x="279" y="-217"/>
      <point x="279" y="-219"/>
      <point x="279" y="-221" type="curve" smooth="yes"/>
      <point x="279" y="-245"/>
      <point x="290" y="-259"/>
      <point x="301" y="-267" type="curve"/>
      <point x="316" y="-279"/>
      <point x="335" y="-283"/>
      <point x="350" y="-283" type="curve" smooth="yes"/>
      <point x="889" y="-283" type="line"/>
      <point x="862" y="-426" type="line"/>
    </contour>
    <contour>
      <point x="578" y="269"/>
      <point x="684" y="353"/>
      <point x="776" y="448" type="curve" smooth="yes"/>
      <point x="865" y="540"/>
      <point x="932" y="632"/>
      <point x="953" y="736" type="curve" smooth="yes"/>
      <point x="957" y="757"/>
      <point x="959" y="777"/>
      <point x="959" y="797" type="curve" smooth="yes"/>
      <point x="959" y="849"/>
      <point x="944" y="895"/>
      <point x="913" y="928" type="curve" smooth="yes"/>
      <point x="872" y="972"/>
      <point x="801" y="994"/>
      <point x="724" y="994" type="curve" smooth="yes"/>
      <point x="589" y="994"/>
      <point x="510" y="924"/>
      <point x="468" y="864" type="curve" smooth="yes"/>
      <point x="447" y="834"/>
      <point x="436" y="799"/>
      <point x="436" y="760" type="curve" smooth="yes"/>
      <point x="436" y="725"/>
      <point x="447" y="694"/>
      <point x="466" y="654" type="curve"/>
      <point x="469" y="647"/>
      <point x="472" y="641"/>
      <point x="474" y="638" type="curve"/>
      <point x="475" y="634"/>
      <point x="477" y="630"/>
      <point x="480" y="626" type="curve"/>
      <point x="484" y="618"/>
      <point x="490" y="608"/>
      <point x="502" y="585" type="curve"/>
      <point x="529" y="538"/>
      <point x="552" y="489"/>
      <point x="561" y="433" type="curve" smooth="yes"/>
      <point x="563" y="420"/>
      <point x="564" y="407"/>
      <point x="564" y="396" type="curve" smooth="yes"/>
      <point x="564" y="380"/>
      <point x="562" y="364"/>
      <point x="559" y="348" type="curve" smooth="yes"/>
      <point x="547" y="289"/>
      <point x="521" y="239"/>
      <point x="478" y="188" type="curve"/>
    </contour>
  </outline>
</glyph>
<glyph name="uni0580" format="1">
  <advance width="1233"/>
  <unicode hex="0580"/>
  <note>
	uni0580
  </note>
  <outline>
    <contour>
      <point x="335" y="1120" type="line"/>
      <point x="499" y="1120" type="line"/>
      <point x="486" y="952" type="line"/>
      <point x="578" y="1082"/>
      <point x="701" y="1147"/>
      <point x="856" y="1147" type="curve" smooth="yes"/>
      <point x="1039" y="1147"/>
      <point x="1127" y="1056"/>
      <point x="1127" y="865" type="curve" smooth="yes"/>
      <point x="1127" y="814"/>
      <point x="1120" y="758"/>
      <point x="1108" y="694" type="curve" smooth="yes"/>
      <point x="973" y="0" type="line"/>
      <point x="788" y="0" type="line"/>
      <point x="923" y="694" type="line" smooth="yes"/>
      <point x="931" y="737"/>
      <point x="936" y="774"/>
      <point x="936" y="809" type="curve" smooth="yes"/>
      <point x="936" y="933"/>
      <point x="878" y="987"/>
      <point x="762" y="987" type="curve" smooth="yes"/>
      <point x="673" y="987"/>
      <point x="599" y="954"/>
      <point x="542" y="894" type="curve" smooth="yes"/>
      <point x="485" y="833"/>
      <point x="445" y="744"/>
      <point x="424" y="633" type="curve" smooth="yes"/>
      <point x="219" y="-426" type="line"/>
      <point x="35" y="-426" type="line"/>
    </contour>
  </outline>
</glyph>
